%
M48
M72
T01C0.0236
T02C0.0400
T03C0.0787
%
T01
X8980Y12180
X10580Y12180
X11780Y11080
X11780Y9280
X11080Y8880
X11280Y8180
X12980Y8180
X13080Y8880
T02
X1380Y9580
X1380Y8580
X1380Y7580
X1380Y6580
X1380Y5580
X1380Y4580
X1380Y3580
X2380Y3580
X2380Y4580
X2380Y5580
X2380Y6580
X2380Y7580
X2380Y8580
X2380Y9580
X2330Y17830
X3330Y17830
X5480Y17830
X6480Y17830
X7480Y17830
X8480Y17830
X14830Y17830
X15830Y17830
X18430Y12330
X18430Y11330
X18430Y10330
X18430Y9080
X18430Y8080
X18430Y7080
X18430Y3430
X18430Y2430
X18430Y1430
T03
X4480Y19280
X9280Y19280
X13880Y19280
X16780Y19280
M30
