G75*
%MOIN*%
%OFA0B0*%
%FSLAX24Y24*%
%IPPOS*%
%LPD*%
%AMOC8*
5,1,8,0,0,1.08239X$1,22.5*
%
%ADD10C,0.0000*%
%ADD11R,0.0300X0.1000*%
%ADD12R,0.2100X0.0760*%
%ADD13OC8,0.0672*%
%ADD14R,0.0630X0.0709*%
%ADD15R,0.0710X0.0630*%
%ADD16R,0.0709X0.0630*%
%ADD17R,0.0394X0.1250*%
%ADD18R,0.0630X0.0710*%
%ADD19C,0.0600*%
%ADD20R,0.0394X0.1063*%
%ADD21R,0.2087X0.1575*%
%ADD22R,0.0600X0.0240*%
%ADD23R,0.0591X0.0591*%
%ADD24C,0.0160*%
%ADD25C,0.0240*%
%ADD26C,0.0100*%
%ADD27C,0.0356*%
%ADD28C,0.0320*%
D10*
X000380Y000380D02*
X000380Y010680D01*
X000880Y011180D01*
X000880Y019876D01*
X019950Y019876D01*
X019950Y000380D01*
X000380Y000380D01*
X004086Y019280D02*
X004088Y019319D01*
X004094Y019358D01*
X004104Y019396D01*
X004117Y019433D01*
X004134Y019468D01*
X004154Y019502D01*
X004178Y019533D01*
X004205Y019562D01*
X004234Y019588D01*
X004266Y019611D01*
X004300Y019631D01*
X004336Y019647D01*
X004373Y019659D01*
X004412Y019668D01*
X004451Y019673D01*
X004490Y019674D01*
X004529Y019671D01*
X004568Y019664D01*
X004605Y019653D01*
X004642Y019639D01*
X004677Y019621D01*
X004710Y019600D01*
X004741Y019575D01*
X004769Y019548D01*
X004794Y019518D01*
X004816Y019485D01*
X004835Y019451D01*
X004850Y019415D01*
X004862Y019377D01*
X004870Y019339D01*
X004874Y019300D01*
X004874Y019260D01*
X004870Y019221D01*
X004862Y019183D01*
X004850Y019145D01*
X004835Y019109D01*
X004816Y019075D01*
X004794Y019042D01*
X004769Y019012D01*
X004741Y018985D01*
X004710Y018960D01*
X004677Y018939D01*
X004642Y018921D01*
X004605Y018907D01*
X004568Y018896D01*
X004529Y018889D01*
X004490Y018886D01*
X004451Y018887D01*
X004412Y018892D01*
X004373Y018901D01*
X004336Y018913D01*
X004300Y018929D01*
X004266Y018949D01*
X004234Y018972D01*
X004205Y018998D01*
X004178Y019027D01*
X004154Y019058D01*
X004134Y019092D01*
X004117Y019127D01*
X004104Y019164D01*
X004094Y019202D01*
X004088Y019241D01*
X004086Y019280D01*
X008886Y019280D02*
X008888Y019319D01*
X008894Y019358D01*
X008904Y019396D01*
X008917Y019433D01*
X008934Y019468D01*
X008954Y019502D01*
X008978Y019533D01*
X009005Y019562D01*
X009034Y019588D01*
X009066Y019611D01*
X009100Y019631D01*
X009136Y019647D01*
X009173Y019659D01*
X009212Y019668D01*
X009251Y019673D01*
X009290Y019674D01*
X009329Y019671D01*
X009368Y019664D01*
X009405Y019653D01*
X009442Y019639D01*
X009477Y019621D01*
X009510Y019600D01*
X009541Y019575D01*
X009569Y019548D01*
X009594Y019518D01*
X009616Y019485D01*
X009635Y019451D01*
X009650Y019415D01*
X009662Y019377D01*
X009670Y019339D01*
X009674Y019300D01*
X009674Y019260D01*
X009670Y019221D01*
X009662Y019183D01*
X009650Y019145D01*
X009635Y019109D01*
X009616Y019075D01*
X009594Y019042D01*
X009569Y019012D01*
X009541Y018985D01*
X009510Y018960D01*
X009477Y018939D01*
X009442Y018921D01*
X009405Y018907D01*
X009368Y018896D01*
X009329Y018889D01*
X009290Y018886D01*
X009251Y018887D01*
X009212Y018892D01*
X009173Y018901D01*
X009136Y018913D01*
X009100Y018929D01*
X009066Y018949D01*
X009034Y018972D01*
X009005Y018998D01*
X008978Y019027D01*
X008954Y019058D01*
X008934Y019092D01*
X008917Y019127D01*
X008904Y019164D01*
X008894Y019202D01*
X008888Y019241D01*
X008886Y019280D01*
X013486Y019280D02*
X013488Y019319D01*
X013494Y019358D01*
X013504Y019396D01*
X013517Y019433D01*
X013534Y019468D01*
X013554Y019502D01*
X013578Y019533D01*
X013605Y019562D01*
X013634Y019588D01*
X013666Y019611D01*
X013700Y019631D01*
X013736Y019647D01*
X013773Y019659D01*
X013812Y019668D01*
X013851Y019673D01*
X013890Y019674D01*
X013929Y019671D01*
X013968Y019664D01*
X014005Y019653D01*
X014042Y019639D01*
X014077Y019621D01*
X014110Y019600D01*
X014141Y019575D01*
X014169Y019548D01*
X014194Y019518D01*
X014216Y019485D01*
X014235Y019451D01*
X014250Y019415D01*
X014262Y019377D01*
X014270Y019339D01*
X014274Y019300D01*
X014274Y019260D01*
X014270Y019221D01*
X014262Y019183D01*
X014250Y019145D01*
X014235Y019109D01*
X014216Y019075D01*
X014194Y019042D01*
X014169Y019012D01*
X014141Y018985D01*
X014110Y018960D01*
X014077Y018939D01*
X014042Y018921D01*
X014005Y018907D01*
X013968Y018896D01*
X013929Y018889D01*
X013890Y018886D01*
X013851Y018887D01*
X013812Y018892D01*
X013773Y018901D01*
X013736Y018913D01*
X013700Y018929D01*
X013666Y018949D01*
X013634Y018972D01*
X013605Y018998D01*
X013578Y019027D01*
X013554Y019058D01*
X013534Y019092D01*
X013517Y019127D01*
X013504Y019164D01*
X013494Y019202D01*
X013488Y019241D01*
X013486Y019280D01*
X016386Y019280D02*
X016388Y019319D01*
X016394Y019358D01*
X016404Y019396D01*
X016417Y019433D01*
X016434Y019468D01*
X016454Y019502D01*
X016478Y019533D01*
X016505Y019562D01*
X016534Y019588D01*
X016566Y019611D01*
X016600Y019631D01*
X016636Y019647D01*
X016673Y019659D01*
X016712Y019668D01*
X016751Y019673D01*
X016790Y019674D01*
X016829Y019671D01*
X016868Y019664D01*
X016905Y019653D01*
X016942Y019639D01*
X016977Y019621D01*
X017010Y019600D01*
X017041Y019575D01*
X017069Y019548D01*
X017094Y019518D01*
X017116Y019485D01*
X017135Y019451D01*
X017150Y019415D01*
X017162Y019377D01*
X017170Y019339D01*
X017174Y019300D01*
X017174Y019260D01*
X017170Y019221D01*
X017162Y019183D01*
X017150Y019145D01*
X017135Y019109D01*
X017116Y019075D01*
X017094Y019042D01*
X017069Y019012D01*
X017041Y018985D01*
X017010Y018960D01*
X016977Y018939D01*
X016942Y018921D01*
X016905Y018907D01*
X016868Y018896D01*
X016829Y018889D01*
X016790Y018886D01*
X016751Y018887D01*
X016712Y018892D01*
X016673Y018901D01*
X016636Y018913D01*
X016600Y018929D01*
X016566Y018949D01*
X016534Y018972D01*
X016505Y018998D01*
X016478Y019027D01*
X016454Y019058D01*
X016434Y019092D01*
X016417Y019127D01*
X016404Y019164D01*
X016394Y019202D01*
X016388Y019241D01*
X016386Y019280D01*
D11*
X010630Y010912D03*
X010130Y010912D03*
X009630Y010912D03*
X009130Y010912D03*
X008630Y010912D03*
X008130Y010912D03*
X007630Y010912D03*
X007130Y010912D03*
X006630Y010912D03*
X006130Y010912D03*
X005630Y010912D03*
X005130Y010912D03*
X004630Y010912D03*
X004130Y010912D03*
X004130Y007148D03*
X004630Y007148D03*
X005130Y007148D03*
X005630Y007148D03*
X006130Y007148D03*
X006630Y007148D03*
X007130Y007148D03*
X007630Y007148D03*
X008130Y007148D03*
X008630Y007148D03*
X009130Y007148D03*
X009630Y007148D03*
X010130Y007148D03*
X010630Y007148D03*
D12*
X010280Y005330D03*
X006480Y005330D03*
D13*
X002380Y005580D03*
X002380Y004580D03*
X002380Y003580D03*
X001380Y003580D03*
X001380Y004580D03*
X001380Y005580D03*
X001380Y006580D03*
X001380Y007580D03*
X001380Y008580D03*
X001380Y009580D03*
X002380Y009580D03*
X002380Y008580D03*
X002380Y007580D03*
X002380Y006580D03*
D14*
X006579Y003780D03*
X007681Y003780D03*
X009079Y003780D03*
X010181Y003780D03*
X012579Y009780D03*
X013681Y009780D03*
X016079Y009880D03*
X017181Y009880D03*
X016931Y012930D03*
X015829Y012930D03*
X013481Y012930D03*
X012379Y012930D03*
X013879Y016230D03*
X014981Y016230D03*
X010181Y016430D03*
X009079Y016430D03*
X003681Y012580D03*
X002579Y012580D03*
X002329Y015830D03*
X003431Y015830D03*
D15*
X003530Y006190D03*
X003530Y005070D03*
X003580Y003940D03*
X004480Y003940D03*
X004480Y002820D03*
X003580Y002820D03*
X017080Y003340D03*
X017080Y002220D03*
X017530Y004720D03*
X017530Y005840D03*
D16*
X016030Y005081D03*
X016030Y003979D03*
X013930Y003979D03*
X013930Y005081D03*
X008180Y012029D03*
X008180Y013131D03*
D17*
X007380Y012580D03*
X006380Y012580D03*
X005380Y012580D03*
X004380Y012580D03*
X004380Y016080D03*
X005380Y016080D03*
X006380Y016080D03*
X007380Y016080D03*
D18*
X003390Y016730D03*
X002270Y016730D03*
X002070Y011080D03*
X003190Y011080D03*
X011820Y003280D03*
X012940Y003280D03*
X013290Y006080D03*
X012170Y006080D03*
X016670Y016880D03*
X017790Y016880D03*
D19*
X015830Y017530D02*
X015830Y018130D01*
X014830Y018130D02*
X014830Y017530D01*
X018130Y012330D02*
X018730Y012330D01*
X018730Y011330D02*
X018130Y011330D01*
X018130Y010330D02*
X018730Y010330D01*
X018730Y009080D02*
X018130Y009080D01*
X018130Y008080D02*
X018730Y008080D01*
X018730Y007080D02*
X018130Y007080D01*
X018130Y003430D02*
X018730Y003430D01*
X018730Y002430D02*
X018130Y002430D01*
X018130Y001430D02*
X018730Y001430D01*
X008480Y017530D02*
X008480Y018130D01*
X007480Y018130D02*
X007480Y017530D01*
X006480Y017530D02*
X006480Y018130D01*
X005480Y018130D02*
X005480Y017530D01*
X003330Y017530D02*
X003330Y018130D01*
X002330Y018130D02*
X002330Y017530D01*
D20*
X011264Y016464D03*
X013075Y016464D03*
D21*
X012169Y018432D03*
D22*
X013800Y012180D03*
X013800Y011680D03*
X013800Y011180D03*
X013800Y010680D03*
X013800Y009130D03*
X013800Y008630D03*
X013800Y008130D03*
X013800Y007630D03*
X015960Y007630D03*
X015960Y008130D03*
X015960Y008630D03*
X015960Y009130D03*
X015960Y010680D03*
X015960Y011180D03*
X015960Y011680D03*
X015960Y012180D03*
X016060Y003180D03*
X016060Y002680D03*
X016060Y002180D03*
X016060Y001680D03*
X013900Y001680D03*
X013900Y002180D03*
X013900Y002680D03*
X013900Y003180D03*
D23*
X005680Y002469D03*
X005680Y001091D03*
X002280Y001091D03*
X002280Y002469D03*
X018730Y016741D03*
X018730Y018119D03*
D24*
X018730Y019030D01*
X018680Y019080D01*
X019380Y019080D01*
X019380Y015280D01*
X019380Y013180D01*
X017780Y013180D01*
X017530Y012930D01*
X016931Y012930D01*
X016880Y012881D01*
X017780Y012330D02*
X018430Y012330D01*
X017780Y012330D02*
X017130Y011680D01*
X015904Y011680D01*
X015904Y011180D02*
X017430Y011180D01*
X017530Y011280D01*
X018180Y011280D01*
X018380Y011330D01*
X018430Y011330D01*
X018430Y010330D02*
X017830Y010330D01*
X017380Y009880D01*
X017181Y009880D01*
X017180Y009881D01*
X017180Y010280D01*
X016780Y010680D01*
X015904Y010680D01*
X015904Y009880D02*
X015904Y009130D01*
X015904Y008630D02*
X017680Y008630D01*
X018130Y009080D01*
X018430Y009080D01*
X018430Y008130D02*
X018480Y008080D01*
X018430Y008080D01*
X018430Y008130D02*
X015904Y008130D01*
X015904Y007630D02*
X016680Y007630D01*
X016680Y006780D01*
X016030Y006130D01*
X016030Y005081D01*
X016780Y005580D02*
X016980Y005780D01*
X017470Y005780D01*
X017530Y005840D01*
X016780Y005580D02*
X016780Y004180D01*
X016380Y003780D01*
X016031Y003780D01*
X016030Y003979D01*
X016030Y003210D01*
X016060Y003180D01*
X016060Y002680D02*
X016480Y002680D01*
X016580Y002780D01*
X017580Y002780D01*
X017680Y002880D01*
X017680Y003280D01*
X017830Y003430D01*
X018430Y003430D01*
X017930Y003430D01*
X017480Y003880D01*
X017480Y004670D01*
X017530Y004720D01*
X016780Y004180D02*
X017080Y003880D01*
X017080Y003340D01*
X017080Y002220D02*
X016100Y002220D01*
X016060Y002180D01*
X016060Y001680D02*
X016060Y001300D01*
X016380Y000980D01*
X017480Y000980D01*
X017780Y001380D01*
X018480Y001380D01*
X018980Y001380D01*
X019430Y001730D01*
X019430Y007080D01*
X019430Y010280D01*
X019280Y010330D01*
X018430Y010330D01*
X019430Y010280D02*
X019430Y013130D01*
X019380Y013180D01*
X019380Y015280D02*
X015780Y015280D01*
X014781Y016279D01*
X014981Y016230D01*
X015280Y016980D02*
X014280Y016980D01*
X013679Y016379D01*
X013879Y016230D01*
X013109Y016230D01*
X013075Y016464D01*
X013080Y015859D01*
X013080Y015680D01*
X012480Y015080D01*
X004880Y015080D01*
X004380Y015680D01*
X004380Y016080D01*
X003880Y016080D01*
X003630Y015830D01*
X003431Y015830D01*
X003580Y016680D02*
X003390Y016730D01*
X003580Y016680D02*
X003980Y017080D01*
X005380Y017080D01*
X005480Y017180D01*
X005480Y017830D01*
X005380Y017080D02*
X005380Y016080D01*
X006380Y016080D02*
X006380Y017080D01*
X006480Y017180D01*
X006480Y017830D01*
X006480Y018480D01*
X006180Y018780D01*
X005280Y018780D01*
X004780Y018280D01*
X004180Y018280D01*
X003830Y018630D01*
X003430Y018630D01*
X003330Y018530D01*
X003330Y017830D01*
X002330Y017830D02*
X002270Y017370D01*
X002270Y016730D01*
X001680Y016080D02*
X001680Y018880D01*
X002080Y019280D01*
X003580Y019280D01*
X004280Y018580D01*
X004680Y018580D01*
X005380Y019280D01*
X006780Y019280D01*
X007480Y018580D01*
X007480Y017830D01*
X007480Y017180D01*
X007380Y017080D01*
X007380Y016080D01*
X007929Y016080D01*
X007954Y016106D01*
X008380Y015580D01*
X008980Y015580D01*
X008980Y016331D01*
X009079Y016430D01*
X008980Y015580D02*
X011730Y015580D01*
X012169Y016019D01*
X012169Y018432D01*
X014228Y018432D01*
X014830Y017830D01*
X014830Y018630D01*
X015080Y018980D01*
X015880Y018980D01*
X016480Y018380D01*
X017780Y018380D01*
X018480Y019080D01*
X018680Y019080D01*
X018730Y016741D02*
X018730Y016330D01*
X018480Y016080D01*
X017980Y016080D01*
X017779Y016270D01*
X017790Y016880D01*
X016670Y016880D02*
X015880Y016880D01*
X015580Y017180D01*
X015830Y017830D01*
X015680Y017330D01*
X015680Y017380D02*
X015280Y016980D01*
X013879Y016230D02*
X013845Y015964D01*
X013845Y015415D01*
X014380Y014980D01*
X014880Y014980D01*
X015830Y014030D01*
X015829Y012930D01*
X015779Y012880D01*
X015480Y012880D01*
X015280Y012680D01*
X015280Y012380D01*
X015480Y012180D01*
X015280Y011980D01*
X015280Y009880D01*
X015280Y004280D01*
X015480Y003980D01*
X016030Y003979D01*
X014580Y004280D02*
X014331Y003980D01*
X013930Y003979D01*
X013929Y003980D01*
X013480Y003980D01*
X013290Y004170D01*
X013290Y006080D01*
X013930Y005530D02*
X013930Y005081D01*
X013930Y005530D02*
X014080Y005680D01*
X014080Y007180D01*
X013802Y007506D01*
X013806Y007580D01*
X013856Y007630D01*
X013806Y007580D02*
X012580Y007580D01*
X012380Y007880D01*
X012380Y009679D01*
X012480Y009779D01*
X012579Y009780D01*
X012580Y009881D01*
X012580Y010580D01*
X012680Y010680D01*
X013856Y010680D01*
X013856Y011180D02*
X012580Y011180D01*
X011480Y010080D01*
X009380Y010080D01*
X009130Y010330D01*
X009130Y010912D01*
X009630Y010912D02*
X009630Y011530D01*
X009780Y011680D01*
X013856Y011680D01*
X013856Y012180D02*
X013856Y012304D01*
X013680Y012480D01*
X013680Y012829D01*
X013481Y012930D01*
X013856Y012180D02*
X010580Y012180D01*
X009880Y012280D02*
X009880Y012880D01*
X009680Y013080D01*
X008329Y013080D01*
X008180Y013080D01*
X008180Y013180D01*
X007580Y013780D01*
X003080Y013780D01*
X002480Y013180D01*
X002480Y012580D01*
X001630Y012580D01*
X001380Y012330D01*
X001380Y010880D01*
X000830Y010330D01*
X000830Y007730D01*
X000980Y007580D01*
X001380Y007580D01*
X001380Y006580D01*
X001380Y005580D01*
X001380Y004580D01*
X001380Y003580D01*
X001380Y001580D01*
X001869Y001091D01*
X002280Y001091D01*
X002380Y000991D01*
X005780Y000991D01*
X005680Y001091D01*
X006491Y001091D01*
X006780Y001380D01*
X006780Y003080D01*
X010180Y003080D01*
X011580Y001680D01*
X013900Y001680D01*
X013900Y002180D02*
X012280Y002180D01*
X011880Y002580D01*
X011880Y003220D01*
X011820Y003280D01*
X011840Y003280D01*
X011820Y003280D02*
X011480Y003280D01*
X011280Y003480D01*
X011280Y004180D01*
X011580Y004480D01*
X011580Y005780D01*
X011380Y005980D01*
X011080Y005980D01*
X010680Y006380D01*
X010680Y007398D01*
X010630Y007148D01*
X011280Y008180D02*
X006580Y008180D01*
X005080Y009680D01*
X005080Y011162D01*
X005130Y010912D01*
X005630Y010912D02*
X005630Y009830D01*
X006580Y008880D01*
X011080Y008880D01*
X011780Y009280D02*
X011780Y007680D01*
X012180Y007380D01*
X012170Y006080D01*
X012170Y004790D01*
X012380Y004580D01*
X012380Y002780D01*
X012480Y002680D01*
X013900Y002680D01*
X013900Y003180D02*
X013040Y003180D01*
X012940Y003280D01*
X013900Y003180D02*
X013900Y003949D01*
X013930Y003979D01*
X014580Y004280D02*
X014580Y009080D01*
X014380Y009180D01*
X014080Y009180D01*
X013681Y009181D01*
X013681Y009780D01*
X013681Y009205D01*
X013856Y009130D01*
X013856Y008630D02*
X013330Y008630D01*
X013080Y008880D01*
X012980Y008180D02*
X013806Y008180D01*
X013856Y008130D01*
X014580Y009080D02*
X014580Y011980D01*
X014480Y012080D01*
X013856Y012180D01*
X012580Y012880D02*
X012429Y012729D01*
X012429Y012880D01*
X012379Y012930D01*
X012429Y012880D02*
X009880Y012880D01*
X009880Y012280D02*
X009380Y011780D01*
X008980Y011780D01*
X008630Y011430D01*
X008630Y010912D01*
X008680Y011162D01*
X008680Y010180D01*
X009080Y009780D01*
X012579Y009780D01*
X012580Y009880D01*
X012579Y009979D01*
X012579Y009780D01*
X011380Y010680D02*
X011780Y011080D01*
X011380Y010680D02*
X010780Y010680D01*
X010630Y010830D01*
X010630Y010912D01*
X008980Y012180D02*
X008680Y012180D01*
X008529Y012029D01*
X008180Y012029D01*
X008131Y011680D01*
X007180Y011680D01*
X006880Y011980D01*
X006880Y013180D01*
X006580Y013480D01*
X004880Y013480D01*
X004380Y012980D01*
X004380Y012580D01*
X003681Y012580D01*
X003630Y012529D01*
X003630Y012080D01*
X003380Y011830D01*
X002380Y011830D01*
X002070Y011520D01*
X002070Y011080D01*
X001380Y010390D01*
X001380Y009580D01*
X003180Y010890D02*
X003180Y007880D01*
X002880Y007580D01*
X002380Y007580D01*
X002380Y006580D02*
X002880Y006580D01*
X003380Y007080D01*
X003380Y007580D01*
X003680Y007880D01*
X003680Y009280D01*
X004630Y010230D01*
X004630Y010912D01*
X004130Y010912D02*
X003998Y011080D01*
X003190Y011080D01*
X003180Y010890D01*
X002579Y012580D02*
X002480Y012580D01*
X005380Y012580D02*
X005380Y011980D01*
X005430Y011830D01*
X005780Y011830D01*
X006130Y011580D01*
X006130Y010912D01*
X006630Y010912D02*
X006630Y011730D01*
X006380Y011980D01*
X006380Y012580D01*
X007380Y012580D02*
X007880Y013080D01*
X008180Y013080D01*
X008180Y013131D02*
X008329Y013080D01*
X008180Y012029D02*
X008130Y011779D01*
X008130Y010912D01*
X005080Y007448D02*
X005080Y006580D01*
X004480Y005980D01*
X004480Y003940D01*
X004780Y004580D02*
X004780Y005780D01*
X005630Y006630D01*
X005630Y007148D01*
X005130Y007148D02*
X005080Y007448D01*
X004630Y007148D02*
X004630Y006630D01*
X004180Y006180D01*
X004180Y004680D01*
X003980Y004480D01*
X003780Y004480D01*
X003580Y004280D01*
X003580Y003940D01*
X002980Y003980D02*
X002980Y003580D01*
X003180Y003380D01*
X004980Y003380D01*
X005180Y003580D01*
X005180Y004180D01*
X004780Y004580D01*
X005080Y004780D02*
X005680Y004180D01*
X005680Y003780D01*
X006579Y003780D02*
X006579Y003981D01*
X006580Y003280D01*
X006780Y003080D01*
X007681Y003780D02*
X008130Y004229D01*
X008130Y005330D01*
X006480Y005330D01*
X007180Y006080D02*
X005480Y006080D01*
X005080Y005680D01*
X005080Y004780D01*
X003530Y005070D02*
X003530Y005080D01*
X003520Y006180D02*
X003080Y006180D01*
X002480Y005580D01*
X002380Y005580D01*
X002380Y004580D02*
X002980Y003980D01*
X003580Y002820D02*
X003440Y002680D01*
X002380Y002680D01*
X002280Y002580D01*
X002280Y002469D01*
X004480Y002680D02*
X005580Y002680D01*
X005680Y002469D01*
X004531Y002669D02*
X004480Y002680D01*
X004531Y002669D02*
X004480Y002820D01*
X003520Y006180D02*
X003530Y006190D01*
X003530Y006230D01*
X004080Y006780D01*
X004080Y007398D01*
X004130Y007148D01*
X007180Y006080D02*
X007630Y006530D01*
X007630Y007148D01*
X008130Y007148D02*
X008130Y005330D01*
X008630Y005330D02*
X010280Y005330D01*
X010180Y004079D02*
X010181Y003780D01*
X010180Y004079D02*
X010180Y003080D01*
X009079Y003780D02*
X008630Y004229D01*
X008630Y005330D01*
X008630Y007148D01*
X015280Y009880D02*
X016079Y009880D01*
X015904Y009880D01*
X015904Y012180D02*
X015480Y012180D01*
X011264Y016464D02*
X011198Y016430D01*
X010181Y016430D02*
X010181Y016881D01*
X002329Y015830D02*
X001930Y015830D01*
X001680Y016080D01*
X016680Y007630D02*
X017430Y007630D01*
X017980Y007080D01*
X018430Y007080D01*
X019430Y007080D01*
X018430Y002430D02*
X018380Y002380D01*
X017780Y002380D01*
X017620Y002220D01*
X017080Y002220D01*
X018430Y001430D02*
X018480Y001380D01*
D25*
X006579Y003780D02*
X005680Y003780D01*
D26*
X005430Y003828D02*
X006529Y003828D01*
X006529Y003830D02*
X006529Y003730D01*
X006629Y003730D01*
X006629Y003830D01*
X007044Y003830D01*
X007044Y004154D01*
X007034Y004192D01*
X007014Y004226D01*
X006986Y004254D01*
X006952Y004274D01*
X006914Y004284D01*
X006629Y004284D01*
X006629Y003830D01*
X006529Y003830D01*
X006529Y004284D01*
X006244Y004284D01*
X006206Y004274D01*
X006172Y004254D01*
X006144Y004226D01*
X006124Y004192D01*
X006114Y004154D01*
X006114Y003830D01*
X006529Y003830D01*
X006529Y003926D02*
X006629Y003926D01*
X006629Y003828D02*
X007196Y003828D01*
X007196Y003926D02*
X007044Y003926D01*
X007044Y004025D02*
X007196Y004025D01*
X007196Y004123D02*
X007044Y004123D01*
X007017Y004222D02*
X007213Y004222D01*
X007196Y004205D02*
X007196Y003355D01*
X007296Y003256D01*
X008067Y003256D01*
X008166Y003355D01*
X008166Y003911D01*
X008342Y004087D01*
X008380Y004179D01*
X008418Y004087D01*
X008594Y003911D01*
X008594Y003355D01*
X008693Y003256D01*
X009464Y003256D01*
X009564Y003355D01*
X009564Y004205D01*
X009464Y004304D01*
X008908Y004304D01*
X008880Y004332D01*
X008880Y005080D01*
X009060Y005080D01*
X009060Y004880D01*
X009160Y004780D01*
X011330Y004780D01*
X011330Y004584D01*
X011138Y004392D01*
X011068Y004322D01*
X011030Y004230D01*
X011030Y003430D01*
X011068Y003338D01*
X011268Y003138D01*
X011335Y003071D01*
X011335Y002855D01*
X011435Y002755D01*
X011630Y002755D01*
X011630Y002530D01*
X011668Y002438D01*
X011738Y002368D01*
X011738Y002368D01*
X012138Y001968D01*
X012230Y001930D01*
X013490Y001930D01*
X013504Y001916D01*
X013480Y001892D01*
X013460Y001858D01*
X013450Y001820D01*
X013450Y001690D01*
X013890Y001690D01*
X013890Y001670D01*
X013910Y001670D01*
X013910Y001690D01*
X014350Y001690D01*
X014350Y001820D01*
X014340Y001858D01*
X014320Y001892D01*
X014296Y001916D01*
X014370Y001990D01*
X014370Y002370D01*
X014310Y002430D01*
X014370Y002490D01*
X014370Y002870D01*
X014310Y002930D01*
X014370Y002990D01*
X014370Y003370D01*
X014270Y003470D01*
X014150Y003470D01*
X014150Y003494D01*
X014355Y003494D01*
X014454Y003593D01*
X014454Y003761D01*
X014473Y003768D01*
X014480Y003775D01*
X014480Y000550D01*
X000550Y000550D01*
X000550Y010610D01*
X001050Y011110D01*
X001050Y013680D01*
X004726Y013680D01*
X004421Y013375D01*
X004113Y013375D01*
X004013Y013275D01*
X004013Y013104D01*
X003296Y013104D01*
X003196Y013005D01*
X003196Y012155D01*
X003271Y012080D01*
X002930Y012080D01*
X002952Y012086D01*
X002986Y012106D01*
X003014Y012134D01*
X003034Y012168D01*
X003044Y012206D01*
X003044Y012530D01*
X002629Y012530D01*
X002629Y012630D01*
X003044Y012630D01*
X003044Y012954D01*
X003034Y012992D01*
X003014Y013026D01*
X002986Y013054D01*
X002952Y013074D01*
X002914Y013084D01*
X002629Y013084D01*
X002629Y012630D01*
X002529Y012630D01*
X002529Y013084D01*
X002244Y013084D01*
X002206Y013074D01*
X002172Y013054D01*
X002144Y013026D01*
X002124Y012992D01*
X002114Y012954D01*
X002114Y012630D01*
X002529Y012630D01*
X002529Y012530D01*
X002114Y012530D01*
X002114Y012206D01*
X002124Y012168D01*
X002144Y012134D01*
X002172Y012106D01*
X002206Y012086D01*
X002244Y012076D01*
X002320Y012076D01*
X002238Y012042D01*
X002168Y011972D01*
X001858Y011662D01*
X001835Y011605D01*
X001685Y011605D01*
X001585Y011505D01*
X001585Y010949D01*
X001168Y010531D01*
X001130Y010440D01*
X001130Y010046D01*
X000874Y009790D01*
X000874Y009370D01*
X001164Y009080D01*
X000874Y008790D01*
X000874Y008370D01*
X001170Y008074D01*
X001590Y008074D01*
X001660Y008144D01*
X001660Y007988D01*
X001581Y008066D01*
X001430Y008066D01*
X001430Y007630D01*
X001330Y007630D01*
X001330Y008066D01*
X001179Y008066D01*
X000894Y007781D01*
X000894Y007630D01*
X001330Y007630D01*
X001330Y007530D01*
X001430Y007530D01*
X001430Y007094D01*
X001581Y007094D01*
X001660Y007172D01*
X001660Y006988D01*
X001581Y007066D01*
X001430Y007066D01*
X001430Y006630D01*
X001330Y006630D01*
X001330Y007066D01*
X001179Y007066D01*
X000894Y006781D01*
X000894Y006630D01*
X001330Y006630D01*
X001330Y006530D01*
X001430Y006530D01*
X001430Y006094D01*
X001581Y006094D01*
X001660Y006172D01*
X001660Y005988D01*
X001581Y006066D01*
X001430Y006066D01*
X001430Y005630D01*
X001330Y005630D01*
X001330Y006066D01*
X001179Y006066D01*
X000894Y005781D01*
X000894Y005630D01*
X001330Y005630D01*
X001330Y005530D01*
X001430Y005530D01*
X001430Y005094D01*
X001581Y005094D01*
X001693Y005206D01*
X001789Y005110D01*
X001910Y004989D01*
X001910Y004989D01*
X001991Y004907D01*
X001874Y004790D01*
X001874Y004370D01*
X002164Y004080D01*
X001874Y003790D01*
X001874Y003370D01*
X002170Y003074D01*
X002590Y003074D01*
X002861Y003345D01*
X002968Y003238D01*
X003038Y003168D01*
X003055Y003161D01*
X003055Y002930D01*
X002650Y002930D01*
X002646Y002934D01*
X001914Y002934D01*
X001815Y002835D01*
X001815Y002103D01*
X001914Y002004D01*
X002646Y002004D01*
X002745Y002103D01*
X002745Y002430D01*
X003060Y002430D01*
X003155Y002335D01*
X004005Y002335D01*
X004030Y002360D01*
X004055Y002335D01*
X004905Y002335D01*
X005000Y002430D01*
X005215Y002430D01*
X005215Y002103D01*
X005314Y002004D01*
X006046Y002004D01*
X006145Y002103D01*
X006145Y002835D01*
X006046Y002934D01*
X005314Y002934D01*
X005310Y002930D01*
X005005Y002930D01*
X005005Y003130D01*
X005030Y003130D01*
X005122Y003168D01*
X005322Y003368D01*
X005392Y003438D01*
X005430Y003530D01*
X005430Y004230D01*
X005392Y004322D01*
X005030Y004684D01*
X005030Y005676D01*
X005772Y006418D01*
X005832Y006478D01*
X005850Y006478D01*
X005880Y006508D01*
X005910Y006478D01*
X006350Y006478D01*
X006380Y006508D01*
X006410Y006478D01*
X006850Y006478D01*
X006880Y006508D01*
X006910Y006478D01*
X007350Y006478D01*
X007396Y006524D01*
X007422Y006508D01*
X007460Y006498D01*
X007605Y006498D01*
X007605Y007123D01*
X007655Y007123D01*
X007655Y006498D01*
X007800Y006498D01*
X007838Y006508D01*
X007864Y006524D01*
X007880Y006508D01*
X007880Y005580D01*
X007700Y005580D01*
X007700Y005780D01*
X007600Y005880D01*
X005360Y005880D01*
X005260Y005780D01*
X005260Y004880D01*
X005360Y004780D01*
X007600Y004780D01*
X007700Y004880D01*
X007700Y005080D01*
X007880Y005080D01*
X007880Y004332D01*
X007852Y004304D01*
X007296Y004304D01*
X007196Y004205D01*
X007196Y003729D02*
X007044Y003729D01*
X007044Y003730D02*
X006629Y003730D01*
X006629Y003276D01*
X006914Y003276D01*
X006952Y003286D01*
X006986Y003306D01*
X007014Y003334D01*
X007034Y003368D01*
X007044Y003406D01*
X007044Y003730D01*
X007044Y003631D02*
X007196Y003631D01*
X007196Y003532D02*
X007044Y003532D01*
X007044Y003434D02*
X007196Y003434D01*
X007216Y003335D02*
X007015Y003335D01*
X006629Y003335D02*
X006529Y003335D01*
X006529Y003276D02*
X006529Y003730D01*
X006114Y003730D01*
X006114Y003406D01*
X006124Y003368D01*
X006144Y003334D01*
X006172Y003306D01*
X006206Y003286D01*
X006244Y003276D01*
X006529Y003276D01*
X006529Y003434D02*
X006629Y003434D01*
X006629Y003532D02*
X006529Y003532D01*
X006529Y003631D02*
X006629Y003631D01*
X006629Y003729D02*
X006529Y003729D01*
X006529Y004025D02*
X006629Y004025D01*
X006629Y004123D02*
X006529Y004123D01*
X006529Y004222D02*
X006629Y004222D01*
X006141Y004222D02*
X005430Y004222D01*
X005430Y004123D02*
X006114Y004123D01*
X006114Y004025D02*
X005430Y004025D01*
X005430Y003926D02*
X006114Y003926D01*
X006114Y003729D02*
X005430Y003729D01*
X005430Y003631D02*
X006114Y003631D01*
X006114Y003532D02*
X005430Y003532D01*
X005387Y003434D02*
X006114Y003434D01*
X006143Y003335D02*
X005289Y003335D01*
X005190Y003237D02*
X011170Y003237D01*
X011071Y003335D02*
X010617Y003335D01*
X010616Y003334D02*
X010636Y003368D01*
X010646Y003406D01*
X010646Y003730D01*
X010231Y003730D01*
X010231Y003276D01*
X010516Y003276D01*
X010554Y003286D01*
X010588Y003306D01*
X010616Y003334D01*
X010646Y003434D02*
X011030Y003434D01*
X011030Y003532D02*
X010646Y003532D01*
X010646Y003631D02*
X011030Y003631D01*
X011030Y003729D02*
X010646Y003729D01*
X010646Y003830D02*
X010646Y004154D01*
X010636Y004192D01*
X010616Y004226D01*
X010588Y004254D01*
X010554Y004274D01*
X010516Y004284D01*
X010231Y004284D01*
X010231Y003830D01*
X010131Y003830D01*
X010131Y003730D01*
X009716Y003730D01*
X009716Y003406D01*
X009726Y003368D01*
X009746Y003334D01*
X009774Y003306D01*
X009808Y003286D01*
X009846Y003276D01*
X010131Y003276D01*
X010131Y003730D01*
X010231Y003730D01*
X010231Y003830D01*
X010646Y003830D01*
X010646Y003926D02*
X011030Y003926D01*
X011030Y003828D02*
X010231Y003828D01*
X010231Y003926D02*
X010131Y003926D01*
X010131Y003830D02*
X010131Y004284D01*
X009846Y004284D01*
X009808Y004274D01*
X009774Y004254D01*
X009746Y004226D01*
X009726Y004192D01*
X009716Y004154D01*
X009716Y003830D01*
X010131Y003830D01*
X010131Y003828D02*
X009564Y003828D01*
X009564Y003926D02*
X009716Y003926D01*
X009716Y004025D02*
X009564Y004025D01*
X009564Y004123D02*
X009716Y004123D01*
X009743Y004222D02*
X009547Y004222D01*
X009564Y003729D02*
X009716Y003729D01*
X009716Y003631D02*
X009564Y003631D01*
X009564Y003532D02*
X009716Y003532D01*
X009716Y003434D02*
X009564Y003434D01*
X009544Y003335D02*
X009745Y003335D01*
X010131Y003335D02*
X010231Y003335D01*
X010231Y003434D02*
X010131Y003434D01*
X010131Y003532D02*
X010231Y003532D01*
X010231Y003631D02*
X010131Y003631D01*
X010131Y003729D02*
X010231Y003729D01*
X010231Y004025D02*
X010131Y004025D01*
X010131Y004123D02*
X010231Y004123D01*
X010231Y004222D02*
X010131Y004222D01*
X010619Y004222D02*
X011030Y004222D01*
X011030Y004123D02*
X010646Y004123D01*
X010646Y004025D02*
X011030Y004025D01*
X011067Y004320D02*
X008892Y004320D01*
X008880Y004419D02*
X011165Y004419D01*
X011263Y004517D02*
X008880Y004517D01*
X008880Y004616D02*
X011330Y004616D01*
X011330Y004714D02*
X008880Y004714D01*
X008880Y004813D02*
X009127Y004813D01*
X009060Y004911D02*
X008880Y004911D01*
X008880Y005010D02*
X009060Y005010D01*
X008380Y005010D02*
X008380Y005010D01*
X008380Y005108D02*
X008380Y005108D01*
X008380Y005207D02*
X008380Y005207D01*
X008380Y005305D02*
X008380Y005305D01*
X008380Y005404D02*
X008380Y005404D01*
X008380Y005502D02*
X008380Y005502D01*
X008380Y005601D02*
X008380Y005601D01*
X008380Y005699D02*
X008380Y005699D01*
X008380Y005798D02*
X008380Y005798D01*
X008380Y005896D02*
X008380Y005896D01*
X008380Y005995D02*
X008380Y005995D01*
X008380Y006093D02*
X008380Y006093D01*
X008380Y006192D02*
X008380Y006192D01*
X008380Y006290D02*
X008380Y006290D01*
X008380Y006389D02*
X008380Y006389D01*
X008380Y006487D02*
X008380Y006487D01*
X008380Y006508D02*
X008380Y004179D01*
X008380Y006508D01*
X008380Y006508D01*
X007880Y006487D02*
X007359Y006487D01*
X007605Y006586D02*
X007655Y006586D01*
X007655Y006684D02*
X007605Y006684D01*
X007605Y006783D02*
X007655Y006783D01*
X007655Y006881D02*
X007605Y006881D01*
X007605Y006980D02*
X007655Y006980D01*
X007655Y007078D02*
X007605Y007078D01*
X007605Y007173D02*
X007605Y007798D01*
X007460Y007798D01*
X007422Y007788D01*
X007396Y007773D01*
X007350Y007818D01*
X006910Y007818D01*
X006880Y007789D01*
X006850Y007818D01*
X006410Y007818D01*
X006380Y007789D01*
X006350Y007818D01*
X005910Y007818D01*
X005880Y007789D01*
X005850Y007818D01*
X005410Y007818D01*
X005380Y007789D01*
X005350Y007818D01*
X004910Y007818D01*
X004880Y007789D01*
X004850Y007818D01*
X004410Y007818D01*
X004380Y007789D01*
X004350Y007818D01*
X003925Y007818D01*
X003930Y007830D01*
X003930Y009176D01*
X004772Y010018D01*
X004830Y010076D01*
X004830Y009630D01*
X004868Y009538D01*
X004938Y009468D01*
X006368Y008038D01*
X006438Y007968D01*
X006530Y007930D01*
X011038Y007930D01*
X011083Y007885D01*
X011211Y007832D01*
X011349Y007832D01*
X011477Y007885D01*
X011530Y007938D01*
X011530Y007712D01*
X011525Y007694D01*
X011530Y007662D01*
X011530Y007630D01*
X011537Y007613D01*
X011540Y007595D01*
X011556Y007568D01*
X011568Y007538D01*
X011581Y007526D01*
X011590Y007510D01*
X011616Y007491D01*
X011638Y007468D01*
X011655Y007461D01*
X011929Y007256D01*
X011924Y006605D01*
X011785Y006605D01*
X011685Y006505D01*
X011685Y006028D01*
X011592Y006122D01*
X011522Y006192D01*
X011430Y006230D01*
X011184Y006230D01*
X010930Y006484D01*
X010930Y006558D01*
X010950Y006578D01*
X010950Y007719D01*
X010850Y007818D01*
X010410Y007818D01*
X010380Y007789D01*
X010350Y007818D01*
X009910Y007818D01*
X009880Y007789D01*
X009850Y007818D01*
X009410Y007818D01*
X009380Y007789D01*
X009350Y007818D01*
X008910Y007818D01*
X008880Y007789D01*
X008850Y007818D01*
X008410Y007818D01*
X008380Y007789D01*
X008350Y007818D01*
X007910Y007818D01*
X007864Y007773D01*
X007838Y007788D01*
X007800Y007798D01*
X007655Y007798D01*
X007655Y007173D01*
X007605Y007173D01*
X007605Y007177D02*
X007655Y007177D01*
X007655Y007275D02*
X007605Y007275D01*
X007605Y007374D02*
X007655Y007374D01*
X007655Y007472D02*
X007605Y007472D01*
X007605Y007571D02*
X007655Y007571D01*
X007655Y007669D02*
X007605Y007669D01*
X007605Y007768D02*
X007655Y007768D01*
X006684Y008430D02*
X006451Y008663D01*
X006530Y008630D01*
X010838Y008630D01*
X010883Y008585D01*
X011011Y008532D01*
X011149Y008532D01*
X011277Y008585D01*
X011375Y008683D01*
X011428Y008811D01*
X011428Y008949D01*
X011375Y009077D01*
X011277Y009175D01*
X011149Y009228D01*
X011011Y009228D01*
X010883Y009175D01*
X010838Y009130D01*
X006684Y009130D01*
X005880Y009934D01*
X005880Y010271D01*
X005910Y010242D01*
X006350Y010242D01*
X006380Y010271D01*
X006410Y010242D01*
X006850Y010242D01*
X006880Y010271D01*
X006910Y010242D01*
X007350Y010242D01*
X007380Y010271D01*
X007410Y010242D01*
X007850Y010242D01*
X007880Y010271D01*
X007910Y010242D01*
X008350Y010242D01*
X008396Y010287D01*
X008422Y010272D01*
X008460Y010262D01*
X008605Y010262D01*
X008605Y010887D01*
X008655Y010887D01*
X008655Y010262D01*
X008800Y010262D01*
X008838Y010272D01*
X008864Y010287D01*
X008886Y010265D01*
X008918Y010188D01*
X009168Y009938D01*
X009238Y009868D01*
X009330Y009830D01*
X011530Y009830D01*
X011622Y009868D01*
X012684Y010930D01*
X013390Y010930D01*
X013404Y010916D01*
X013380Y010892D01*
X013360Y010858D01*
X013350Y010820D01*
X013350Y010690D01*
X013790Y010690D01*
X013790Y010890D01*
X013810Y010890D01*
X013810Y010690D01*
X014250Y010690D01*
X014250Y010820D01*
X014240Y010858D01*
X014220Y010892D01*
X014196Y010916D01*
X014270Y010990D01*
X014270Y011370D01*
X014210Y011430D01*
X014270Y011490D01*
X014270Y011860D01*
X014330Y011851D01*
X014330Y009430D01*
X014166Y009430D01*
X014166Y010205D01*
X014067Y010304D01*
X013296Y010304D01*
X013196Y010205D01*
X013196Y009355D01*
X013296Y009256D01*
X013330Y009256D01*
X013330Y009122D01*
X013277Y009175D01*
X013149Y009228D01*
X013011Y009228D01*
X012883Y009175D01*
X012785Y009077D01*
X012732Y008949D01*
X012732Y008811D01*
X012785Y008683D01*
X012883Y008585D01*
X013011Y008532D01*
X013075Y008532D01*
X013099Y008508D01*
X013049Y008528D01*
X012911Y008528D01*
X012783Y008475D01*
X012685Y008377D01*
X012632Y008249D01*
X012632Y008111D01*
X012685Y007983D01*
X012783Y007885D01*
X012911Y007832D01*
X013049Y007832D01*
X013177Y007885D01*
X013222Y007930D01*
X013340Y007930D01*
X013404Y007866D01*
X013380Y007842D01*
X013360Y007808D01*
X013350Y007770D01*
X013350Y007640D01*
X013790Y007640D01*
X013790Y007840D01*
X013810Y007840D01*
X013810Y007640D01*
X013790Y007640D01*
X013790Y007620D01*
X013810Y007620D01*
X013810Y007640D01*
X014250Y007640D01*
X014250Y007770D01*
X014240Y007808D01*
X014220Y007842D01*
X014196Y007866D01*
X014270Y007940D01*
X014270Y008320D01*
X014210Y008380D01*
X014270Y008440D01*
X014270Y008820D01*
X014210Y008880D01*
X014260Y008930D01*
X014321Y008930D01*
X014330Y008925D01*
X014330Y005539D01*
X014304Y005546D01*
X013980Y005546D01*
X013980Y005131D01*
X013880Y005131D01*
X013880Y005546D01*
X013556Y005546D01*
X013540Y005542D01*
X013540Y005555D01*
X013675Y005555D01*
X013775Y005655D01*
X013775Y006505D01*
X013675Y006605D01*
X012904Y006605D01*
X012805Y006505D01*
X012805Y005655D01*
X012904Y005555D01*
X013040Y005555D01*
X013040Y004120D01*
X013078Y004029D01*
X013268Y003838D01*
X013302Y003805D01*
X012630Y003805D01*
X012630Y004630D01*
X012592Y004722D01*
X012522Y004792D01*
X012420Y004893D01*
X012420Y005555D01*
X012556Y005555D01*
X012655Y005655D01*
X012655Y006505D01*
X012556Y006605D01*
X012424Y006605D01*
X012430Y007348D01*
X012435Y007366D01*
X012430Y007397D01*
X012430Y007428D01*
X012423Y007446D01*
X012420Y007465D01*
X012405Y007491D01*
X012393Y007520D01*
X012380Y007534D01*
X012370Y007550D01*
X012345Y007569D01*
X012323Y007591D01*
X012306Y007598D01*
X012030Y007805D01*
X012030Y009038D01*
X012075Y009083D01*
X012128Y009211D01*
X012128Y009349D01*
X012075Y009477D01*
X011977Y009575D01*
X011849Y009628D01*
X011711Y009628D01*
X011583Y009575D01*
X011485Y009477D01*
X011432Y009349D01*
X011432Y009211D01*
X011485Y009083D01*
X011530Y009038D01*
X011530Y008422D01*
X011477Y008475D01*
X011349Y008528D01*
X011211Y008528D01*
X011083Y008475D01*
X011038Y008430D01*
X006684Y008430D01*
X006657Y008457D02*
X011065Y008457D01*
X010954Y008556D02*
X006558Y008556D01*
X006472Y008654D02*
X006460Y008654D01*
X006146Y008260D02*
X003930Y008260D01*
X003930Y008162D02*
X006245Y008162D01*
X006343Y008063D02*
X003930Y008063D01*
X003930Y007965D02*
X006447Y007965D01*
X006048Y008359D02*
X003930Y008359D01*
X003930Y008457D02*
X005949Y008457D01*
X005851Y008556D02*
X003930Y008556D01*
X003930Y008654D02*
X005752Y008654D01*
X005654Y008753D02*
X003930Y008753D01*
X003930Y008851D02*
X005555Y008851D01*
X005457Y008950D02*
X003930Y008950D01*
X003930Y009048D02*
X005358Y009048D01*
X005260Y009147D02*
X003930Y009147D01*
X003999Y009245D02*
X005161Y009245D01*
X005063Y009344D02*
X004097Y009344D01*
X004196Y009442D02*
X004964Y009442D01*
X004867Y009541D02*
X004294Y009541D01*
X004393Y009639D02*
X004830Y009639D01*
X004830Y009738D02*
X004491Y009738D01*
X004590Y009836D02*
X004830Y009836D01*
X004830Y009935D02*
X004688Y009935D01*
X004787Y010033D02*
X004830Y010033D01*
X005880Y010033D02*
X009073Y010033D01*
X009168Y009938D02*
X009168Y009938D01*
X009172Y009935D02*
X005880Y009935D01*
X005978Y009836D02*
X009316Y009836D01*
X008975Y010132D02*
X005880Y010132D01*
X005880Y010230D02*
X008901Y010230D01*
X008655Y010329D02*
X008605Y010329D01*
X008605Y010427D02*
X008655Y010427D01*
X008655Y010526D02*
X008605Y010526D01*
X008605Y010624D02*
X008655Y010624D01*
X008655Y010723D02*
X008605Y010723D01*
X008605Y010821D02*
X008655Y010821D01*
X008655Y010937D02*
X008605Y010937D01*
X008605Y011544D01*
X008704Y011643D01*
X008704Y011851D01*
X008761Y011907D01*
X008783Y011885D01*
X008911Y011832D01*
X009049Y011832D01*
X009177Y011885D01*
X009275Y011983D01*
X009328Y012111D01*
X009328Y012249D01*
X009275Y012377D01*
X009177Y012475D01*
X009049Y012528D01*
X008911Y012528D01*
X008783Y012475D01*
X008738Y012430D01*
X008689Y012430D01*
X008605Y012514D01*
X007755Y012514D01*
X007727Y012485D01*
X007727Y012532D01*
X007428Y012532D01*
X007428Y012628D01*
X007332Y012628D01*
X007332Y013355D01*
X007163Y013355D01*
X007125Y013345D01*
X007091Y013325D01*
X007090Y013324D01*
X007022Y013392D01*
X007022Y013392D01*
X006734Y013680D01*
X013880Y013680D01*
X014480Y013080D01*
X014480Y012333D01*
X014270Y012367D01*
X014270Y012370D01*
X014170Y012470D01*
X014044Y012470D01*
X013966Y012547D01*
X013966Y013355D01*
X013867Y013454D01*
X013096Y013454D01*
X012996Y013355D01*
X012996Y012505D01*
X013071Y012430D01*
X012730Y012430D01*
X012752Y012436D01*
X012786Y012456D01*
X012814Y012484D01*
X012834Y012518D01*
X012844Y012556D01*
X012844Y012880D01*
X012429Y012880D01*
X012429Y012980D01*
X012844Y012980D01*
X012844Y013304D01*
X012834Y013342D01*
X012814Y013376D01*
X012786Y013404D01*
X012752Y013424D01*
X012714Y013434D01*
X012429Y013434D01*
X012429Y012980D01*
X012329Y012980D01*
X012329Y013434D01*
X012044Y013434D01*
X012006Y013424D01*
X011972Y013404D01*
X011944Y013376D01*
X011924Y013342D01*
X011914Y013304D01*
X011914Y012980D01*
X012329Y012980D01*
X012329Y012880D01*
X011914Y012880D01*
X011914Y012556D01*
X011924Y012518D01*
X011944Y012484D01*
X011972Y012456D01*
X012006Y012436D01*
X012028Y012430D01*
X010822Y012430D01*
X010777Y012475D01*
X010649Y012528D01*
X010511Y012528D01*
X010383Y012475D01*
X010285Y012377D01*
X010232Y012249D01*
X010232Y012111D01*
X010285Y011983D01*
X010338Y011930D01*
X009730Y011930D01*
X009638Y011892D01*
X009568Y011822D01*
X009418Y011672D01*
X009380Y011580D01*
X009380Y011552D01*
X009350Y011582D01*
X008910Y011582D01*
X008864Y011536D01*
X008838Y011552D01*
X008800Y011562D01*
X008655Y011562D01*
X008655Y010937D01*
X008655Y011018D02*
X008605Y011018D01*
X008605Y011117D02*
X008655Y011117D01*
X008655Y011215D02*
X008605Y011215D01*
X008605Y011314D02*
X008655Y011314D01*
X008655Y011412D02*
X008605Y011412D01*
X008605Y011511D02*
X008655Y011511D01*
X008670Y011609D02*
X009392Y011609D01*
X009454Y011708D02*
X008704Y011708D01*
X008704Y011806D02*
X009552Y011806D01*
X009669Y011905D02*
X009197Y011905D01*
X009283Y012003D02*
X010277Y012003D01*
X010236Y012102D02*
X009324Y012102D01*
X009328Y012200D02*
X010232Y012200D01*
X010252Y012299D02*
X009308Y012299D01*
X009255Y012397D02*
X010305Y012397D01*
X010432Y012496D02*
X009128Y012496D01*
X008832Y012496D02*
X008623Y012496D01*
X008592Y012676D02*
X008626Y012696D01*
X008654Y012724D01*
X008674Y012758D01*
X008684Y012796D01*
X008684Y013081D01*
X008230Y013081D01*
X008230Y012666D01*
X008554Y012666D01*
X008592Y012676D01*
X008620Y012693D02*
X011914Y012693D01*
X011914Y012791D02*
X008683Y012791D01*
X008684Y012890D02*
X012329Y012890D01*
X012329Y012988D02*
X012429Y012988D01*
X012429Y012890D02*
X012996Y012890D01*
X012996Y012988D02*
X012844Y012988D01*
X012844Y013087D02*
X012996Y013087D01*
X012996Y013185D02*
X012844Y013185D01*
X012844Y013284D02*
X012996Y013284D01*
X013024Y013382D02*
X012808Y013382D01*
X012429Y013382D02*
X012329Y013382D01*
X012329Y013284D02*
X012429Y013284D01*
X012429Y013185D02*
X012329Y013185D01*
X012329Y013087D02*
X012429Y013087D01*
X012844Y012791D02*
X012996Y012791D01*
X012996Y012693D02*
X012844Y012693D01*
X012844Y012594D02*
X012996Y012594D01*
X013006Y012496D02*
X012821Y012496D01*
X011937Y012496D02*
X010728Y012496D01*
X011914Y012594D02*
X007428Y012594D01*
X007428Y012628D02*
X007727Y012628D01*
X007727Y012703D01*
X007734Y012696D01*
X007768Y012676D01*
X007806Y012666D01*
X008130Y012666D01*
X008130Y013081D01*
X008230Y013081D01*
X008230Y013181D01*
X008684Y013181D01*
X008684Y013466D01*
X008674Y013504D01*
X008654Y013538D01*
X008626Y013566D01*
X008592Y013586D01*
X008554Y013596D01*
X008230Y013596D01*
X008230Y013181D01*
X008130Y013181D01*
X008130Y013596D01*
X007806Y013596D01*
X007768Y013586D01*
X007734Y013566D01*
X007706Y013538D01*
X007686Y013504D01*
X007676Y013466D01*
X007676Y013318D01*
X007669Y013325D01*
X007635Y013345D01*
X007597Y013355D01*
X007428Y013355D01*
X007428Y012628D01*
X007428Y012693D02*
X007332Y012693D01*
X007332Y012791D02*
X007428Y012791D01*
X007428Y012890D02*
X007332Y012890D01*
X007332Y012988D02*
X007428Y012988D01*
X007428Y013087D02*
X007332Y013087D01*
X007332Y013185D02*
X007428Y013185D01*
X007428Y013284D02*
X007332Y013284D01*
X007032Y013382D02*
X007676Y013382D01*
X007680Y013481D02*
X006933Y013481D01*
X006835Y013579D02*
X007756Y013579D01*
X008130Y013579D02*
X008230Y013579D01*
X008230Y013481D02*
X008130Y013481D01*
X008130Y013382D02*
X008230Y013382D01*
X008230Y013284D02*
X008130Y013284D01*
X008130Y013185D02*
X008230Y013185D01*
X008230Y013087D02*
X011914Y013087D01*
X011914Y013185D02*
X008684Y013185D01*
X008684Y013284D02*
X011914Y013284D01*
X011949Y013382D02*
X008684Y013382D01*
X008680Y013481D02*
X014079Y013481D01*
X013981Y013579D02*
X008604Y013579D01*
X008684Y012988D02*
X011914Y012988D01*
X013966Y012988D02*
X014480Y012988D01*
X014480Y012890D02*
X013966Y012890D01*
X013966Y012791D02*
X014480Y012791D01*
X014480Y012693D02*
X013966Y012693D01*
X013966Y012594D02*
X014480Y012594D01*
X014480Y012496D02*
X014018Y012496D01*
X014243Y012397D02*
X014480Y012397D01*
X014330Y011806D02*
X014270Y011806D01*
X014270Y011708D02*
X014330Y011708D01*
X014330Y011609D02*
X014270Y011609D01*
X014270Y011511D02*
X014330Y011511D01*
X014330Y011412D02*
X014228Y011412D01*
X014270Y011314D02*
X014330Y011314D01*
X014330Y011215D02*
X014270Y011215D01*
X014270Y011117D02*
X014330Y011117D01*
X014330Y011018D02*
X014270Y011018D01*
X014330Y010920D02*
X014200Y010920D01*
X014250Y010821D02*
X014330Y010821D01*
X014330Y010723D02*
X014250Y010723D01*
X014250Y010670D02*
X013810Y010670D01*
X013810Y010690D01*
X013790Y010690D01*
X013790Y010670D01*
X013810Y010670D01*
X013810Y010410D01*
X014120Y010410D01*
X014158Y010420D01*
X014192Y010440D01*
X014220Y010468D01*
X014240Y010502D01*
X014250Y010540D01*
X014250Y010670D01*
X014250Y010624D02*
X014330Y010624D01*
X014330Y010526D02*
X014246Y010526D01*
X014170Y010427D02*
X014330Y010427D01*
X014330Y010329D02*
X012082Y010329D01*
X012172Y010254D02*
X012144Y010226D01*
X012124Y010192D01*
X012114Y010154D01*
X012114Y009830D01*
X012529Y009830D01*
X012529Y010284D01*
X012244Y010284D01*
X012206Y010274D01*
X012172Y010254D01*
X012147Y010230D02*
X011984Y010230D01*
X011885Y010132D02*
X012114Y010132D01*
X012114Y010033D02*
X011787Y010033D01*
X011688Y009935D02*
X012114Y009935D01*
X012114Y009836D02*
X011544Y009836D01*
X011548Y009541D02*
X006273Y009541D01*
X006175Y009639D02*
X012114Y009639D01*
X012114Y009730D02*
X012114Y009406D01*
X012124Y009368D01*
X012144Y009334D01*
X012172Y009306D01*
X012206Y009286D01*
X012244Y009276D01*
X012529Y009276D01*
X012529Y009730D01*
X012629Y009730D01*
X012629Y009830D01*
X013044Y009830D01*
X013044Y010154D01*
X013034Y010192D01*
X013014Y010226D01*
X012986Y010254D01*
X012952Y010274D01*
X012914Y010284D01*
X012629Y010284D01*
X012629Y009830D01*
X012529Y009830D01*
X012529Y009730D01*
X012114Y009730D01*
X012114Y009541D02*
X012012Y009541D01*
X012090Y009442D02*
X012114Y009442D01*
X012128Y009344D02*
X012138Y009344D01*
X012128Y009245D02*
X013330Y009245D01*
X013330Y009147D02*
X013306Y009147D01*
X013208Y009344D02*
X013020Y009344D01*
X013014Y009334D02*
X013034Y009368D01*
X013044Y009406D01*
X013044Y009730D01*
X012629Y009730D01*
X012629Y009276D01*
X012914Y009276D01*
X012952Y009286D01*
X012986Y009306D01*
X013014Y009334D01*
X013044Y009442D02*
X013196Y009442D01*
X013196Y009541D02*
X013044Y009541D01*
X013044Y009639D02*
X013196Y009639D01*
X013196Y009738D02*
X012629Y009738D01*
X012629Y009836D02*
X012529Y009836D01*
X012529Y009738D02*
X006076Y009738D01*
X006372Y009442D02*
X011470Y009442D01*
X011432Y009344D02*
X006470Y009344D01*
X006569Y009245D02*
X011432Y009245D01*
X011458Y009147D02*
X011306Y009147D01*
X011387Y009048D02*
X011520Y009048D01*
X011530Y008950D02*
X011428Y008950D01*
X011428Y008851D02*
X011530Y008851D01*
X011530Y008753D02*
X011404Y008753D01*
X011346Y008654D02*
X011530Y008654D01*
X011530Y008556D02*
X011206Y008556D01*
X011495Y008457D02*
X011530Y008457D01*
X011530Y007866D02*
X011432Y007866D01*
X011530Y007768D02*
X010901Y007768D01*
X010950Y007669D02*
X011529Y007669D01*
X011554Y007571D02*
X010950Y007571D01*
X010950Y007472D02*
X011634Y007472D01*
X011772Y007374D02*
X010950Y007374D01*
X010950Y007275D02*
X011903Y007275D01*
X011928Y007177D02*
X010950Y007177D01*
X010950Y007078D02*
X011928Y007078D01*
X011927Y006980D02*
X010950Y006980D01*
X010950Y006881D02*
X011926Y006881D01*
X011925Y006783D02*
X010950Y006783D01*
X010950Y006684D02*
X011925Y006684D01*
X011765Y006586D02*
X010950Y006586D01*
X010930Y006487D02*
X011685Y006487D01*
X011685Y006389D02*
X011025Y006389D01*
X011124Y006290D02*
X011685Y006290D01*
X011685Y006192D02*
X011522Y006192D01*
X011621Y006093D02*
X011685Y006093D01*
X012420Y005502D02*
X013040Y005502D01*
X013040Y005404D02*
X012420Y005404D01*
X012420Y005305D02*
X013040Y005305D01*
X013040Y005207D02*
X012420Y005207D01*
X012420Y005108D02*
X013040Y005108D01*
X013040Y005010D02*
X012420Y005010D01*
X012420Y004911D02*
X013040Y004911D01*
X013040Y004813D02*
X012501Y004813D01*
X012595Y004714D02*
X013040Y004714D01*
X013040Y004616D02*
X012630Y004616D01*
X012630Y004517D02*
X013040Y004517D01*
X013040Y004419D02*
X012630Y004419D01*
X012630Y004320D02*
X013040Y004320D01*
X013040Y004222D02*
X012630Y004222D01*
X012630Y004123D02*
X013040Y004123D01*
X013082Y004025D02*
X012630Y004025D01*
X012630Y003926D02*
X013180Y003926D01*
X013279Y003828D02*
X012630Y003828D01*
X013540Y004464D02*
X013540Y004621D01*
X013556Y004616D01*
X013880Y004616D01*
X013880Y005031D01*
X013980Y005031D01*
X013980Y004616D01*
X014304Y004616D01*
X014330Y004623D01*
X014330Y004464D01*
X013540Y004464D01*
X013540Y004517D02*
X014330Y004517D01*
X014330Y004616D02*
X013540Y004616D01*
X013880Y004714D02*
X013980Y004714D01*
X013980Y004813D02*
X013880Y004813D01*
X013880Y004911D02*
X013980Y004911D01*
X013980Y005010D02*
X013880Y005010D01*
X013880Y005207D02*
X013980Y005207D01*
X013980Y005305D02*
X013880Y005305D01*
X013880Y005404D02*
X013980Y005404D01*
X013980Y005502D02*
X013880Y005502D01*
X013721Y005601D02*
X014330Y005601D01*
X014330Y005699D02*
X013775Y005699D01*
X013775Y005798D02*
X014330Y005798D01*
X014330Y005896D02*
X013775Y005896D01*
X013775Y005995D02*
X014330Y005995D01*
X014330Y006093D02*
X013775Y006093D01*
X013775Y006192D02*
X014330Y006192D01*
X014330Y006290D02*
X013775Y006290D01*
X013775Y006389D02*
X014330Y006389D01*
X014330Y006487D02*
X013775Y006487D01*
X013695Y006586D02*
X014330Y006586D01*
X014330Y006684D02*
X012425Y006684D01*
X012425Y006783D02*
X014330Y006783D01*
X014330Y006881D02*
X012426Y006881D01*
X012427Y006980D02*
X014330Y006980D01*
X014330Y007078D02*
X012428Y007078D01*
X012428Y007177D02*
X014330Y007177D01*
X014330Y007275D02*
X012429Y007275D01*
X012433Y007374D02*
X013436Y007374D01*
X013442Y007370D02*
X013480Y007360D01*
X013790Y007360D01*
X013790Y007620D01*
X013350Y007620D01*
X013350Y007490D01*
X013360Y007452D01*
X013380Y007418D01*
X013408Y007390D01*
X013442Y007370D01*
X013355Y007472D02*
X012416Y007472D01*
X012343Y007571D02*
X013350Y007571D01*
X013350Y007669D02*
X012211Y007669D01*
X012080Y007768D02*
X013350Y007768D01*
X013404Y007866D02*
X013132Y007866D01*
X012828Y007866D02*
X012030Y007866D01*
X012030Y007965D02*
X012703Y007965D01*
X012652Y008063D02*
X012030Y008063D01*
X012030Y008162D02*
X012632Y008162D01*
X012636Y008260D02*
X012030Y008260D01*
X012030Y008359D02*
X012677Y008359D01*
X012765Y008457D02*
X012030Y008457D01*
X012030Y008556D02*
X012954Y008556D01*
X012814Y008654D02*
X012030Y008654D01*
X012030Y008753D02*
X012756Y008753D01*
X012732Y008851D02*
X012030Y008851D01*
X012030Y008950D02*
X012732Y008950D01*
X012773Y009048D02*
X012040Y009048D01*
X012102Y009147D02*
X012854Y009147D01*
X012629Y009344D02*
X012529Y009344D01*
X012529Y009442D02*
X012629Y009442D01*
X012629Y009541D02*
X012529Y009541D01*
X012529Y009639D02*
X012629Y009639D01*
X012629Y009935D02*
X012529Y009935D01*
X012529Y010033D02*
X012629Y010033D01*
X012629Y010132D02*
X012529Y010132D01*
X012529Y010230D02*
X012629Y010230D01*
X013010Y010230D02*
X013221Y010230D01*
X013196Y010132D02*
X013044Y010132D01*
X013044Y010033D02*
X013196Y010033D01*
X013196Y009935D02*
X013044Y009935D01*
X013044Y009836D02*
X013196Y009836D01*
X013442Y010420D02*
X013480Y010410D01*
X013790Y010410D01*
X013790Y010670D01*
X013350Y010670D01*
X013350Y010540D01*
X013360Y010502D01*
X013380Y010468D01*
X013408Y010440D01*
X013442Y010420D01*
X013430Y010427D02*
X012181Y010427D01*
X012279Y010526D02*
X013354Y010526D01*
X013350Y010624D02*
X012378Y010624D01*
X012476Y010723D02*
X013350Y010723D01*
X013350Y010821D02*
X012575Y010821D01*
X012673Y010920D02*
X013400Y010920D01*
X013790Y010821D02*
X013810Y010821D01*
X013810Y010723D02*
X013790Y010723D01*
X013790Y010624D02*
X013810Y010624D01*
X013810Y010526D02*
X013790Y010526D01*
X013790Y010427D02*
X013810Y010427D01*
X014141Y010230D02*
X014330Y010230D01*
X014330Y010132D02*
X014166Y010132D01*
X014166Y010033D02*
X014330Y010033D01*
X014330Y009935D02*
X014166Y009935D01*
X014166Y009836D02*
X014330Y009836D01*
X014330Y009738D02*
X014166Y009738D01*
X014166Y009639D02*
X014330Y009639D01*
X014330Y009541D02*
X014166Y009541D01*
X014166Y009442D02*
X014330Y009442D01*
X014330Y008851D02*
X014239Y008851D01*
X014270Y008753D02*
X014330Y008753D01*
X014330Y008654D02*
X014270Y008654D01*
X014270Y008556D02*
X014330Y008556D01*
X014330Y008457D02*
X014270Y008457D01*
X014232Y008359D02*
X014330Y008359D01*
X014330Y008260D02*
X014270Y008260D01*
X014270Y008162D02*
X014330Y008162D01*
X014330Y008063D02*
X014270Y008063D01*
X014270Y007965D02*
X014330Y007965D01*
X014330Y007866D02*
X014196Y007866D01*
X014250Y007768D02*
X014330Y007768D01*
X014330Y007669D02*
X014250Y007669D01*
X014250Y007620D02*
X013810Y007620D01*
X013810Y007360D01*
X014120Y007360D01*
X014158Y007370D01*
X014192Y007390D01*
X014220Y007418D01*
X014240Y007452D01*
X014250Y007490D01*
X014250Y007620D01*
X014250Y007571D02*
X014330Y007571D01*
X014330Y007472D02*
X014245Y007472D01*
X014164Y007374D02*
X014330Y007374D01*
X013810Y007374D02*
X013790Y007374D01*
X013790Y007472D02*
X013810Y007472D01*
X013810Y007571D02*
X013790Y007571D01*
X013790Y007669D02*
X013810Y007669D01*
X013810Y007768D02*
X013790Y007768D01*
X012885Y006586D02*
X012575Y006586D01*
X012655Y006487D02*
X012805Y006487D01*
X012805Y006389D02*
X012655Y006389D01*
X012655Y006290D02*
X012805Y006290D01*
X012805Y006192D02*
X012655Y006192D01*
X012655Y006093D02*
X012805Y006093D01*
X012805Y005995D02*
X012655Y005995D01*
X012655Y005896D02*
X012805Y005896D01*
X012805Y005798D02*
X012655Y005798D01*
X012655Y005699D02*
X012805Y005699D01*
X012859Y005601D02*
X012601Y005601D01*
X014454Y003729D02*
X014480Y003729D01*
X014480Y003631D02*
X014454Y003631D01*
X014480Y003532D02*
X014393Y003532D01*
X014307Y003434D02*
X014480Y003434D01*
X014480Y003335D02*
X014370Y003335D01*
X014370Y003237D02*
X014480Y003237D01*
X014480Y003138D02*
X014370Y003138D01*
X014370Y003040D02*
X014480Y003040D01*
X014480Y002941D02*
X014321Y002941D01*
X014370Y002843D02*
X014480Y002843D01*
X014480Y002744D02*
X014370Y002744D01*
X014370Y002646D02*
X014480Y002646D01*
X014480Y002547D02*
X014370Y002547D01*
X014329Y002449D02*
X014480Y002449D01*
X014480Y002350D02*
X014370Y002350D01*
X014370Y002252D02*
X014480Y002252D01*
X014480Y002153D02*
X014370Y002153D01*
X014370Y002055D02*
X014480Y002055D01*
X014480Y001956D02*
X014336Y001956D01*
X014340Y001858D02*
X014480Y001858D01*
X014480Y001759D02*
X014350Y001759D01*
X014350Y001670D02*
X013910Y001670D01*
X013910Y001410D01*
X014220Y001410D01*
X014258Y001420D01*
X014292Y001440D01*
X014320Y001468D01*
X014340Y001502D01*
X014350Y001540D01*
X014350Y001670D01*
X014350Y001661D02*
X014480Y001661D01*
X014480Y001562D02*
X014350Y001562D01*
X014316Y001464D02*
X014480Y001464D01*
X014480Y001365D02*
X006125Y001365D01*
X006125Y001406D02*
X006115Y001444D01*
X006095Y001478D01*
X006067Y001506D01*
X006033Y001526D01*
X005995Y001536D01*
X005730Y001536D01*
X005730Y001141D01*
X006125Y001141D01*
X006125Y001406D01*
X006104Y001464D02*
X013484Y001464D01*
X013480Y001468D02*
X013508Y001440D01*
X013542Y001420D01*
X013580Y001410D01*
X013890Y001410D01*
X013890Y001670D01*
X013450Y001670D01*
X013450Y001540D01*
X013460Y001502D01*
X013480Y001468D01*
X013450Y001562D02*
X000550Y001562D01*
X000550Y001464D02*
X001856Y001464D01*
X001865Y001478D02*
X001845Y001444D01*
X001835Y001406D01*
X001835Y001141D01*
X002230Y001141D01*
X002230Y001041D01*
X002330Y001041D01*
X002330Y000646D01*
X002595Y000646D01*
X002633Y000656D01*
X002667Y000676D01*
X002695Y000704D01*
X002715Y000738D01*
X002725Y000776D01*
X002725Y001041D01*
X002330Y001041D01*
X002330Y001141D01*
X002725Y001141D01*
X002725Y001406D01*
X002715Y001444D01*
X002695Y001478D01*
X002667Y001506D01*
X002633Y001526D01*
X002595Y001536D01*
X002330Y001536D01*
X002330Y001141D01*
X002230Y001141D01*
X002230Y001536D01*
X001965Y001536D01*
X001927Y001526D01*
X001893Y001506D01*
X001865Y001478D01*
X001835Y001365D02*
X000550Y001365D01*
X000550Y001267D02*
X001835Y001267D01*
X001835Y001168D02*
X000550Y001168D01*
X000550Y001070D02*
X002230Y001070D01*
X002230Y001041D02*
X001835Y001041D01*
X001835Y000776D01*
X001845Y000738D01*
X001865Y000704D01*
X001893Y000676D01*
X001927Y000656D01*
X001965Y000646D01*
X002230Y000646D01*
X002230Y001041D01*
X002230Y000971D02*
X002330Y000971D01*
X002330Y000873D02*
X002230Y000873D01*
X002230Y000774D02*
X002330Y000774D01*
X002330Y000676D02*
X002230Y000676D01*
X001893Y000676D02*
X000550Y000676D01*
X000550Y000774D02*
X001835Y000774D01*
X001835Y000873D02*
X000550Y000873D01*
X000550Y000971D02*
X001835Y000971D01*
X002230Y001168D02*
X002330Y001168D01*
X002330Y001070D02*
X005630Y001070D01*
X005630Y001041D02*
X005235Y001041D01*
X005235Y000776D01*
X005245Y000738D01*
X005265Y000704D01*
X005293Y000676D01*
X005327Y000656D01*
X005365Y000646D01*
X005630Y000646D01*
X005630Y001041D01*
X005730Y001041D01*
X005730Y000646D01*
X005995Y000646D01*
X006033Y000656D01*
X006067Y000676D01*
X006095Y000704D01*
X006115Y000738D01*
X006125Y000776D01*
X006125Y001041D01*
X005730Y001041D01*
X005730Y001141D01*
X005630Y001141D01*
X005630Y001041D01*
X005630Y000971D02*
X005730Y000971D01*
X005730Y000873D02*
X005630Y000873D01*
X005630Y000774D02*
X005730Y000774D01*
X005730Y000676D02*
X005630Y000676D01*
X005293Y000676D02*
X002667Y000676D01*
X002725Y000774D02*
X005235Y000774D01*
X005235Y000873D02*
X002725Y000873D01*
X002725Y000971D02*
X005235Y000971D01*
X005235Y001141D02*
X005630Y001141D01*
X005630Y001536D01*
X005365Y001536D01*
X005327Y001526D01*
X005293Y001506D01*
X005265Y001478D01*
X005245Y001444D01*
X005235Y001406D01*
X005235Y001141D01*
X005235Y001168D02*
X002725Y001168D01*
X002725Y001267D02*
X005235Y001267D01*
X005235Y001365D02*
X002725Y001365D01*
X002704Y001464D02*
X005256Y001464D01*
X005630Y001464D02*
X005730Y001464D01*
X005730Y001365D02*
X005630Y001365D01*
X005630Y001267D02*
X005730Y001267D01*
X005730Y001168D02*
X005630Y001168D01*
X005730Y001070D02*
X014480Y001070D01*
X014480Y001168D02*
X006125Y001168D01*
X006125Y001267D02*
X014480Y001267D01*
X014480Y000971D02*
X006125Y000971D01*
X006125Y000873D02*
X014480Y000873D01*
X014480Y000774D02*
X006125Y000774D01*
X006067Y000676D02*
X014480Y000676D01*
X014480Y000577D02*
X000550Y000577D01*
X000550Y001661D02*
X013450Y001661D01*
X013450Y001759D02*
X000550Y001759D01*
X000550Y001858D02*
X013460Y001858D01*
X013890Y001661D02*
X013910Y001661D01*
X013910Y001562D02*
X013890Y001562D01*
X013890Y001464D02*
X013910Y001464D01*
X015280Y001464D02*
X015644Y001464D01*
X015640Y001468D02*
X015668Y001440D01*
X015702Y001420D01*
X015740Y001410D01*
X016050Y001410D01*
X016050Y001670D01*
X016070Y001670D01*
X016070Y001690D01*
X016510Y001690D01*
X016510Y001820D01*
X016500Y001858D01*
X016480Y001892D01*
X016456Y001916D01*
X016511Y001970D01*
X016555Y001970D01*
X016555Y001835D01*
X016655Y001735D01*
X017505Y001735D01*
X017605Y001835D01*
X017605Y001970D01*
X017670Y001970D01*
X017762Y002008D01*
X017824Y002071D01*
X017864Y002032D01*
X018037Y001960D01*
X018823Y001960D01*
X018996Y002032D01*
X019128Y002164D01*
X019200Y002337D01*
X019200Y002523D01*
X019128Y002696D01*
X018996Y002828D01*
X018823Y002900D01*
X018037Y002900D01*
X017930Y002856D01*
X017930Y003004D01*
X018037Y002960D01*
X018823Y002960D01*
X018996Y003032D01*
X019128Y003164D01*
X019200Y003337D01*
X019200Y003523D01*
X019128Y003696D01*
X018996Y003828D01*
X018823Y003900D01*
X018037Y003900D01*
X017879Y003835D01*
X017730Y003984D01*
X017730Y004235D01*
X017955Y004235D01*
X018055Y004335D01*
X018055Y005106D01*
X017955Y005205D01*
X017105Y005205D01*
X017030Y005130D01*
X017030Y005430D01*
X017105Y005355D01*
X017955Y005355D01*
X018055Y005454D01*
X018055Y006225D01*
X017955Y006325D01*
X017105Y006325D01*
X017005Y006225D01*
X017005Y006030D01*
X016930Y006030D01*
X016838Y005992D01*
X016768Y005922D01*
X016568Y005722D01*
X016530Y005630D01*
X016530Y005432D01*
X016524Y005454D01*
X016504Y005488D01*
X016476Y005516D01*
X016442Y005536D01*
X016404Y005546D01*
X016080Y005546D01*
X016080Y005131D01*
X015980Y005131D01*
X015980Y005546D01*
X015656Y005546D01*
X015618Y005536D01*
X015584Y005516D01*
X015556Y005488D01*
X015536Y005454D01*
X015530Y005432D01*
X015530Y007435D01*
X015540Y007418D01*
X015568Y007390D01*
X015602Y007370D01*
X015640Y007360D01*
X015950Y007360D01*
X015950Y007620D01*
X015530Y007620D01*
X015530Y007640D01*
X015950Y007640D01*
X015950Y007620D01*
X015970Y007620D01*
X015970Y007640D01*
X016410Y007640D01*
X016410Y007770D01*
X016400Y007808D01*
X016380Y007842D01*
X016356Y007866D01*
X016370Y007880D01*
X017704Y007880D01*
X017732Y007814D01*
X017864Y007682D01*
X018037Y007610D01*
X018823Y007610D01*
X018996Y007682D01*
X019128Y007814D01*
X019200Y007987D01*
X019200Y008173D01*
X019128Y008346D01*
X018996Y008478D01*
X018823Y008550D01*
X018037Y008550D01*
X017895Y008491D01*
X018020Y008617D01*
X018037Y008610D01*
X018823Y008610D01*
X018996Y008682D01*
X019128Y008814D01*
X019200Y008987D01*
X019200Y009173D01*
X019128Y009346D01*
X018996Y009478D01*
X018823Y009550D01*
X018037Y009550D01*
X017864Y009478D01*
X017732Y009346D01*
X017660Y009173D01*
X017660Y008987D01*
X017667Y008970D01*
X017576Y008880D01*
X016370Y008880D01*
X016430Y008940D01*
X016430Y009320D01*
X016395Y009356D01*
X016464Y009356D01*
X016564Y009455D01*
X016564Y010305D01*
X016464Y010404D01*
X015693Y010404D01*
X015594Y010305D01*
X015594Y010130D01*
X015530Y010130D01*
X015530Y010485D01*
X015540Y010468D01*
X015568Y010440D01*
X015602Y010420D01*
X015640Y010410D01*
X015950Y010410D01*
X015950Y010670D01*
X015530Y010670D01*
X015530Y010690D01*
X015950Y010690D01*
X015950Y010890D01*
X015970Y010890D01*
X015970Y010690D01*
X015950Y010690D01*
X015950Y010670D01*
X015970Y010670D01*
X015970Y010690D01*
X016410Y010690D01*
X016410Y010820D01*
X016400Y010858D01*
X016380Y010892D01*
X016356Y010916D01*
X016370Y010930D01*
X017480Y010930D01*
X017572Y010968D01*
X017634Y011030D01*
X017765Y011030D01*
X017864Y010932D01*
X018037Y010860D01*
X018823Y010860D01*
X018996Y010932D01*
X019128Y011064D01*
X019200Y011237D01*
X019200Y011423D01*
X019128Y011596D01*
X018996Y011728D01*
X018823Y011800D01*
X018037Y011800D01*
X017864Y011728D01*
X017732Y011596D01*
X017704Y011530D01*
X017480Y011530D01*
X017388Y011492D01*
X017326Y011430D01*
X016370Y011430D01*
X016370Y011430D01*
X017180Y011430D01*
X017272Y011468D01*
X017799Y011996D01*
X017864Y011932D01*
X018037Y011860D01*
X018823Y011860D01*
X018996Y011932D01*
X019128Y012064D01*
X019200Y012237D01*
X019200Y012423D01*
X019128Y012596D01*
X018996Y012728D01*
X018823Y012800D01*
X018037Y012800D01*
X017864Y012728D01*
X017732Y012596D01*
X017724Y012577D01*
X017638Y012542D01*
X017568Y012472D01*
X017026Y011930D01*
X016370Y011930D01*
X016430Y011990D01*
X016430Y012370D01*
X016330Y012470D01*
X016279Y012470D01*
X016314Y012505D01*
X016314Y013355D01*
X016214Y013454D01*
X016079Y013454D01*
X016080Y013980D01*
X016080Y013980D01*
X016080Y014030D01*
X016080Y014079D01*
X016080Y014080D01*
X016061Y014126D01*
X016042Y014171D01*
X016042Y014171D01*
X016042Y014172D01*
X016007Y014207D01*
X015972Y014242D01*
X015972Y014242D01*
X015022Y015192D01*
X014930Y015230D01*
X014469Y015230D01*
X014095Y015534D01*
X014095Y015706D01*
X014264Y015706D01*
X014364Y015805D01*
X014364Y016655D01*
X014336Y016682D01*
X014384Y016730D01*
X014630Y016730D01*
X014608Y016724D01*
X014574Y016704D01*
X014546Y016676D01*
X014526Y016642D01*
X014516Y016604D01*
X014516Y016280D01*
X014931Y016280D01*
X014931Y016180D01*
X014516Y016180D01*
X014516Y015856D01*
X014526Y015818D01*
X014546Y015784D01*
X014574Y015756D01*
X014608Y015736D01*
X014646Y015726D01*
X014931Y015726D01*
X014931Y016180D01*
X015031Y016180D01*
X015031Y015726D01*
X015316Y015726D01*
X015354Y015736D01*
X015388Y015756D01*
X015416Y015784D01*
X015436Y015818D01*
X015446Y015856D01*
X015446Y016180D01*
X015031Y016180D01*
X015031Y016280D01*
X015446Y016280D01*
X015446Y016604D01*
X015436Y016642D01*
X015416Y016676D01*
X015388Y016704D01*
X015354Y016724D01*
X015331Y016730D01*
X015422Y016768D01*
X015530Y016876D01*
X015738Y016668D01*
X015830Y016630D01*
X016185Y016630D01*
X016185Y016455D01*
X016285Y016355D01*
X017056Y016355D01*
X017155Y016455D01*
X017155Y017305D01*
X017056Y017405D01*
X016287Y017405D01*
X016300Y017437D01*
X016300Y018223D01*
X016228Y018396D01*
X016096Y018528D01*
X015923Y018600D01*
X015737Y018600D01*
X015564Y018528D01*
X015432Y018396D01*
X015360Y018223D01*
X015360Y017437D01*
X015367Y017420D01*
X015176Y017230D01*
X015166Y017230D01*
X015173Y017237D01*
X015215Y017294D01*
X015247Y017357D01*
X015269Y017425D01*
X015280Y017495D01*
X015280Y017780D01*
X014880Y017780D01*
X014880Y017880D01*
X014780Y017880D01*
X014780Y018578D01*
X014725Y018569D01*
X014657Y018547D01*
X014594Y018515D01*
X014537Y018473D01*
X014487Y018423D01*
X014445Y018366D01*
X014413Y018303D01*
X014391Y018235D01*
X014380Y018165D01*
X014380Y017880D01*
X014780Y017880D01*
X014780Y017780D01*
X014380Y017780D01*
X014380Y017495D01*
X014391Y017425D01*
X014413Y017357D01*
X014445Y017294D01*
X014487Y017237D01*
X014494Y017230D01*
X014230Y017230D01*
X014138Y017192D01*
X014068Y017122D01*
X013701Y016754D01*
X013493Y016754D01*
X013442Y016703D01*
X013442Y017066D01*
X013342Y017165D01*
X012808Y017165D01*
X012708Y017066D01*
X012708Y015862D01*
X012808Y015762D01*
X012809Y015762D01*
X012376Y015330D01*
X007660Y015330D01*
X007669Y015335D01*
X007697Y015363D01*
X007717Y015397D01*
X007727Y015435D01*
X007727Y016032D01*
X007428Y016032D01*
X007428Y016128D01*
X007332Y016128D01*
X007332Y016032D01*
X007033Y016032D01*
X007033Y015435D01*
X007043Y015397D01*
X007063Y015363D01*
X007091Y015335D01*
X007100Y015330D01*
X006692Y015330D01*
X006747Y015385D01*
X006747Y016775D01*
X006647Y016875D01*
X006630Y016875D01*
X006630Y016976D01*
X006692Y017038D01*
X006727Y017124D01*
X006746Y017132D01*
X006878Y017264D01*
X006950Y017437D01*
X006950Y018223D01*
X006878Y018396D01*
X006746Y018528D01*
X006727Y018536D01*
X006692Y018622D01*
X006622Y018692D01*
X006322Y018992D01*
X006230Y019030D01*
X005230Y019030D01*
X005138Y018992D01*
X005068Y018922D01*
X004676Y018530D01*
X004284Y018530D01*
X003972Y018842D01*
X003880Y018880D01*
X003380Y018880D01*
X003288Y018842D01*
X003218Y018772D01*
X003118Y018672D01*
X003080Y018580D01*
X003080Y018535D01*
X003064Y018528D01*
X002932Y018396D01*
X002860Y018223D01*
X002860Y017437D01*
X002932Y017264D01*
X002972Y017223D01*
X002905Y017155D01*
X002905Y016305D01*
X002951Y016259D01*
X002946Y016255D01*
X002946Y015405D01*
X003046Y015306D01*
X003817Y015306D01*
X003916Y015405D01*
X003916Y015763D01*
X003984Y015830D01*
X004013Y015830D01*
X004013Y015385D01*
X004113Y015285D01*
X004384Y015285D01*
X004471Y015180D01*
X001050Y015180D01*
X001050Y019706D01*
X004109Y019706D01*
X004002Y019599D01*
X003916Y019392D01*
X003916Y019168D01*
X004002Y018961D01*
X004161Y018802D01*
X004368Y018716D01*
X004592Y018716D01*
X004799Y018802D01*
X004958Y018961D01*
X005044Y019168D01*
X005044Y019392D01*
X004958Y019599D01*
X004851Y019706D01*
X008909Y019706D01*
X008802Y019599D01*
X008716Y019392D01*
X008716Y019168D01*
X008802Y018961D01*
X008961Y018802D01*
X009168Y018716D01*
X009392Y018716D01*
X009599Y018802D01*
X009758Y018961D01*
X009844Y019168D01*
X009844Y019392D01*
X009758Y019599D01*
X009651Y019706D01*
X013509Y019706D01*
X013402Y019599D01*
X013316Y019392D01*
X013316Y019328D01*
X013305Y019340D01*
X013271Y019360D01*
X013232Y019370D01*
X012219Y019370D01*
X012219Y018482D01*
X013363Y018482D01*
X013363Y019056D01*
X013402Y018961D01*
X013561Y018802D01*
X013768Y018716D01*
X013992Y018716D01*
X014199Y018802D01*
X014358Y018961D01*
X014444Y019168D01*
X014444Y019392D01*
X014358Y019599D01*
X014251Y019706D01*
X016409Y019706D01*
X016302Y019599D01*
X016216Y019392D01*
X016216Y019168D01*
X016302Y018961D01*
X016461Y018802D01*
X016668Y018716D01*
X016892Y018716D01*
X017099Y018802D01*
X017258Y018961D01*
X017344Y019168D01*
X017344Y019392D01*
X017258Y019599D01*
X017151Y019706D01*
X019780Y019706D01*
X019780Y000550D01*
X015280Y000550D01*
X015280Y003827D01*
X015286Y003821D01*
X015300Y003800D01*
X015320Y003786D01*
X015338Y003768D01*
X015361Y003759D01*
X015382Y003745D01*
X015407Y003740D01*
X015430Y003730D01*
X015455Y003730D01*
X015480Y003725D01*
X015504Y003730D01*
X015506Y003730D01*
X015506Y003593D01*
X015605Y003494D01*
X015780Y003494D01*
X015780Y003470D01*
X015690Y003470D01*
X015590Y003370D01*
X015590Y002990D01*
X015650Y002930D01*
X015590Y002870D01*
X015590Y002490D01*
X015650Y002430D01*
X015590Y002370D01*
X015590Y001990D01*
X015664Y001916D01*
X015640Y001892D01*
X015620Y001858D01*
X015610Y001820D01*
X015610Y001690D01*
X016050Y001690D01*
X016050Y001670D01*
X015610Y001670D01*
X015610Y001540D01*
X015620Y001502D01*
X015640Y001468D01*
X015610Y001562D02*
X015280Y001562D01*
X015280Y001661D02*
X015610Y001661D01*
X015610Y001759D02*
X015280Y001759D01*
X015280Y001858D02*
X015620Y001858D01*
X015624Y001956D02*
X015280Y001956D01*
X015280Y002055D02*
X015590Y002055D01*
X015590Y002153D02*
X015280Y002153D01*
X015280Y002252D02*
X015590Y002252D01*
X015590Y002350D02*
X015280Y002350D01*
X015280Y002449D02*
X015631Y002449D01*
X015590Y002547D02*
X015280Y002547D01*
X015280Y002646D02*
X015590Y002646D01*
X015590Y002744D02*
X015280Y002744D01*
X015280Y002843D02*
X015590Y002843D01*
X015639Y002941D02*
X015280Y002941D01*
X015280Y003040D02*
X015590Y003040D01*
X015590Y003138D02*
X015280Y003138D01*
X015280Y003237D02*
X015590Y003237D01*
X015590Y003335D02*
X015280Y003335D01*
X015280Y003434D02*
X015653Y003434D01*
X015567Y003532D02*
X015280Y003532D01*
X015280Y003631D02*
X015506Y003631D01*
X015499Y003729D02*
X015506Y003729D01*
X015460Y003729D02*
X015280Y003729D01*
X015530Y004389D02*
X015530Y004730D01*
X015536Y004708D01*
X015556Y004674D01*
X015584Y004646D01*
X015618Y004626D01*
X015656Y004616D01*
X015980Y004616D01*
X015980Y005031D01*
X016080Y005031D01*
X016080Y004616D01*
X016404Y004616D01*
X016442Y004626D01*
X016476Y004646D01*
X016504Y004674D01*
X016524Y004708D01*
X016530Y004730D01*
X016530Y004389D01*
X016455Y004464D01*
X015605Y004464D01*
X015530Y004389D01*
X015530Y004419D02*
X015560Y004419D01*
X015530Y004517D02*
X016530Y004517D01*
X016530Y004419D02*
X016500Y004419D01*
X016530Y004616D02*
X015530Y004616D01*
X015530Y004714D02*
X015534Y004714D01*
X015980Y004714D02*
X016080Y004714D01*
X016080Y004813D02*
X015980Y004813D01*
X015980Y004911D02*
X016080Y004911D01*
X016080Y005010D02*
X015980Y005010D01*
X015980Y005207D02*
X016080Y005207D01*
X016080Y005305D02*
X015980Y005305D01*
X015980Y005404D02*
X016080Y005404D01*
X016080Y005502D02*
X015980Y005502D01*
X015569Y005502D02*
X015530Y005502D01*
X015530Y005601D02*
X016530Y005601D01*
X016530Y005502D02*
X016491Y005502D01*
X016559Y005699D02*
X015530Y005699D01*
X015530Y005798D02*
X016644Y005798D01*
X016742Y005896D02*
X015530Y005896D01*
X015530Y005995D02*
X016845Y005995D01*
X017005Y006093D02*
X015530Y006093D01*
X015530Y006192D02*
X017005Y006192D01*
X017070Y006290D02*
X015530Y006290D01*
X015530Y006389D02*
X019780Y006389D01*
X019780Y006487D02*
X015530Y006487D01*
X015530Y006586D02*
X019780Y006586D01*
X019780Y006684D02*
X018944Y006684D01*
X018966Y006695D02*
X019023Y006737D01*
X019073Y006787D01*
X019115Y006844D01*
X019147Y006907D01*
X019169Y006975D01*
X019178Y007030D01*
X018480Y007030D01*
X018480Y007130D01*
X018380Y007130D01*
X018380Y007530D01*
X018095Y007530D01*
X018025Y007519D01*
X017957Y007497D01*
X017894Y007465D01*
X017837Y007423D01*
X017787Y007373D01*
X017745Y007316D01*
X017713Y007253D01*
X017691Y007185D01*
X017682Y007130D01*
X018380Y007130D01*
X018380Y007030D01*
X018480Y007030D01*
X018480Y006630D01*
X018765Y006630D01*
X018835Y006641D01*
X018903Y006663D01*
X018966Y006695D01*
X019069Y006783D02*
X019780Y006783D01*
X019780Y006881D02*
X019134Y006881D01*
X019170Y006980D02*
X019780Y006980D01*
X019780Y007078D02*
X018480Y007078D01*
X018480Y007130D02*
X019178Y007130D01*
X019169Y007185D01*
X019147Y007253D01*
X019115Y007316D01*
X019073Y007373D01*
X019023Y007423D01*
X018966Y007465D01*
X018903Y007497D01*
X018835Y007519D01*
X018765Y007530D01*
X018480Y007530D01*
X018480Y007130D01*
X018480Y007177D02*
X018380Y007177D01*
X018380Y007275D02*
X018480Y007275D01*
X018480Y007374D02*
X018380Y007374D01*
X018380Y007472D02*
X018480Y007472D01*
X018380Y007078D02*
X015530Y007078D01*
X015530Y006980D02*
X017690Y006980D01*
X017691Y006975D02*
X017713Y006907D01*
X017745Y006844D01*
X017787Y006787D01*
X017837Y006737D01*
X017894Y006695D01*
X017957Y006663D01*
X018025Y006641D01*
X018095Y006630D01*
X018380Y006630D01*
X018380Y007030D01*
X017682Y007030D01*
X017691Y006975D01*
X017726Y006881D02*
X015530Y006881D01*
X015530Y006783D02*
X017791Y006783D01*
X017916Y006684D02*
X015530Y006684D01*
X015530Y007177D02*
X017690Y007177D01*
X017724Y007275D02*
X015530Y007275D01*
X015530Y007374D02*
X015596Y007374D01*
X015950Y007374D02*
X015970Y007374D01*
X015970Y007360D02*
X016280Y007360D01*
X016318Y007370D01*
X016352Y007390D01*
X016380Y007418D01*
X016400Y007452D01*
X016410Y007490D01*
X016410Y007620D01*
X015970Y007620D01*
X015970Y007360D01*
X015970Y007472D02*
X015950Y007472D01*
X015950Y007571D02*
X015970Y007571D01*
X016324Y007374D02*
X017787Y007374D01*
X017908Y007472D02*
X016405Y007472D01*
X016410Y007571D02*
X019780Y007571D01*
X019780Y007669D02*
X018966Y007669D01*
X019082Y007768D02*
X019780Y007768D01*
X019780Y007866D02*
X019150Y007866D01*
X019191Y007965D02*
X019780Y007965D01*
X019780Y008063D02*
X019200Y008063D01*
X019200Y008162D02*
X019780Y008162D01*
X019780Y008260D02*
X019164Y008260D01*
X019116Y008359D02*
X019780Y008359D01*
X019780Y008457D02*
X019018Y008457D01*
X018930Y008654D02*
X019780Y008654D01*
X019780Y008556D02*
X017959Y008556D01*
X017646Y008950D02*
X016430Y008950D01*
X016430Y009048D02*
X017660Y009048D01*
X017660Y009147D02*
X016430Y009147D01*
X016430Y009245D02*
X017690Y009245D01*
X017730Y009344D02*
X016407Y009344D01*
X016551Y009442D02*
X016741Y009442D01*
X016746Y009434D02*
X016774Y009406D01*
X016808Y009386D01*
X016846Y009376D01*
X017131Y009376D01*
X017131Y009830D01*
X016716Y009830D01*
X016716Y009506D01*
X016726Y009468D01*
X016746Y009434D01*
X016716Y009541D02*
X016564Y009541D01*
X016564Y009639D02*
X016716Y009639D01*
X016716Y009738D02*
X016564Y009738D01*
X016564Y009836D02*
X017131Y009836D01*
X017131Y009830D02*
X017131Y009930D01*
X016716Y009930D01*
X016716Y010254D01*
X016726Y010292D01*
X016746Y010326D01*
X016774Y010354D01*
X016808Y010374D01*
X016846Y010384D01*
X017131Y010384D01*
X017131Y009930D01*
X017231Y009930D01*
X017231Y010384D01*
X017516Y010384D01*
X017554Y010374D01*
X017588Y010354D01*
X017616Y010326D01*
X017636Y010292D01*
X017646Y010254D01*
X017646Y009930D01*
X017231Y009930D01*
X017231Y009830D01*
X017231Y009376D01*
X017516Y009376D01*
X017554Y009386D01*
X017588Y009406D01*
X017616Y009434D01*
X017636Y009468D01*
X017646Y009506D01*
X017646Y009830D01*
X017231Y009830D01*
X017131Y009830D01*
X017131Y009738D02*
X017231Y009738D01*
X017231Y009836D02*
X019780Y009836D01*
X019780Y009738D02*
X017646Y009738D01*
X017646Y009639D02*
X019780Y009639D01*
X019780Y009541D02*
X018846Y009541D01*
X019033Y009442D02*
X019780Y009442D01*
X019780Y009344D02*
X019130Y009344D01*
X019170Y009245D02*
X019780Y009245D01*
X019780Y009147D02*
X019200Y009147D01*
X019200Y009048D02*
X019780Y009048D01*
X019780Y008950D02*
X019185Y008950D01*
X019144Y008851D02*
X019780Y008851D01*
X019780Y008753D02*
X019067Y008753D01*
X018835Y009891D02*
X018903Y009913D01*
X018966Y009945D01*
X019023Y009987D01*
X019073Y010037D01*
X019115Y010094D01*
X019147Y010157D01*
X019169Y010225D01*
X019178Y010280D01*
X018480Y010280D01*
X018480Y010380D01*
X018380Y010380D01*
X018380Y010780D01*
X018095Y010780D01*
X018025Y010769D01*
X017957Y010747D01*
X017894Y010715D01*
X017837Y010673D01*
X017787Y010623D01*
X017745Y010566D01*
X017713Y010503D01*
X017691Y010435D01*
X017682Y010380D01*
X018380Y010380D01*
X018380Y010280D01*
X018480Y010280D01*
X018480Y009880D01*
X018765Y009880D01*
X018835Y009891D01*
X018945Y009935D02*
X019780Y009935D01*
X019780Y010033D02*
X019069Y010033D01*
X019134Y010132D02*
X019780Y010132D01*
X019780Y010230D02*
X019170Y010230D01*
X019178Y010380D02*
X019169Y010435D01*
X019147Y010503D01*
X019115Y010566D01*
X019073Y010623D01*
X019023Y010673D01*
X018966Y010715D01*
X018903Y010747D01*
X018835Y010769D01*
X018765Y010780D01*
X018480Y010780D01*
X018480Y010380D01*
X019178Y010380D01*
X019170Y010427D02*
X019780Y010427D01*
X019780Y010329D02*
X018480Y010329D01*
X018480Y010427D02*
X018380Y010427D01*
X018380Y010329D02*
X017614Y010329D01*
X017682Y010280D02*
X017691Y010225D01*
X017713Y010157D01*
X017745Y010094D01*
X017787Y010037D01*
X017837Y009987D01*
X017894Y009945D01*
X017957Y009913D01*
X018025Y009891D01*
X018095Y009880D01*
X018380Y009880D01*
X018380Y010280D01*
X017682Y010280D01*
X017690Y010230D02*
X017646Y010230D01*
X017646Y010132D02*
X017726Y010132D01*
X017791Y010033D02*
X017646Y010033D01*
X017646Y009935D02*
X017915Y009935D01*
X018014Y009541D02*
X017646Y009541D01*
X017621Y009442D02*
X017827Y009442D01*
X017231Y009442D02*
X017131Y009442D01*
X017131Y009541D02*
X017231Y009541D01*
X017231Y009639D02*
X017131Y009639D01*
X017131Y009935D02*
X017231Y009935D01*
X017231Y010033D02*
X017131Y010033D01*
X017131Y010132D02*
X017231Y010132D01*
X017231Y010230D02*
X017131Y010230D01*
X017131Y010329D02*
X017231Y010329D01*
X017690Y010427D02*
X016330Y010427D01*
X016318Y010420D02*
X016352Y010440D01*
X016380Y010468D01*
X016400Y010502D01*
X016410Y010540D01*
X016410Y010670D01*
X015970Y010670D01*
X015970Y010410D01*
X016280Y010410D01*
X016318Y010420D01*
X016406Y010526D02*
X017725Y010526D01*
X017788Y010624D02*
X016410Y010624D01*
X016410Y010723D02*
X017909Y010723D01*
X017893Y010920D02*
X016360Y010920D01*
X016410Y010821D02*
X019780Y010821D01*
X019780Y010723D02*
X018951Y010723D01*
X019072Y010624D02*
X019780Y010624D01*
X019780Y010526D02*
X019135Y010526D01*
X018967Y010920D02*
X019780Y010920D01*
X019780Y011018D02*
X019083Y011018D01*
X019150Y011117D02*
X019780Y011117D01*
X019780Y011215D02*
X019191Y011215D01*
X019200Y011314D02*
X019780Y011314D01*
X019780Y011412D02*
X019200Y011412D01*
X019164Y011511D02*
X019780Y011511D01*
X019780Y011609D02*
X019116Y011609D01*
X019017Y011708D02*
X019780Y011708D01*
X019780Y011806D02*
X017610Y011806D01*
X017708Y011905D02*
X017929Y011905D01*
X017843Y011708D02*
X017511Y011708D01*
X017413Y011609D02*
X017744Y011609D01*
X017433Y011511D02*
X017314Y011511D01*
X017099Y012003D02*
X016430Y012003D01*
X016430Y012102D02*
X017198Y012102D01*
X017296Y012200D02*
X016430Y012200D01*
X016430Y012299D02*
X017395Y012299D01*
X017493Y012397D02*
X016403Y012397D01*
X016496Y012484D02*
X016476Y012518D01*
X016466Y012556D01*
X016466Y012880D01*
X016881Y012880D01*
X016881Y012980D01*
X016466Y012980D01*
X016466Y013304D01*
X016476Y013342D01*
X016496Y013376D01*
X016524Y013404D01*
X016558Y013424D01*
X016596Y013434D01*
X016881Y013434D01*
X016881Y012980D01*
X016981Y012980D01*
X016981Y013434D01*
X017266Y013434D01*
X017304Y013424D01*
X017338Y013404D01*
X017366Y013376D01*
X017386Y013342D01*
X017396Y013304D01*
X017396Y012980D01*
X016981Y012980D01*
X016981Y012880D01*
X016981Y012426D01*
X017266Y012426D01*
X017304Y012436D01*
X017338Y012456D01*
X017366Y012484D01*
X017386Y012518D01*
X017396Y012556D01*
X017396Y012880D01*
X016981Y012880D01*
X016881Y012880D01*
X016881Y012426D01*
X016596Y012426D01*
X016558Y012436D01*
X016524Y012456D01*
X016496Y012484D01*
X016489Y012496D02*
X016304Y012496D01*
X016314Y012594D02*
X016466Y012594D01*
X016466Y012693D02*
X016314Y012693D01*
X016314Y012791D02*
X016466Y012791D01*
X016314Y012890D02*
X016881Y012890D01*
X016881Y012988D02*
X016981Y012988D01*
X016981Y012890D02*
X019780Y012890D01*
X019780Y012988D02*
X017396Y012988D01*
X017396Y013087D02*
X019780Y013087D01*
X019780Y013185D02*
X017396Y013185D01*
X017396Y013284D02*
X019780Y013284D01*
X019780Y013382D02*
X017361Y013382D01*
X016981Y013382D02*
X016881Y013382D01*
X016881Y013284D02*
X016981Y013284D01*
X016981Y013185D02*
X016881Y013185D01*
X016881Y013087D02*
X016981Y013087D01*
X016981Y012791D02*
X016881Y012791D01*
X016881Y012693D02*
X016981Y012693D01*
X016981Y012594D02*
X016881Y012594D01*
X016881Y012496D02*
X016981Y012496D01*
X017373Y012496D02*
X017592Y012496D01*
X017731Y012594D02*
X017396Y012594D01*
X017396Y012693D02*
X017828Y012693D01*
X018015Y012791D02*
X017396Y012791D01*
X016466Y012988D02*
X016314Y012988D01*
X016314Y013087D02*
X016466Y013087D01*
X016466Y013185D02*
X016314Y013185D01*
X016314Y013284D02*
X016466Y013284D01*
X016502Y013382D02*
X016286Y013382D01*
X016079Y013481D02*
X019780Y013481D01*
X019780Y013579D02*
X016080Y013579D01*
X016080Y013678D02*
X019780Y013678D01*
X019780Y013776D02*
X016080Y013776D01*
X016080Y013875D02*
X019780Y013875D01*
X019780Y013973D02*
X016080Y013973D01*
X016080Y014072D02*
X019780Y014072D01*
X019780Y014170D02*
X016043Y014170D01*
X016080Y014080D02*
X016080Y014080D01*
X015945Y014269D02*
X019780Y014269D01*
X019780Y014367D02*
X015847Y014367D01*
X015748Y014466D02*
X019780Y014466D01*
X019780Y014564D02*
X015650Y014564D01*
X015551Y014663D02*
X019780Y014663D01*
X019780Y014761D02*
X015453Y014761D01*
X015354Y014860D02*
X019780Y014860D01*
X019780Y014958D02*
X015256Y014958D01*
X015157Y015057D02*
X019780Y015057D01*
X019780Y015155D02*
X015059Y015155D01*
X015031Y015746D02*
X014931Y015746D01*
X014931Y015845D02*
X015031Y015845D01*
X015031Y015943D02*
X014931Y015943D01*
X014931Y016042D02*
X015031Y016042D01*
X015031Y016140D02*
X014931Y016140D01*
X014931Y016239D02*
X014364Y016239D01*
X014364Y016337D02*
X014516Y016337D01*
X014516Y016436D02*
X014364Y016436D01*
X014364Y016534D02*
X014516Y016534D01*
X014524Y016633D02*
X014364Y016633D01*
X014364Y016140D02*
X014516Y016140D01*
X014516Y016042D02*
X014364Y016042D01*
X014364Y015943D02*
X014516Y015943D01*
X014519Y015845D02*
X014364Y015845D01*
X014305Y015746D02*
X014591Y015746D01*
X014319Y015352D02*
X019780Y015352D01*
X019780Y015254D02*
X014440Y015254D01*
X014198Y015451D02*
X019780Y015451D01*
X019780Y015549D02*
X014095Y015549D01*
X014095Y015648D02*
X019780Y015648D01*
X019780Y015746D02*
X015372Y015746D01*
X015443Y015845D02*
X017895Y015845D01*
X017888Y015848D02*
X017930Y015830D01*
X017934Y015830D01*
X017937Y015829D01*
X017984Y015830D01*
X018530Y015830D01*
X018622Y015868D01*
X018872Y016118D01*
X018942Y016188D01*
X018978Y016276D01*
X019096Y016276D01*
X019195Y016375D01*
X019195Y017107D01*
X019096Y017206D01*
X018364Y017206D01*
X018275Y017117D01*
X018275Y017305D01*
X018175Y017405D01*
X017404Y017405D01*
X017305Y017305D01*
X017305Y016455D01*
X017404Y016355D01*
X017530Y016355D01*
X017530Y016318D01*
X017528Y016313D01*
X017529Y016269D01*
X017528Y016225D01*
X017530Y016219D01*
X017530Y016213D01*
X017548Y016173D01*
X017564Y016132D01*
X017569Y016128D01*
X017571Y016123D01*
X017603Y016092D01*
X017633Y016061D01*
X017639Y016058D01*
X017806Y015901D01*
X017838Y015868D01*
X017842Y015867D01*
X017844Y015864D01*
X017888Y015848D01*
X017761Y015943D02*
X015446Y015943D01*
X015446Y016042D02*
X017657Y016042D01*
X017561Y016140D02*
X015446Y016140D01*
X015446Y016337D02*
X017530Y016337D01*
X017528Y016239D02*
X015031Y016239D01*
X015446Y016436D02*
X016204Y016436D01*
X016185Y016534D02*
X015446Y016534D01*
X015439Y016633D02*
X015824Y016633D01*
X015675Y016731D02*
X015332Y016731D01*
X015483Y016830D02*
X015577Y016830D01*
X015268Y017322D02*
X015229Y017322D01*
X015268Y017421D02*
X015367Y017421D01*
X015360Y017519D02*
X015280Y017519D01*
X015280Y017618D02*
X015360Y017618D01*
X015360Y017716D02*
X015280Y017716D01*
X015360Y017815D02*
X014880Y017815D01*
X014880Y017880D02*
X015280Y017880D01*
X015280Y018165D01*
X015269Y018235D01*
X015247Y018303D01*
X015215Y018366D01*
X015173Y018423D01*
X015123Y018473D01*
X015066Y018515D01*
X015003Y018547D01*
X014935Y018569D01*
X014880Y018578D01*
X014880Y017880D01*
X014880Y017913D02*
X014780Y017913D01*
X014780Y017815D02*
X013363Y017815D01*
X013363Y017913D02*
X014380Y017913D01*
X014380Y018012D02*
X013363Y018012D01*
X013363Y018110D02*
X014380Y018110D01*
X014387Y018209D02*
X013363Y018209D01*
X013363Y018307D02*
X014415Y018307D01*
X014474Y018406D02*
X012219Y018406D01*
X012219Y018382D02*
X012219Y018482D01*
X012119Y018482D01*
X012119Y018382D01*
X012219Y018382D01*
X012219Y017495D01*
X013232Y017495D01*
X013271Y017505D01*
X013305Y017525D01*
X013333Y017553D01*
X013352Y017587D01*
X013363Y017625D01*
X013363Y018382D01*
X012219Y018382D01*
X012219Y018307D02*
X012119Y018307D01*
X012119Y018382D02*
X012119Y017495D01*
X011106Y017495D01*
X011068Y017505D01*
X011034Y017525D01*
X011006Y017553D01*
X010986Y017587D01*
X010976Y017625D01*
X010976Y018382D01*
X012119Y018382D01*
X012119Y018406D02*
X008869Y018406D01*
X008878Y018396D02*
X008746Y018528D01*
X008573Y018600D01*
X008387Y018600D01*
X008214Y018528D01*
X008082Y018396D01*
X008010Y018223D01*
X008010Y017437D01*
X008082Y017264D01*
X008150Y017195D01*
X008150Y017114D01*
X008200Y016993D01*
X008293Y016900D01*
X008414Y016850D01*
X008629Y016850D01*
X008624Y016842D01*
X008614Y016804D01*
X008614Y016480D01*
X009029Y016480D01*
X009029Y016380D01*
X009129Y016380D01*
X009129Y016480D01*
X009544Y016480D01*
X009544Y016804D01*
X009534Y016842D01*
X009529Y016850D01*
X009696Y016850D01*
X009696Y016005D01*
X009796Y015906D01*
X010567Y015906D01*
X010666Y016005D01*
X010666Y016100D01*
X010897Y016100D01*
X010897Y015862D01*
X010997Y015762D01*
X011531Y015762D01*
X011631Y015862D01*
X011631Y017066D01*
X011531Y017165D01*
X010997Y017165D01*
X010897Y017066D01*
X010897Y016760D01*
X010666Y016760D01*
X010666Y016855D01*
X010567Y016954D01*
X010508Y016954D01*
X010460Y017069D01*
X010113Y017414D01*
X010067Y017460D01*
X010066Y017460D01*
X010066Y017460D01*
X010006Y017485D01*
X009946Y017510D01*
X009945Y017510D01*
X009944Y017510D01*
X009879Y017510D01*
X008950Y017510D01*
X008950Y018223D01*
X008878Y018396D01*
X008915Y018307D02*
X010976Y018307D01*
X010976Y018209D02*
X008950Y018209D01*
X008950Y018110D02*
X010976Y018110D01*
X010976Y018012D02*
X008950Y018012D01*
X008950Y017913D02*
X010976Y017913D01*
X010976Y017815D02*
X008950Y017815D01*
X008950Y017716D02*
X010976Y017716D01*
X010978Y017618D02*
X008950Y017618D01*
X008950Y017519D02*
X011044Y017519D01*
X010956Y017125D02*
X010404Y017125D01*
X010478Y017027D02*
X010897Y017027D01*
X010897Y016928D02*
X010593Y016928D01*
X010666Y016830D02*
X010897Y016830D01*
X010305Y017224D02*
X014215Y017224D01*
X014071Y017125D02*
X013382Y017125D01*
X013442Y017027D02*
X013973Y017027D01*
X013874Y016928D02*
X013442Y016928D01*
X013442Y016830D02*
X013776Y016830D01*
X013470Y016731D02*
X013442Y016731D01*
X012767Y017125D02*
X011571Y017125D01*
X011631Y017027D02*
X012708Y017027D01*
X012708Y016928D02*
X011631Y016928D01*
X011631Y016830D02*
X012708Y016830D01*
X012708Y016731D02*
X011631Y016731D01*
X011631Y016633D02*
X012708Y016633D01*
X012708Y016534D02*
X011631Y016534D01*
X011631Y016436D02*
X012708Y016436D01*
X012708Y016337D02*
X011631Y016337D01*
X011631Y016239D02*
X012708Y016239D01*
X012708Y016140D02*
X011631Y016140D01*
X011631Y016042D02*
X012708Y016042D01*
X012708Y015943D02*
X011631Y015943D01*
X011613Y015845D02*
X012725Y015845D01*
X012792Y015746D02*
X007727Y015746D01*
X007727Y015648D02*
X012694Y015648D01*
X012595Y015549D02*
X007727Y015549D01*
X007727Y015451D02*
X012497Y015451D01*
X012398Y015352D02*
X007686Y015352D01*
X007727Y015845D02*
X010914Y015845D01*
X010897Y015943D02*
X010604Y015943D01*
X010666Y016042D02*
X010897Y016042D01*
X009758Y015943D02*
X009464Y015943D01*
X009452Y015936D02*
X009486Y015956D01*
X009514Y015984D01*
X009534Y016018D01*
X009544Y016056D01*
X009544Y016380D01*
X009129Y016380D01*
X009129Y015926D01*
X009414Y015926D01*
X009452Y015936D01*
X009540Y016042D02*
X009696Y016042D01*
X009696Y016140D02*
X009544Y016140D01*
X009544Y016239D02*
X009696Y016239D01*
X009696Y016337D02*
X009544Y016337D01*
X009696Y016436D02*
X009129Y016436D01*
X009129Y016337D02*
X009029Y016337D01*
X009029Y016380D02*
X009029Y015926D01*
X008744Y015926D01*
X008706Y015936D01*
X008672Y015956D01*
X008644Y015984D01*
X008624Y016018D01*
X008614Y016056D01*
X008614Y016380D01*
X009029Y016380D01*
X009029Y016436D02*
X007727Y016436D01*
X007727Y016534D02*
X008614Y016534D01*
X008614Y016633D02*
X007727Y016633D01*
X007727Y016725D02*
X007717Y016763D01*
X007697Y016797D01*
X007669Y016825D01*
X007635Y016845D01*
X007597Y016855D01*
X007428Y016855D01*
X007428Y016128D01*
X007727Y016128D01*
X007727Y016725D01*
X007725Y016731D02*
X008614Y016731D01*
X008621Y016830D02*
X007661Y016830D01*
X007428Y016830D02*
X007332Y016830D01*
X007332Y016855D02*
X007163Y016855D01*
X007125Y016845D01*
X007091Y016825D01*
X007063Y016797D01*
X007043Y016763D01*
X007033Y016725D01*
X007033Y016128D01*
X007332Y016128D01*
X007332Y016855D01*
X007332Y016731D02*
X007428Y016731D01*
X007428Y016633D02*
X007332Y016633D01*
X007332Y016534D02*
X007428Y016534D01*
X007428Y016436D02*
X007332Y016436D01*
X007332Y016337D02*
X007428Y016337D01*
X007428Y016239D02*
X007332Y016239D01*
X007332Y016140D02*
X007428Y016140D01*
X007428Y016042D02*
X008618Y016042D01*
X008614Y016140D02*
X007727Y016140D01*
X007727Y016239D02*
X008614Y016239D01*
X008614Y016337D02*
X007727Y016337D01*
X007727Y015943D02*
X008694Y015943D01*
X009029Y015943D02*
X009129Y015943D01*
X009129Y016042D02*
X009029Y016042D01*
X009029Y016140D02*
X009129Y016140D01*
X009129Y016239D02*
X009029Y016239D01*
X009544Y016534D02*
X009696Y016534D01*
X009696Y016633D02*
X009544Y016633D01*
X009544Y016731D02*
X009696Y016731D01*
X009696Y016830D02*
X009537Y016830D01*
X010106Y017421D02*
X014392Y017421D01*
X014380Y017519D02*
X013295Y017519D01*
X013361Y017618D02*
X014380Y017618D01*
X014380Y017716D02*
X013363Y017716D01*
X013363Y018504D02*
X014579Y018504D01*
X014780Y018504D02*
X014880Y018504D01*
X014880Y018406D02*
X014780Y018406D01*
X014780Y018307D02*
X014880Y018307D01*
X014880Y018209D02*
X014780Y018209D01*
X014780Y018110D02*
X014880Y018110D01*
X014880Y018012D02*
X014780Y018012D01*
X015186Y018406D02*
X015441Y018406D01*
X015395Y018307D02*
X015245Y018307D01*
X015273Y018209D02*
X015360Y018209D01*
X015360Y018110D02*
X015280Y018110D01*
X015280Y018012D02*
X015360Y018012D01*
X015360Y017913D02*
X015280Y017913D01*
X015081Y018504D02*
X015539Y018504D01*
X016121Y018504D02*
X018313Y018504D01*
X018315Y018506D02*
X018295Y018472D01*
X018285Y018434D01*
X018285Y018169D01*
X018680Y018169D01*
X018680Y018564D01*
X018415Y018564D01*
X018377Y018554D01*
X018343Y018534D01*
X018315Y018506D01*
X018285Y018406D02*
X016219Y018406D01*
X016265Y018307D02*
X018285Y018307D01*
X018285Y018209D02*
X016300Y018209D01*
X016300Y018110D02*
X018680Y018110D01*
X018680Y018069D02*
X018285Y018069D01*
X018285Y017804D01*
X018295Y017766D01*
X018315Y017732D01*
X018343Y017704D01*
X018377Y017684D01*
X018415Y017674D01*
X018680Y017674D01*
X018680Y018069D01*
X018680Y018169D01*
X018780Y018169D01*
X018780Y018564D01*
X019045Y018564D01*
X019083Y018554D01*
X019117Y018534D01*
X019145Y018506D01*
X019165Y018472D01*
X019175Y018434D01*
X019175Y018169D01*
X018780Y018169D01*
X018780Y018069D01*
X019175Y018069D01*
X019175Y017804D01*
X019165Y017766D01*
X019145Y017732D01*
X019117Y017704D01*
X019083Y017684D01*
X019045Y017674D01*
X018780Y017674D01*
X018780Y018069D01*
X018680Y018069D01*
X018680Y018012D02*
X018780Y018012D01*
X018780Y018110D02*
X019780Y018110D01*
X019780Y018012D02*
X019175Y018012D01*
X019175Y017913D02*
X019780Y017913D01*
X019780Y017815D02*
X019175Y017815D01*
X019130Y017716D02*
X019780Y017716D01*
X019780Y017618D02*
X016300Y017618D01*
X016300Y017716D02*
X018330Y017716D01*
X018285Y017815D02*
X016300Y017815D01*
X016300Y017913D02*
X018285Y017913D01*
X018285Y018012D02*
X016300Y018012D01*
X016300Y017519D02*
X019780Y017519D01*
X019780Y017421D02*
X016293Y017421D01*
X017138Y017322D02*
X017322Y017322D01*
X017305Y017224D02*
X017155Y017224D01*
X017155Y017125D02*
X017305Y017125D01*
X017305Y017027D02*
X017155Y017027D01*
X017155Y016928D02*
X017305Y016928D01*
X017305Y016830D02*
X017155Y016830D01*
X017155Y016731D02*
X017305Y016731D01*
X017305Y016633D02*
X017155Y016633D01*
X017155Y016534D02*
X017305Y016534D01*
X017324Y016436D02*
X017136Y016436D01*
X018275Y017125D02*
X018283Y017125D01*
X018275Y017224D02*
X019780Y017224D01*
X019780Y017322D02*
X018258Y017322D01*
X018680Y017716D02*
X018780Y017716D01*
X018780Y017815D02*
X018680Y017815D01*
X018680Y017913D02*
X018780Y017913D01*
X018780Y018209D02*
X018680Y018209D01*
X018680Y018307D02*
X018780Y018307D01*
X018780Y018406D02*
X018680Y018406D01*
X018680Y018504D02*
X018780Y018504D01*
X019147Y018504D02*
X019780Y018504D01*
X019780Y018406D02*
X019175Y018406D01*
X019175Y018307D02*
X019780Y018307D01*
X019780Y018209D02*
X019175Y018209D01*
X019780Y018603D02*
X013363Y018603D01*
X013363Y018701D02*
X019780Y018701D01*
X019780Y018800D02*
X017093Y018800D01*
X017195Y018898D02*
X019780Y018898D01*
X019780Y018997D02*
X017273Y018997D01*
X017314Y019095D02*
X019780Y019095D01*
X019780Y019194D02*
X017344Y019194D01*
X017344Y019292D02*
X019780Y019292D01*
X019780Y019391D02*
X017344Y019391D01*
X017304Y019489D02*
X019780Y019489D01*
X019780Y019588D02*
X017263Y019588D01*
X017171Y019686D02*
X019780Y019686D01*
X019780Y017125D02*
X019177Y017125D01*
X019195Y017027D02*
X019780Y017027D01*
X019780Y016928D02*
X019195Y016928D01*
X019195Y016830D02*
X019780Y016830D01*
X019780Y016731D02*
X019195Y016731D01*
X019195Y016633D02*
X019780Y016633D01*
X019780Y016534D02*
X019195Y016534D01*
X019195Y016436D02*
X019780Y016436D01*
X019780Y016337D02*
X019157Y016337D01*
X018963Y016239D02*
X019780Y016239D01*
X019780Y016140D02*
X018894Y016140D01*
X018872Y016118D02*
X018872Y016118D01*
X018795Y016042D02*
X019780Y016042D01*
X019780Y015943D02*
X018697Y015943D01*
X018565Y015845D02*
X019780Y015845D01*
X019780Y012791D02*
X018845Y012791D01*
X019032Y012693D02*
X019780Y012693D01*
X019780Y012594D02*
X019129Y012594D01*
X019170Y012496D02*
X019780Y012496D01*
X019780Y012397D02*
X019200Y012397D01*
X019200Y012299D02*
X019780Y012299D01*
X019780Y012200D02*
X019185Y012200D01*
X019144Y012102D02*
X019780Y012102D01*
X019780Y012003D02*
X019068Y012003D01*
X018931Y011905D02*
X019780Y011905D01*
X018480Y010723D02*
X018380Y010723D01*
X018380Y010624D02*
X018480Y010624D01*
X018480Y010526D02*
X018380Y010526D01*
X018380Y010230D02*
X018480Y010230D01*
X018480Y010132D02*
X018380Y010132D01*
X018380Y010033D02*
X018480Y010033D01*
X018480Y009935D02*
X018380Y009935D01*
X017777Y011018D02*
X017622Y011018D01*
X016748Y010329D02*
X016540Y010329D01*
X016564Y010230D02*
X016716Y010230D01*
X016716Y010132D02*
X016564Y010132D01*
X016564Y010033D02*
X016716Y010033D01*
X016716Y009935D02*
X016564Y009935D01*
X015970Y010427D02*
X015950Y010427D01*
X015950Y010526D02*
X015970Y010526D01*
X015970Y010624D02*
X015950Y010624D01*
X015950Y010723D02*
X015970Y010723D01*
X015970Y010821D02*
X015950Y010821D01*
X015590Y010427D02*
X015530Y010427D01*
X015530Y010329D02*
X015618Y010329D01*
X015594Y010230D02*
X015530Y010230D01*
X015530Y010132D02*
X015594Y010132D01*
X016356Y007866D02*
X017710Y007866D01*
X017778Y007768D02*
X016410Y007768D01*
X016410Y007669D02*
X017894Y007669D01*
X018380Y006980D02*
X018480Y006980D01*
X018480Y006881D02*
X018380Y006881D01*
X018380Y006783D02*
X018480Y006783D01*
X018480Y006684D02*
X018380Y006684D01*
X017990Y006290D02*
X019780Y006290D01*
X019780Y006192D02*
X018055Y006192D01*
X018055Y006093D02*
X019780Y006093D01*
X019780Y005995D02*
X018055Y005995D01*
X018055Y005896D02*
X019780Y005896D01*
X019780Y005798D02*
X018055Y005798D01*
X018055Y005699D02*
X019780Y005699D01*
X019780Y005601D02*
X018055Y005601D01*
X018055Y005502D02*
X019780Y005502D01*
X019780Y005404D02*
X018004Y005404D01*
X018052Y005108D02*
X019780Y005108D01*
X019780Y005010D02*
X018055Y005010D01*
X018055Y004911D02*
X019780Y004911D01*
X019780Y004813D02*
X018055Y004813D01*
X018055Y004714D02*
X019780Y004714D01*
X019780Y004616D02*
X018055Y004616D01*
X018055Y004517D02*
X019780Y004517D01*
X019780Y004419D02*
X018055Y004419D01*
X018040Y004320D02*
X019780Y004320D01*
X019780Y004222D02*
X017730Y004222D01*
X017730Y004123D02*
X019780Y004123D01*
X019780Y004025D02*
X017730Y004025D01*
X017788Y003926D02*
X019780Y003926D01*
X019780Y003828D02*
X018997Y003828D01*
X019096Y003729D02*
X019780Y003729D01*
X019780Y003631D02*
X019156Y003631D01*
X019196Y003532D02*
X019780Y003532D01*
X019780Y003434D02*
X019200Y003434D01*
X019199Y003335D02*
X019780Y003335D01*
X019780Y003237D02*
X019159Y003237D01*
X019103Y003138D02*
X019780Y003138D01*
X019780Y003040D02*
X019004Y003040D01*
X018962Y002843D02*
X019780Y002843D01*
X019780Y002941D02*
X017930Y002941D01*
X017841Y002055D02*
X017808Y002055D01*
X017605Y001956D02*
X019780Y001956D01*
X019780Y001858D02*
X018871Y001858D01*
X018903Y001847D02*
X018835Y001869D01*
X018765Y001880D01*
X018480Y001880D01*
X018480Y001480D01*
X018380Y001480D01*
X018380Y001880D01*
X018095Y001880D01*
X018025Y001869D01*
X017957Y001847D01*
X017894Y001815D01*
X017837Y001773D01*
X017787Y001723D01*
X017745Y001666D01*
X017713Y001603D01*
X017691Y001535D01*
X017682Y001480D01*
X018380Y001480D01*
X018380Y001380D01*
X018480Y001380D01*
X018480Y001480D01*
X019178Y001480D01*
X019169Y001535D01*
X019147Y001603D01*
X019115Y001666D01*
X019073Y001723D01*
X019023Y001773D01*
X018966Y001815D01*
X018903Y001847D01*
X019037Y001759D02*
X019780Y001759D01*
X019780Y001661D02*
X019118Y001661D01*
X019160Y001562D02*
X019780Y001562D01*
X019780Y001464D02*
X018480Y001464D01*
X018480Y001380D02*
X019178Y001380D01*
X019169Y001325D01*
X019147Y001257D01*
X019115Y001194D01*
X019073Y001137D01*
X019023Y001087D01*
X018966Y001045D01*
X018903Y001013D01*
X018835Y000991D01*
X018765Y000980D01*
X018480Y000980D01*
X018480Y001380D01*
X018480Y001365D02*
X018380Y001365D01*
X018380Y001380D02*
X018380Y000980D01*
X018095Y000980D01*
X018025Y000991D01*
X017957Y001013D01*
X017894Y001045D01*
X017837Y001087D01*
X017787Y001137D01*
X017745Y001194D01*
X017713Y001257D01*
X017691Y001325D01*
X017682Y001380D01*
X018380Y001380D01*
X018380Y001464D02*
X016476Y001464D01*
X016480Y001468D02*
X016500Y001502D01*
X016510Y001540D01*
X016510Y001670D01*
X016070Y001670D01*
X016070Y001410D01*
X016380Y001410D01*
X016418Y001420D01*
X016452Y001440D01*
X016480Y001468D01*
X016510Y001562D02*
X017700Y001562D01*
X017742Y001661D02*
X016510Y001661D01*
X016510Y001759D02*
X016631Y001759D01*
X016555Y001858D02*
X016500Y001858D01*
X016496Y001956D02*
X016555Y001956D01*
X016070Y001661D02*
X016050Y001661D01*
X016050Y001562D02*
X016070Y001562D01*
X016070Y001464D02*
X016050Y001464D01*
X015280Y001365D02*
X017685Y001365D01*
X017710Y001267D02*
X015280Y001267D01*
X015280Y001168D02*
X017764Y001168D01*
X017861Y001070D02*
X015280Y001070D01*
X015280Y000971D02*
X019780Y000971D01*
X019780Y000873D02*
X015280Y000873D01*
X015280Y000774D02*
X019780Y000774D01*
X019780Y000676D02*
X015280Y000676D01*
X015280Y000577D02*
X019780Y000577D01*
X019780Y001070D02*
X018999Y001070D01*
X019096Y001168D02*
X019780Y001168D01*
X019780Y001267D02*
X019150Y001267D01*
X019175Y001365D02*
X019780Y001365D01*
X019780Y002055D02*
X019019Y002055D01*
X019118Y002153D02*
X019780Y002153D01*
X019780Y002252D02*
X019165Y002252D01*
X019200Y002350D02*
X019780Y002350D01*
X019780Y002449D02*
X019200Y002449D01*
X019190Y002547D02*
X019780Y002547D01*
X019780Y002646D02*
X019149Y002646D01*
X019081Y002744D02*
X019780Y002744D01*
X018480Y001858D02*
X018380Y001858D01*
X018380Y001759D02*
X018480Y001759D01*
X018480Y001661D02*
X018380Y001661D01*
X018380Y001562D02*
X018480Y001562D01*
X018480Y001267D02*
X018380Y001267D01*
X018380Y001168D02*
X018480Y001168D01*
X018480Y001070D02*
X018380Y001070D01*
X017823Y001759D02*
X017529Y001759D01*
X017605Y001858D02*
X017989Y001858D01*
X016530Y004714D02*
X016526Y004714D01*
X017030Y005207D02*
X019780Y005207D01*
X019780Y005305D02*
X017030Y005305D01*
X017030Y005404D02*
X017056Y005404D01*
X019170Y007177D02*
X019780Y007177D01*
X019780Y007275D02*
X019136Y007275D01*
X019073Y007374D02*
X019780Y007374D01*
X019780Y007472D02*
X018952Y007472D01*
X014473Y013087D02*
X013966Y013087D01*
X013966Y013185D02*
X014375Y013185D01*
X014276Y013284D02*
X013966Y013284D01*
X013939Y013382D02*
X014178Y013382D01*
X013882Y013678D02*
X006736Y013678D01*
X007727Y012693D02*
X007740Y012693D01*
X007727Y012496D02*
X007737Y012496D01*
X008130Y012693D02*
X008230Y012693D01*
X008230Y012791D02*
X008130Y012791D01*
X008130Y012890D02*
X008230Y012890D01*
X008230Y012988D02*
X008130Y012988D01*
X008758Y011905D02*
X008763Y011905D01*
X005880Y010271D02*
X005880Y010271D01*
X006667Y009147D02*
X010854Y009147D01*
X011128Y007866D02*
X003930Y007866D01*
X005644Y006290D02*
X007880Y006290D01*
X007880Y006192D02*
X005545Y006192D01*
X005447Y006093D02*
X007880Y006093D01*
X007880Y005995D02*
X005348Y005995D01*
X005250Y005896D02*
X007880Y005896D01*
X007880Y005798D02*
X007683Y005798D01*
X007700Y005699D02*
X007880Y005699D01*
X007880Y005601D02*
X007700Y005601D01*
X007700Y005010D02*
X007880Y005010D01*
X007880Y004911D02*
X007700Y004911D01*
X007633Y004813D02*
X007880Y004813D01*
X007880Y004714D02*
X005030Y004714D01*
X005030Y004813D02*
X005327Y004813D01*
X005260Y004911D02*
X005030Y004911D01*
X005030Y005010D02*
X005260Y005010D01*
X005260Y005108D02*
X005030Y005108D01*
X005030Y005207D02*
X005260Y005207D01*
X005260Y005305D02*
X005030Y005305D01*
X005030Y005404D02*
X005260Y005404D01*
X005260Y005502D02*
X005030Y005502D01*
X005030Y005601D02*
X005260Y005601D01*
X005260Y005699D02*
X005053Y005699D01*
X005151Y005798D02*
X005277Y005798D01*
X005742Y006389D02*
X007880Y006389D01*
X006901Y006487D02*
X006859Y006487D01*
X006401Y006487D02*
X006359Y006487D01*
X005901Y006487D02*
X005859Y006487D01*
X005098Y004616D02*
X007880Y004616D01*
X007880Y004517D02*
X005197Y004517D01*
X005295Y004419D02*
X007880Y004419D01*
X007868Y004320D02*
X005393Y004320D01*
X005049Y003138D02*
X011268Y003138D01*
X011335Y003040D02*
X005005Y003040D01*
X005005Y002941D02*
X011335Y002941D01*
X011347Y002843D02*
X006137Y002843D01*
X006145Y002744D02*
X011630Y002744D01*
X011630Y002646D02*
X006145Y002646D01*
X006145Y002547D02*
X011630Y002547D01*
X011664Y002449D02*
X006145Y002449D01*
X006145Y002350D02*
X011756Y002350D01*
X011855Y002252D02*
X006145Y002252D01*
X006145Y002153D02*
X011953Y002153D01*
X012052Y002055D02*
X006096Y002055D01*
X005264Y002055D02*
X002696Y002055D01*
X002745Y002153D02*
X005215Y002153D01*
X005215Y002252D02*
X002745Y002252D01*
X002745Y002350D02*
X003140Y002350D01*
X003055Y002941D02*
X000550Y002941D01*
X000550Y002843D02*
X001823Y002843D01*
X001815Y002744D02*
X000550Y002744D01*
X000550Y002646D02*
X001815Y002646D01*
X001815Y002547D02*
X000550Y002547D01*
X000550Y002449D02*
X001815Y002449D01*
X001815Y002350D02*
X000550Y002350D01*
X000550Y002252D02*
X001815Y002252D01*
X001815Y002153D02*
X000550Y002153D01*
X000550Y002055D02*
X001864Y002055D01*
X002230Y001464D02*
X002330Y001464D01*
X002330Y001365D02*
X002230Y001365D01*
X002230Y001267D02*
X002330Y001267D01*
X004020Y002350D02*
X004040Y002350D01*
X003055Y003040D02*
X000550Y003040D01*
X000550Y003138D02*
X001134Y003138D01*
X001179Y003094D02*
X000894Y003379D01*
X000894Y003530D01*
X001330Y003530D01*
X001330Y003630D01*
X001330Y004066D01*
X001179Y004066D01*
X000894Y003781D01*
X000894Y003630D01*
X001330Y003630D01*
X001430Y003630D01*
X001430Y004066D01*
X001581Y004066D01*
X001866Y003781D01*
X001866Y003630D01*
X001430Y003630D01*
X001430Y003530D01*
X001866Y003530D01*
X001866Y003379D01*
X001581Y003094D01*
X001430Y003094D01*
X001430Y003530D01*
X001330Y003530D01*
X001330Y003094D01*
X001179Y003094D01*
X001330Y003138D02*
X001430Y003138D01*
X001430Y003237D02*
X001330Y003237D01*
X001330Y003335D02*
X001430Y003335D01*
X001430Y003434D02*
X001330Y003434D01*
X001330Y003532D02*
X000550Y003532D01*
X000550Y003434D02*
X000894Y003434D01*
X000937Y003335D02*
X000550Y003335D01*
X000550Y003237D02*
X001036Y003237D01*
X000894Y003631D02*
X000550Y003631D01*
X000550Y003729D02*
X000894Y003729D01*
X000940Y003828D02*
X000550Y003828D01*
X000550Y003926D02*
X001038Y003926D01*
X001137Y004025D02*
X000550Y004025D01*
X000550Y004123D02*
X001149Y004123D01*
X001179Y004094D02*
X000894Y004379D01*
X000894Y004530D01*
X001330Y004530D01*
X001330Y004630D01*
X001330Y005066D01*
X001179Y005066D01*
X000894Y004781D01*
X000894Y004630D01*
X001330Y004630D01*
X001430Y004630D01*
X001430Y005066D01*
X001581Y005066D01*
X001866Y004781D01*
X001866Y004630D01*
X001430Y004630D01*
X001430Y004530D01*
X001866Y004530D01*
X001866Y004379D01*
X001581Y004094D01*
X001430Y004094D01*
X001430Y004530D01*
X001330Y004530D01*
X001330Y004094D01*
X001179Y004094D01*
X001330Y004123D02*
X001430Y004123D01*
X001430Y004025D02*
X001330Y004025D01*
X001330Y003926D02*
X001430Y003926D01*
X001430Y003828D02*
X001330Y003828D01*
X001330Y003729D02*
X001430Y003729D01*
X001430Y003631D02*
X001330Y003631D01*
X001430Y003532D02*
X001874Y003532D01*
X001866Y003434D02*
X001874Y003434D01*
X001909Y003335D02*
X001823Y003335D01*
X001724Y003237D02*
X002008Y003237D01*
X002106Y003138D02*
X001626Y003138D01*
X001866Y003631D02*
X001874Y003631D01*
X001866Y003729D02*
X001874Y003729D01*
X001912Y003828D02*
X001820Y003828D01*
X001722Y003926D02*
X002010Y003926D01*
X002109Y004025D02*
X001623Y004025D01*
X001611Y004123D02*
X002121Y004123D01*
X002023Y004222D02*
X001709Y004222D01*
X001808Y004320D02*
X001924Y004320D01*
X001874Y004419D02*
X001866Y004419D01*
X001866Y004517D02*
X001874Y004517D01*
X001874Y004616D02*
X001430Y004616D01*
X001430Y004714D02*
X001330Y004714D01*
X001330Y004616D02*
X000550Y004616D01*
X000550Y004714D02*
X000894Y004714D01*
X000925Y004813D02*
X000550Y004813D01*
X000550Y004911D02*
X001023Y004911D01*
X001122Y005010D02*
X000550Y005010D01*
X000550Y005108D02*
X001164Y005108D01*
X001179Y005094D02*
X001330Y005094D01*
X001330Y005530D01*
X000894Y005530D01*
X000894Y005379D01*
X001179Y005094D01*
X001330Y005108D02*
X001430Y005108D01*
X001430Y005010D02*
X001330Y005010D01*
X001330Y004911D02*
X001430Y004911D01*
X001430Y004813D02*
X001330Y004813D01*
X001330Y004517D02*
X001430Y004517D01*
X001430Y004419D02*
X001330Y004419D01*
X001330Y004320D02*
X001430Y004320D01*
X001430Y004222D02*
X001330Y004222D01*
X001051Y004222D02*
X000550Y004222D01*
X000550Y004320D02*
X000952Y004320D01*
X000894Y004419D02*
X000550Y004419D01*
X000550Y004517D02*
X000894Y004517D01*
X001066Y005207D02*
X000550Y005207D01*
X000550Y005305D02*
X000967Y005305D01*
X000894Y005404D02*
X000550Y005404D01*
X000550Y005502D02*
X000894Y005502D01*
X000894Y005699D02*
X000550Y005699D01*
X000550Y005601D02*
X001330Y005601D01*
X001330Y005699D02*
X001430Y005699D01*
X001430Y005798D02*
X001330Y005798D01*
X001330Y005896D02*
X001430Y005896D01*
X001430Y005995D02*
X001330Y005995D01*
X001330Y006094D02*
X001179Y006094D01*
X000894Y006379D01*
X000894Y006530D01*
X001330Y006530D01*
X001330Y006094D01*
X001330Y006192D02*
X001430Y006192D01*
X001430Y006290D02*
X001330Y006290D01*
X001330Y006389D02*
X001430Y006389D01*
X001430Y006487D02*
X001330Y006487D01*
X001330Y006586D02*
X000550Y006586D01*
X000550Y006684D02*
X000894Y006684D01*
X000895Y006783D02*
X000550Y006783D01*
X000550Y006881D02*
X000993Y006881D01*
X001092Y006980D02*
X000550Y006980D01*
X000550Y007078D02*
X001660Y007078D01*
X001430Y006980D02*
X001330Y006980D01*
X001330Y006881D02*
X001430Y006881D01*
X001430Y006783D02*
X001330Y006783D01*
X001330Y006684D02*
X001430Y006684D01*
X001330Y007094D02*
X001179Y007094D01*
X000894Y007379D01*
X000894Y007530D01*
X001330Y007530D01*
X001330Y007094D01*
X001330Y007177D02*
X001430Y007177D01*
X001430Y007275D02*
X001330Y007275D01*
X001330Y007374D02*
X001430Y007374D01*
X001430Y007472D02*
X001330Y007472D01*
X001330Y007571D02*
X000550Y007571D01*
X000550Y007669D02*
X000894Y007669D01*
X000894Y007768D02*
X000550Y007768D01*
X000550Y007866D02*
X000978Y007866D01*
X001077Y007965D02*
X000550Y007965D01*
X000550Y008063D02*
X001175Y008063D01*
X001083Y008162D02*
X000550Y008162D01*
X000550Y008260D02*
X000984Y008260D01*
X000886Y008359D02*
X000550Y008359D01*
X000550Y008457D02*
X000874Y008457D01*
X000874Y008556D02*
X000550Y008556D01*
X000550Y008654D02*
X000874Y008654D01*
X000874Y008753D02*
X000550Y008753D01*
X000550Y008851D02*
X000935Y008851D01*
X001034Y008950D02*
X000550Y008950D01*
X000550Y009048D02*
X001132Y009048D01*
X001098Y009147D02*
X000550Y009147D01*
X000550Y009245D02*
X000999Y009245D01*
X000901Y009344D02*
X000550Y009344D01*
X000550Y009442D02*
X000874Y009442D01*
X000874Y009541D02*
X000550Y009541D01*
X000550Y009639D02*
X000874Y009639D01*
X000874Y009738D02*
X000550Y009738D01*
X000550Y009836D02*
X000920Y009836D01*
X001019Y009935D02*
X000550Y009935D01*
X000550Y010033D02*
X001117Y010033D01*
X001130Y010132D02*
X000550Y010132D01*
X000550Y010230D02*
X001130Y010230D01*
X001130Y010329D02*
X000550Y010329D01*
X000550Y010427D02*
X001130Y010427D01*
X001166Y010526D02*
X000550Y010526D01*
X000564Y010624D02*
X001261Y010624D01*
X001359Y010723D02*
X000663Y010723D01*
X000761Y010821D02*
X001458Y010821D01*
X001556Y010920D02*
X000860Y010920D01*
X000958Y011018D02*
X001585Y011018D01*
X001585Y011117D02*
X001050Y011117D01*
X001050Y011215D02*
X001585Y011215D01*
X001585Y011314D02*
X001050Y011314D01*
X001050Y011412D02*
X001585Y011412D01*
X001590Y011511D02*
X001050Y011511D01*
X001050Y011609D02*
X001836Y011609D01*
X001904Y011708D02*
X001050Y011708D01*
X001050Y011806D02*
X002002Y011806D01*
X002101Y011905D02*
X001050Y011905D01*
X001050Y012003D02*
X002199Y012003D01*
X002179Y012102D02*
X001050Y012102D01*
X001050Y012200D02*
X002115Y012200D01*
X002114Y012299D02*
X001050Y012299D01*
X001050Y012397D02*
X002114Y012397D01*
X002114Y012496D02*
X001050Y012496D01*
X001050Y012594D02*
X002529Y012594D01*
X002529Y012693D02*
X002629Y012693D01*
X002629Y012791D02*
X002529Y012791D01*
X002529Y012890D02*
X002629Y012890D01*
X002629Y012988D02*
X002529Y012988D01*
X002123Y012988D02*
X001050Y012988D01*
X001050Y012890D02*
X002114Y012890D01*
X002114Y012791D02*
X001050Y012791D01*
X001050Y012693D02*
X002114Y012693D01*
X002629Y012594D02*
X003196Y012594D01*
X003196Y012496D02*
X003044Y012496D01*
X003044Y012397D02*
X003196Y012397D01*
X003196Y012299D02*
X003044Y012299D01*
X003042Y012200D02*
X003196Y012200D01*
X003250Y012102D02*
X002979Y012102D01*
X003044Y012693D02*
X003196Y012693D01*
X003196Y012791D02*
X003044Y012791D01*
X003044Y012890D02*
X003196Y012890D01*
X003196Y012988D02*
X003035Y012988D01*
X003278Y013087D02*
X001050Y013087D01*
X001050Y013185D02*
X004013Y013185D01*
X004021Y013284D02*
X001050Y013284D01*
X001050Y013382D02*
X004428Y013382D01*
X004527Y013481D02*
X001050Y013481D01*
X001050Y013579D02*
X004625Y013579D01*
X004724Y013678D02*
X001050Y013678D01*
X001050Y015254D02*
X004410Y015254D01*
X004046Y015352D02*
X003863Y015352D01*
X003916Y015451D02*
X004013Y015451D01*
X004013Y015549D02*
X003916Y015549D01*
X003916Y015648D02*
X004013Y015648D01*
X004013Y015746D02*
X003916Y015746D01*
X002946Y015746D02*
X002794Y015746D01*
X002794Y015780D02*
X002379Y015780D01*
X002379Y015880D01*
X002794Y015880D01*
X002794Y016204D01*
X002784Y016242D01*
X002764Y016276D01*
X002745Y016295D01*
X002755Y016305D01*
X002755Y017155D01*
X002688Y017223D01*
X002728Y017264D01*
X002800Y017437D01*
X002800Y018223D01*
X002728Y018396D01*
X002596Y018528D01*
X002423Y018600D01*
X002237Y018600D01*
X002064Y018528D01*
X001932Y018396D01*
X001860Y018223D01*
X001860Y017437D01*
X001932Y017264D01*
X001940Y017255D01*
X001885Y017255D01*
X001785Y017155D01*
X001785Y016305D01*
X001868Y016221D01*
X001864Y016204D01*
X001864Y015880D01*
X002279Y015880D01*
X002279Y015780D01*
X002379Y015780D01*
X002379Y015326D01*
X002664Y015326D01*
X002702Y015336D01*
X002736Y015356D01*
X002764Y015384D01*
X002784Y015418D01*
X002794Y015456D01*
X002794Y015780D01*
X002794Y015648D02*
X002946Y015648D01*
X002946Y015549D02*
X002794Y015549D01*
X002792Y015451D02*
X002946Y015451D01*
X002999Y015352D02*
X002730Y015352D01*
X002379Y015352D02*
X002279Y015352D01*
X002279Y015326D02*
X002279Y015780D01*
X001864Y015780D01*
X001864Y015456D01*
X001874Y015418D01*
X001894Y015384D01*
X001922Y015356D01*
X001956Y015336D01*
X001994Y015326D01*
X002279Y015326D01*
X002279Y015451D02*
X002379Y015451D01*
X002379Y015549D02*
X002279Y015549D01*
X002279Y015648D02*
X002379Y015648D01*
X002379Y015746D02*
X002279Y015746D01*
X002279Y015845D02*
X001050Y015845D01*
X001050Y015943D02*
X001864Y015943D01*
X001864Y016042D02*
X001050Y016042D01*
X001050Y016140D02*
X001864Y016140D01*
X001851Y016239D02*
X001050Y016239D01*
X001050Y016337D02*
X001785Y016337D01*
X001785Y016436D02*
X001050Y016436D01*
X001050Y016534D02*
X001785Y016534D01*
X001785Y016633D02*
X001050Y016633D01*
X001050Y016731D02*
X001785Y016731D01*
X001785Y016830D02*
X001050Y016830D01*
X001050Y016928D02*
X001785Y016928D01*
X001785Y017027D02*
X001050Y017027D01*
X001050Y017125D02*
X001785Y017125D01*
X001853Y017224D02*
X001050Y017224D01*
X001050Y017322D02*
X001907Y017322D01*
X001867Y017421D02*
X001050Y017421D01*
X001050Y017519D02*
X001860Y017519D01*
X001860Y017618D02*
X001050Y017618D01*
X001050Y017716D02*
X001860Y017716D01*
X001860Y017815D02*
X001050Y017815D01*
X001050Y017913D02*
X001860Y017913D01*
X001860Y018012D02*
X001050Y018012D01*
X001050Y018110D02*
X001860Y018110D01*
X001860Y018209D02*
X001050Y018209D01*
X001050Y018307D02*
X001895Y018307D01*
X001941Y018406D02*
X001050Y018406D01*
X001050Y018504D02*
X002039Y018504D01*
X002621Y018504D02*
X003039Y018504D01*
X003089Y018603D02*
X001050Y018603D01*
X001050Y018701D02*
X003147Y018701D01*
X003246Y018800D02*
X001050Y018800D01*
X001050Y018898D02*
X004065Y018898D01*
X004014Y018800D02*
X004167Y018800D01*
X004113Y018701D02*
X004847Y018701D01*
X004793Y018800D02*
X004946Y018800D01*
X004895Y018898D02*
X005044Y018898D01*
X004973Y018997D02*
X005150Y018997D01*
X005014Y019095D02*
X008746Y019095D01*
X008716Y019194D02*
X005044Y019194D01*
X005044Y019292D02*
X008716Y019292D01*
X008716Y019391D02*
X005044Y019391D01*
X005004Y019489D02*
X008756Y019489D01*
X008797Y019588D02*
X004963Y019588D01*
X004871Y019686D02*
X008889Y019686D01*
X008787Y018997D02*
X006310Y018997D01*
X006416Y018898D02*
X008865Y018898D01*
X008967Y018800D02*
X006514Y018800D01*
X006613Y018701D02*
X010976Y018701D01*
X010976Y018603D02*
X006700Y018603D01*
X006771Y018504D02*
X007229Y018504D01*
X007244Y018515D02*
X007187Y018473D01*
X007137Y018423D01*
X007095Y018366D01*
X007063Y018303D01*
X007041Y018235D01*
X007030Y018165D01*
X007030Y017880D01*
X007430Y017880D01*
X007430Y018578D01*
X007375Y018569D01*
X007307Y018547D01*
X007244Y018515D01*
X007124Y018406D02*
X006869Y018406D01*
X006915Y018307D02*
X007065Y018307D01*
X007037Y018209D02*
X006950Y018209D01*
X006950Y018110D02*
X007030Y018110D01*
X007030Y018012D02*
X006950Y018012D01*
X006950Y017913D02*
X007030Y017913D01*
X006950Y017815D02*
X007430Y017815D01*
X007430Y017780D02*
X007030Y017780D01*
X007030Y017495D01*
X007041Y017425D01*
X007063Y017357D01*
X007095Y017294D01*
X007137Y017237D01*
X007187Y017187D01*
X007244Y017145D01*
X007307Y017113D01*
X007375Y017091D01*
X007430Y017082D01*
X007430Y017780D01*
X007530Y017780D01*
X007530Y017880D01*
X007930Y017880D01*
X007930Y018165D01*
X007919Y018235D01*
X007897Y018303D01*
X007865Y018366D01*
X007823Y018423D01*
X007773Y018473D01*
X007716Y018515D01*
X007653Y018547D01*
X007585Y018569D01*
X007530Y018578D01*
X007530Y017880D01*
X007430Y017880D01*
X007430Y017780D01*
X007430Y017716D02*
X007530Y017716D01*
X007530Y017780D02*
X007530Y017082D01*
X007585Y017091D01*
X007653Y017113D01*
X007716Y017145D01*
X007773Y017187D01*
X007823Y017237D01*
X007865Y017294D01*
X007897Y017357D01*
X007919Y017425D01*
X007930Y017495D01*
X007930Y017780D01*
X007530Y017780D01*
X007530Y017815D02*
X008010Y017815D01*
X008010Y017913D02*
X007930Y017913D01*
X007930Y018012D02*
X008010Y018012D01*
X008010Y018110D02*
X007930Y018110D01*
X007923Y018209D02*
X008010Y018209D01*
X008045Y018307D02*
X007895Y018307D01*
X007836Y018406D02*
X008091Y018406D01*
X008189Y018504D02*
X007731Y018504D01*
X007530Y018504D02*
X007430Y018504D01*
X007430Y018406D02*
X007530Y018406D01*
X007530Y018307D02*
X007430Y018307D01*
X007430Y018209D02*
X007530Y018209D01*
X007530Y018110D02*
X007430Y018110D01*
X007430Y018012D02*
X007530Y018012D01*
X007530Y017913D02*
X007430Y017913D01*
X007430Y017618D02*
X007530Y017618D01*
X007530Y017519D02*
X007430Y017519D01*
X007430Y017421D02*
X007530Y017421D01*
X007530Y017322D02*
X007430Y017322D01*
X007430Y017224D02*
X007530Y017224D01*
X007530Y017125D02*
X007430Y017125D01*
X007284Y017125D02*
X006731Y017125D01*
X006680Y017027D02*
X008186Y017027D01*
X008150Y017125D02*
X007676Y017125D01*
X007810Y017224D02*
X008122Y017224D01*
X008057Y017322D02*
X007879Y017322D01*
X007918Y017421D02*
X008017Y017421D01*
X008010Y017519D02*
X007930Y017519D01*
X007930Y017618D02*
X008010Y017618D01*
X008010Y017716D02*
X007930Y017716D01*
X008265Y016928D02*
X006630Y016928D01*
X006693Y016830D02*
X007099Y016830D01*
X007035Y016731D02*
X006747Y016731D01*
X006747Y016633D02*
X007033Y016633D01*
X007033Y016534D02*
X006747Y016534D01*
X006747Y016436D02*
X007033Y016436D01*
X007033Y016337D02*
X006747Y016337D01*
X006747Y016239D02*
X007033Y016239D01*
X007033Y016140D02*
X006747Y016140D01*
X006747Y016042D02*
X007332Y016042D01*
X007033Y015943D02*
X006747Y015943D01*
X006747Y015845D02*
X007033Y015845D01*
X007033Y015746D02*
X006747Y015746D01*
X006747Y015648D02*
X007033Y015648D01*
X007033Y015549D02*
X006747Y015549D01*
X006747Y015451D02*
X007033Y015451D01*
X007074Y015352D02*
X006714Y015352D01*
X006838Y017224D02*
X007150Y017224D01*
X007081Y017322D02*
X006903Y017322D01*
X006943Y017421D02*
X007042Y017421D01*
X007030Y017519D02*
X006950Y017519D01*
X006950Y017618D02*
X007030Y017618D01*
X007030Y017716D02*
X006950Y017716D01*
X008771Y018504D02*
X010976Y018504D01*
X010976Y018482D02*
X012119Y018482D01*
X012119Y019370D01*
X011106Y019370D01*
X011068Y019360D01*
X011034Y019340D01*
X011006Y019312D01*
X010986Y019278D01*
X010976Y019240D01*
X010976Y018482D01*
X010976Y018800D02*
X009593Y018800D01*
X009695Y018898D02*
X010976Y018898D01*
X010976Y018997D02*
X009773Y018997D01*
X009814Y019095D02*
X010976Y019095D01*
X010976Y019194D02*
X009844Y019194D01*
X009844Y019292D02*
X010995Y019292D01*
X012119Y019292D02*
X012219Y019292D01*
X012219Y019194D02*
X012119Y019194D01*
X012119Y019095D02*
X012219Y019095D01*
X012219Y018997D02*
X012119Y018997D01*
X012119Y018898D02*
X012219Y018898D01*
X012219Y018800D02*
X012119Y018800D01*
X012119Y018701D02*
X012219Y018701D01*
X012219Y018603D02*
X012119Y018603D01*
X012119Y018504D02*
X012219Y018504D01*
X012219Y018209D02*
X012119Y018209D01*
X012119Y018110D02*
X012219Y018110D01*
X012219Y018012D02*
X012119Y018012D01*
X012119Y017913D02*
X012219Y017913D01*
X012219Y017815D02*
X012119Y017815D01*
X012119Y017716D02*
X012219Y017716D01*
X012219Y017618D02*
X012119Y017618D01*
X012119Y017519D02*
X012219Y017519D01*
X013363Y018800D02*
X013567Y018800D01*
X013465Y018898D02*
X013363Y018898D01*
X013363Y018997D02*
X013387Y018997D01*
X013316Y019391D02*
X009844Y019391D01*
X009804Y019489D02*
X013356Y019489D01*
X013397Y019588D02*
X009763Y019588D01*
X009671Y019686D02*
X013489Y019686D01*
X014271Y019686D02*
X016389Y019686D01*
X016297Y019588D02*
X014363Y019588D01*
X014404Y019489D02*
X016256Y019489D01*
X016216Y019391D02*
X014444Y019391D01*
X014444Y019292D02*
X016216Y019292D01*
X016216Y019194D02*
X014444Y019194D01*
X014414Y019095D02*
X016246Y019095D01*
X016287Y018997D02*
X014373Y018997D01*
X014295Y018898D02*
X016365Y018898D01*
X016467Y018800D02*
X014193Y018800D01*
X014431Y017322D02*
X010205Y017322D01*
X004749Y018603D02*
X004211Y018603D01*
X003987Y018997D02*
X001050Y018997D01*
X001050Y019095D02*
X003946Y019095D01*
X003916Y019194D02*
X001050Y019194D01*
X001050Y019292D02*
X003916Y019292D01*
X003916Y019391D02*
X001050Y019391D01*
X001050Y019489D02*
X003956Y019489D01*
X003997Y019588D02*
X001050Y019588D01*
X001050Y019686D02*
X004089Y019686D01*
X002941Y018406D02*
X002719Y018406D01*
X002765Y018307D02*
X002895Y018307D01*
X002860Y018209D02*
X002800Y018209D01*
X002800Y018110D02*
X002860Y018110D01*
X002860Y018012D02*
X002800Y018012D01*
X002800Y017913D02*
X002860Y017913D01*
X002860Y017815D02*
X002800Y017815D01*
X002800Y017716D02*
X002860Y017716D01*
X002860Y017618D02*
X002800Y017618D01*
X002800Y017519D02*
X002860Y017519D01*
X002867Y017421D02*
X002793Y017421D01*
X002753Y017322D02*
X002907Y017322D01*
X002972Y017224D02*
X002688Y017224D01*
X002755Y017125D02*
X002905Y017125D01*
X002905Y017027D02*
X002755Y017027D01*
X002755Y016928D02*
X002905Y016928D01*
X002905Y016830D02*
X002755Y016830D01*
X002755Y016731D02*
X002905Y016731D01*
X002905Y016633D02*
X002755Y016633D01*
X002755Y016534D02*
X002905Y016534D01*
X002905Y016436D02*
X002755Y016436D01*
X002755Y016337D02*
X002905Y016337D01*
X002946Y016239D02*
X002785Y016239D01*
X002794Y016140D02*
X002946Y016140D01*
X002946Y016042D02*
X002794Y016042D01*
X002794Y015943D02*
X002946Y015943D01*
X002946Y015845D02*
X002379Y015845D01*
X001864Y015746D02*
X001050Y015746D01*
X001050Y015648D02*
X001864Y015648D01*
X001864Y015549D02*
X001050Y015549D01*
X001050Y015451D02*
X001865Y015451D01*
X001928Y015352D02*
X001050Y015352D01*
X001380Y009580D02*
X001880Y009080D01*
X001880Y005330D01*
X002130Y005080D01*
X003530Y005080D01*
X001988Y004911D02*
X001737Y004911D01*
X001835Y004813D02*
X001897Y004813D01*
X001874Y004714D02*
X001866Y004714D01*
X001889Y005010D02*
X001638Y005010D01*
X001596Y005108D02*
X001791Y005108D01*
X001430Y005207D02*
X001330Y005207D01*
X001330Y005305D02*
X001430Y005305D01*
X001430Y005404D02*
X001330Y005404D01*
X001330Y005502D02*
X001430Y005502D01*
X001653Y005995D02*
X001660Y005995D01*
X001660Y006093D02*
X000550Y006093D01*
X000550Y005995D02*
X001107Y005995D01*
X001008Y005896D02*
X000550Y005896D01*
X000550Y005798D02*
X000910Y005798D01*
X001081Y006192D02*
X000550Y006192D01*
X000550Y006290D02*
X000982Y006290D01*
X000894Y006389D02*
X000550Y006389D01*
X000550Y006487D02*
X000894Y006487D01*
X001096Y007177D02*
X000550Y007177D01*
X000550Y007275D02*
X000997Y007275D01*
X000899Y007374D02*
X000550Y007374D01*
X000550Y007472D02*
X000894Y007472D01*
X001330Y007669D02*
X001430Y007669D01*
X001430Y007768D02*
X001330Y007768D01*
X001330Y007866D02*
X001430Y007866D01*
X001430Y007965D02*
X001330Y007965D01*
X001330Y008063D02*
X001430Y008063D01*
X001585Y008063D02*
X001660Y008063D01*
X002851Y003335D02*
X002871Y003335D01*
X002970Y003237D02*
X002752Y003237D01*
X002654Y003138D02*
X003055Y003138D01*
X004920Y002350D02*
X005215Y002350D01*
X008146Y003335D02*
X008614Y003335D01*
X008594Y003434D02*
X008166Y003434D01*
X008166Y003532D02*
X008594Y003532D01*
X008594Y003631D02*
X008166Y003631D01*
X008166Y003729D02*
X008594Y003729D01*
X008594Y003828D02*
X008166Y003828D01*
X008181Y003926D02*
X008579Y003926D01*
X008481Y004025D02*
X008279Y004025D01*
X008357Y004123D02*
X008403Y004123D01*
X008380Y004222D02*
X008380Y004222D01*
X008380Y004320D02*
X008380Y004320D01*
X008380Y004419D02*
X008380Y004419D01*
X008380Y004517D02*
X008380Y004517D01*
X008380Y004616D02*
X008380Y004616D01*
X008380Y004714D02*
X008380Y004714D01*
X008380Y004813D02*
X008380Y004813D01*
X008380Y004911D02*
X008380Y004911D01*
X012167Y001956D02*
X000550Y001956D01*
D27*
X008980Y012180D03*
X010580Y012180D03*
X011780Y011080D03*
X011780Y009280D03*
X011080Y008880D03*
X011280Y008180D03*
X012980Y008180D03*
X013080Y008880D03*
D28*
X011198Y016430D02*
X010181Y016430D01*
X010181Y016881D02*
X009880Y017180D01*
X008480Y017180D01*
X008480Y017830D01*
M02*
