G75*
%MOIN*%
%OFA0B0*%
%FSLAX24Y24*%
%IPPOS*%
%LPD*%
%AMOC8*
5,1,8,0,0,1.08239X$1,22.5*
%
%ADD10C,0.0000*%
%ADD11C,0.0827*%
%ADD12OC8,0.0712*%
%ADD13C,0.0640*%
D10*
X000380Y000380D02*
X000380Y010680D01*
X000880Y011180D01*
X000880Y019876D01*
X019950Y019876D01*
X019950Y000380D01*
X000380Y000380D01*
X004086Y019280D02*
X004088Y019319D01*
X004094Y019358D01*
X004104Y019396D01*
X004117Y019433D01*
X004134Y019468D01*
X004154Y019502D01*
X004178Y019533D01*
X004205Y019562D01*
X004234Y019588D01*
X004266Y019611D01*
X004300Y019631D01*
X004336Y019647D01*
X004373Y019659D01*
X004412Y019668D01*
X004451Y019673D01*
X004490Y019674D01*
X004529Y019671D01*
X004568Y019664D01*
X004605Y019653D01*
X004642Y019639D01*
X004677Y019621D01*
X004710Y019600D01*
X004741Y019575D01*
X004769Y019548D01*
X004794Y019518D01*
X004816Y019485D01*
X004835Y019451D01*
X004850Y019415D01*
X004862Y019377D01*
X004870Y019339D01*
X004874Y019300D01*
X004874Y019260D01*
X004870Y019221D01*
X004862Y019183D01*
X004850Y019145D01*
X004835Y019109D01*
X004816Y019075D01*
X004794Y019042D01*
X004769Y019012D01*
X004741Y018985D01*
X004710Y018960D01*
X004677Y018939D01*
X004642Y018921D01*
X004605Y018907D01*
X004568Y018896D01*
X004529Y018889D01*
X004490Y018886D01*
X004451Y018887D01*
X004412Y018892D01*
X004373Y018901D01*
X004336Y018913D01*
X004300Y018929D01*
X004266Y018949D01*
X004234Y018972D01*
X004205Y018998D01*
X004178Y019027D01*
X004154Y019058D01*
X004134Y019092D01*
X004117Y019127D01*
X004104Y019164D01*
X004094Y019202D01*
X004088Y019241D01*
X004086Y019280D01*
X008886Y019280D02*
X008888Y019319D01*
X008894Y019358D01*
X008904Y019396D01*
X008917Y019433D01*
X008934Y019468D01*
X008954Y019502D01*
X008978Y019533D01*
X009005Y019562D01*
X009034Y019588D01*
X009066Y019611D01*
X009100Y019631D01*
X009136Y019647D01*
X009173Y019659D01*
X009212Y019668D01*
X009251Y019673D01*
X009290Y019674D01*
X009329Y019671D01*
X009368Y019664D01*
X009405Y019653D01*
X009442Y019639D01*
X009477Y019621D01*
X009510Y019600D01*
X009541Y019575D01*
X009569Y019548D01*
X009594Y019518D01*
X009616Y019485D01*
X009635Y019451D01*
X009650Y019415D01*
X009662Y019377D01*
X009670Y019339D01*
X009674Y019300D01*
X009674Y019260D01*
X009670Y019221D01*
X009662Y019183D01*
X009650Y019145D01*
X009635Y019109D01*
X009616Y019075D01*
X009594Y019042D01*
X009569Y019012D01*
X009541Y018985D01*
X009510Y018960D01*
X009477Y018939D01*
X009442Y018921D01*
X009405Y018907D01*
X009368Y018896D01*
X009329Y018889D01*
X009290Y018886D01*
X009251Y018887D01*
X009212Y018892D01*
X009173Y018901D01*
X009136Y018913D01*
X009100Y018929D01*
X009066Y018949D01*
X009034Y018972D01*
X009005Y018998D01*
X008978Y019027D01*
X008954Y019058D01*
X008934Y019092D01*
X008917Y019127D01*
X008904Y019164D01*
X008894Y019202D01*
X008888Y019241D01*
X008886Y019280D01*
X013486Y019280D02*
X013488Y019319D01*
X013494Y019358D01*
X013504Y019396D01*
X013517Y019433D01*
X013534Y019468D01*
X013554Y019502D01*
X013578Y019533D01*
X013605Y019562D01*
X013634Y019588D01*
X013666Y019611D01*
X013700Y019631D01*
X013736Y019647D01*
X013773Y019659D01*
X013812Y019668D01*
X013851Y019673D01*
X013890Y019674D01*
X013929Y019671D01*
X013968Y019664D01*
X014005Y019653D01*
X014042Y019639D01*
X014077Y019621D01*
X014110Y019600D01*
X014141Y019575D01*
X014169Y019548D01*
X014194Y019518D01*
X014216Y019485D01*
X014235Y019451D01*
X014250Y019415D01*
X014262Y019377D01*
X014270Y019339D01*
X014274Y019300D01*
X014274Y019260D01*
X014270Y019221D01*
X014262Y019183D01*
X014250Y019145D01*
X014235Y019109D01*
X014216Y019075D01*
X014194Y019042D01*
X014169Y019012D01*
X014141Y018985D01*
X014110Y018960D01*
X014077Y018939D01*
X014042Y018921D01*
X014005Y018907D01*
X013968Y018896D01*
X013929Y018889D01*
X013890Y018886D01*
X013851Y018887D01*
X013812Y018892D01*
X013773Y018901D01*
X013736Y018913D01*
X013700Y018929D01*
X013666Y018949D01*
X013634Y018972D01*
X013605Y018998D01*
X013578Y019027D01*
X013554Y019058D01*
X013534Y019092D01*
X013517Y019127D01*
X013504Y019164D01*
X013494Y019202D01*
X013488Y019241D01*
X013486Y019280D01*
X016386Y019280D02*
X016388Y019319D01*
X016394Y019358D01*
X016404Y019396D01*
X016417Y019433D01*
X016434Y019468D01*
X016454Y019502D01*
X016478Y019533D01*
X016505Y019562D01*
X016534Y019588D01*
X016566Y019611D01*
X016600Y019631D01*
X016636Y019647D01*
X016673Y019659D01*
X016712Y019668D01*
X016751Y019673D01*
X016790Y019674D01*
X016829Y019671D01*
X016868Y019664D01*
X016905Y019653D01*
X016942Y019639D01*
X016977Y019621D01*
X017010Y019600D01*
X017041Y019575D01*
X017069Y019548D01*
X017094Y019518D01*
X017116Y019485D01*
X017135Y019451D01*
X017150Y019415D01*
X017162Y019377D01*
X017170Y019339D01*
X017174Y019300D01*
X017174Y019260D01*
X017170Y019221D01*
X017162Y019183D01*
X017150Y019145D01*
X017135Y019109D01*
X017116Y019075D01*
X017094Y019042D01*
X017069Y019012D01*
X017041Y018985D01*
X017010Y018960D01*
X016977Y018939D01*
X016942Y018921D01*
X016905Y018907D01*
X016868Y018896D01*
X016829Y018889D01*
X016790Y018886D01*
X016751Y018887D01*
X016712Y018892D01*
X016673Y018901D01*
X016636Y018913D01*
X016600Y018929D01*
X016566Y018949D01*
X016534Y018972D01*
X016505Y018998D01*
X016478Y019027D01*
X016454Y019058D01*
X016434Y019092D01*
X016417Y019127D01*
X016404Y019164D01*
X016394Y019202D01*
X016388Y019241D01*
X016386Y019280D01*
D11*
X016780Y019280D03*
X013880Y019280D03*
X009280Y019280D03*
X004480Y019280D03*
D12*
X002380Y009580D03*
X002380Y008580D03*
X002380Y007580D03*
X002380Y006580D03*
X002380Y005580D03*
X002380Y004580D03*
X002380Y003580D03*
X001380Y003580D03*
X001380Y004580D03*
X001380Y005580D03*
X001380Y006580D03*
X001380Y007580D03*
X001380Y008580D03*
X001380Y009580D03*
D13*
X002330Y017530D02*
X002330Y018130D01*
X003330Y018130D02*
X003330Y017530D01*
X005480Y017530D02*
X005480Y018130D01*
X006480Y018130D02*
X006480Y017530D01*
X007480Y017530D02*
X007480Y018130D01*
X008480Y018130D02*
X008480Y017530D01*
X014830Y017530D02*
X014830Y018130D01*
X015830Y018130D02*
X015830Y017530D01*
X018130Y012330D02*
X018730Y012330D01*
X018730Y011330D02*
X018130Y011330D01*
X018130Y010330D02*
X018730Y010330D01*
X018730Y009080D02*
X018130Y009080D01*
X018130Y008080D02*
X018730Y008080D01*
X018730Y007080D02*
X018130Y007080D01*
X018130Y003430D02*
X018730Y003430D01*
X018730Y002430D02*
X018130Y002430D01*
X018130Y001430D02*
X018730Y001430D01*
M02*
