G75*
%MOIN*%
%OFA0B0*%
%FSLAX24Y24*%
%IPPOS*%
%LPD*%
%AMOC8*
5,1,8,0,0,1.08239X$1,22.5*
%
%ADD10C,0.0000*%
%ADD11C,0.0060*%
%ADD12C,0.0030*%
%ADD13C,0.0070*%
%ADD14C,0.0020*%
%ADD15C,0.0050*%
%ADD16C,0.0040*%
%ADD17C,0.0080*%
%ADD18C,0.0010*%
%ADD19R,0.2047X0.0394*%
%ADD20R,0.0276X0.0197*%
%ADD21R,0.0128X0.0167*%
%ADD22R,0.0138X0.0138*%
D10*
X000380Y000380D02*
X000380Y010680D01*
X000880Y011180D01*
X000880Y019876D01*
X019950Y019876D01*
X019950Y000380D01*
X000380Y000380D01*
X004086Y019280D02*
X004088Y019319D01*
X004094Y019358D01*
X004104Y019396D01*
X004117Y019433D01*
X004134Y019468D01*
X004154Y019502D01*
X004178Y019533D01*
X004205Y019562D01*
X004234Y019588D01*
X004266Y019611D01*
X004300Y019631D01*
X004336Y019647D01*
X004373Y019659D01*
X004412Y019668D01*
X004451Y019673D01*
X004490Y019674D01*
X004529Y019671D01*
X004568Y019664D01*
X004605Y019653D01*
X004642Y019639D01*
X004677Y019621D01*
X004710Y019600D01*
X004741Y019575D01*
X004769Y019548D01*
X004794Y019518D01*
X004816Y019485D01*
X004835Y019451D01*
X004850Y019415D01*
X004862Y019377D01*
X004870Y019339D01*
X004874Y019300D01*
X004874Y019260D01*
X004870Y019221D01*
X004862Y019183D01*
X004850Y019145D01*
X004835Y019109D01*
X004816Y019075D01*
X004794Y019042D01*
X004769Y019012D01*
X004741Y018985D01*
X004710Y018960D01*
X004677Y018939D01*
X004642Y018921D01*
X004605Y018907D01*
X004568Y018896D01*
X004529Y018889D01*
X004490Y018886D01*
X004451Y018887D01*
X004412Y018892D01*
X004373Y018901D01*
X004336Y018913D01*
X004300Y018929D01*
X004266Y018949D01*
X004234Y018972D01*
X004205Y018998D01*
X004178Y019027D01*
X004154Y019058D01*
X004134Y019092D01*
X004117Y019127D01*
X004104Y019164D01*
X004094Y019202D01*
X004088Y019241D01*
X004086Y019280D01*
X008886Y019280D02*
X008888Y019319D01*
X008894Y019358D01*
X008904Y019396D01*
X008917Y019433D01*
X008934Y019468D01*
X008954Y019502D01*
X008978Y019533D01*
X009005Y019562D01*
X009034Y019588D01*
X009066Y019611D01*
X009100Y019631D01*
X009136Y019647D01*
X009173Y019659D01*
X009212Y019668D01*
X009251Y019673D01*
X009290Y019674D01*
X009329Y019671D01*
X009368Y019664D01*
X009405Y019653D01*
X009442Y019639D01*
X009477Y019621D01*
X009510Y019600D01*
X009541Y019575D01*
X009569Y019548D01*
X009594Y019518D01*
X009616Y019485D01*
X009635Y019451D01*
X009650Y019415D01*
X009662Y019377D01*
X009670Y019339D01*
X009674Y019300D01*
X009674Y019260D01*
X009670Y019221D01*
X009662Y019183D01*
X009650Y019145D01*
X009635Y019109D01*
X009616Y019075D01*
X009594Y019042D01*
X009569Y019012D01*
X009541Y018985D01*
X009510Y018960D01*
X009477Y018939D01*
X009442Y018921D01*
X009405Y018907D01*
X009368Y018896D01*
X009329Y018889D01*
X009290Y018886D01*
X009251Y018887D01*
X009212Y018892D01*
X009173Y018901D01*
X009136Y018913D01*
X009100Y018929D01*
X009066Y018949D01*
X009034Y018972D01*
X009005Y018998D01*
X008978Y019027D01*
X008954Y019058D01*
X008934Y019092D01*
X008917Y019127D01*
X008904Y019164D01*
X008894Y019202D01*
X008888Y019241D01*
X008886Y019280D01*
X013486Y019280D02*
X013488Y019319D01*
X013494Y019358D01*
X013504Y019396D01*
X013517Y019433D01*
X013534Y019468D01*
X013554Y019502D01*
X013578Y019533D01*
X013605Y019562D01*
X013634Y019588D01*
X013666Y019611D01*
X013700Y019631D01*
X013736Y019647D01*
X013773Y019659D01*
X013812Y019668D01*
X013851Y019673D01*
X013890Y019674D01*
X013929Y019671D01*
X013968Y019664D01*
X014005Y019653D01*
X014042Y019639D01*
X014077Y019621D01*
X014110Y019600D01*
X014141Y019575D01*
X014169Y019548D01*
X014194Y019518D01*
X014216Y019485D01*
X014235Y019451D01*
X014250Y019415D01*
X014262Y019377D01*
X014270Y019339D01*
X014274Y019300D01*
X014274Y019260D01*
X014270Y019221D01*
X014262Y019183D01*
X014250Y019145D01*
X014235Y019109D01*
X014216Y019075D01*
X014194Y019042D01*
X014169Y019012D01*
X014141Y018985D01*
X014110Y018960D01*
X014077Y018939D01*
X014042Y018921D01*
X014005Y018907D01*
X013968Y018896D01*
X013929Y018889D01*
X013890Y018886D01*
X013851Y018887D01*
X013812Y018892D01*
X013773Y018901D01*
X013736Y018913D01*
X013700Y018929D01*
X013666Y018949D01*
X013634Y018972D01*
X013605Y018998D01*
X013578Y019027D01*
X013554Y019058D01*
X013534Y019092D01*
X013517Y019127D01*
X013504Y019164D01*
X013494Y019202D01*
X013488Y019241D01*
X013486Y019280D01*
X016386Y019280D02*
X016388Y019319D01*
X016394Y019358D01*
X016404Y019396D01*
X016417Y019433D01*
X016434Y019468D01*
X016454Y019502D01*
X016478Y019533D01*
X016505Y019562D01*
X016534Y019588D01*
X016566Y019611D01*
X016600Y019631D01*
X016636Y019647D01*
X016673Y019659D01*
X016712Y019668D01*
X016751Y019673D01*
X016790Y019674D01*
X016829Y019671D01*
X016868Y019664D01*
X016905Y019653D01*
X016942Y019639D01*
X016977Y019621D01*
X017010Y019600D01*
X017041Y019575D01*
X017069Y019548D01*
X017094Y019518D01*
X017116Y019485D01*
X017135Y019451D01*
X017150Y019415D01*
X017162Y019377D01*
X017170Y019339D01*
X017174Y019300D01*
X017174Y019260D01*
X017170Y019221D01*
X017162Y019183D01*
X017150Y019145D01*
X017135Y019109D01*
X017116Y019075D01*
X017094Y019042D01*
X017069Y019012D01*
X017041Y018985D01*
X017010Y018960D01*
X016977Y018939D01*
X016942Y018921D01*
X016905Y018907D01*
X016868Y018896D01*
X016829Y018889D01*
X016790Y018886D01*
X016751Y018887D01*
X016712Y018892D01*
X016673Y018901D01*
X016636Y018913D01*
X016600Y018929D01*
X016566Y018949D01*
X016534Y018972D01*
X016505Y018998D01*
X016478Y019027D01*
X016454Y019058D01*
X016434Y019092D01*
X016417Y019127D01*
X016404Y019164D01*
X016394Y019202D01*
X016388Y019241D01*
X016386Y019280D01*
D11*
X016080Y018330D02*
X015580Y018330D01*
X015330Y018080D01*
X015080Y018330D01*
X014580Y018330D01*
X014330Y018080D01*
X014330Y017580D01*
X014580Y017330D01*
X015080Y017330D01*
X015330Y017580D01*
X015330Y018080D01*
X015330Y017580D02*
X015580Y017330D01*
X016080Y017330D01*
X016330Y017580D01*
X016330Y018080D01*
X016080Y018330D01*
X018180Y012830D02*
X017930Y012580D01*
X017930Y012080D01*
X018180Y011830D01*
X017930Y011580D01*
X017930Y011080D01*
X018180Y010830D01*
X017930Y010580D01*
X017930Y010080D01*
X018180Y009830D01*
X018680Y009830D01*
X018930Y010080D01*
X018930Y010580D01*
X018680Y010830D01*
X018180Y010830D01*
X018680Y010830D02*
X018930Y011080D01*
X018930Y011580D01*
X018680Y011830D01*
X018180Y011830D01*
X018680Y011830D02*
X018930Y012080D01*
X018930Y012580D01*
X018680Y012830D01*
X018180Y012830D01*
X015590Y012360D02*
X015590Y010500D01*
X014170Y010500D01*
X014170Y012360D01*
X015590Y012360D01*
X018180Y009580D02*
X017930Y009330D01*
X017930Y008830D01*
X018180Y008580D01*
X017930Y008330D01*
X017930Y007830D01*
X018180Y007580D01*
X017930Y007330D01*
X017930Y006830D01*
X018180Y006580D01*
X018680Y006580D01*
X018930Y006830D01*
X018930Y007330D01*
X018680Y007580D01*
X018180Y007580D01*
X018680Y007580D02*
X018930Y007830D01*
X018930Y008330D01*
X018680Y008580D01*
X018180Y008580D01*
X018680Y008580D02*
X018930Y008830D01*
X018930Y009330D01*
X018680Y009580D01*
X018180Y009580D01*
X015590Y009310D02*
X015590Y007450D01*
X014170Y007450D01*
X014170Y009310D01*
X015590Y009310D01*
X010860Y010329D02*
X010860Y007731D01*
X003910Y007731D01*
X003910Y010329D01*
X010860Y010329D01*
X010530Y006280D02*
X006230Y006280D01*
X006213Y006278D01*
X006196Y006274D01*
X006180Y006267D01*
X006166Y006257D01*
X006153Y006244D01*
X006143Y006230D01*
X006136Y006214D01*
X006132Y006197D01*
X006130Y006180D01*
X006130Y005780D01*
X006130Y004880D02*
X006130Y004480D01*
X006132Y004463D01*
X006136Y004446D01*
X006143Y004430D01*
X006153Y004416D01*
X006166Y004403D01*
X006180Y004393D01*
X006196Y004386D01*
X006213Y004382D01*
X006230Y004380D01*
X010530Y004380D01*
X010547Y004382D01*
X010564Y004386D01*
X010580Y004393D01*
X010594Y004403D01*
X010607Y004416D01*
X010617Y004430D01*
X010624Y004446D01*
X010628Y004463D01*
X010630Y004480D01*
X010630Y004880D01*
X010630Y005780D02*
X010630Y006180D01*
X010628Y006197D01*
X010624Y006214D01*
X010617Y006230D01*
X010607Y006244D01*
X010594Y006257D01*
X010580Y006267D01*
X010564Y006274D01*
X010547Y006278D01*
X010530Y006280D01*
X008630Y005580D02*
X008630Y005330D01*
X008630Y005080D01*
X008480Y005080D02*
X008280Y005080D01*
X008280Y005580D01*
X008480Y005580D01*
X008480Y005080D01*
X008130Y005080D02*
X008130Y005330D01*
X008130Y005580D01*
X007955Y002601D02*
X007955Y001960D01*
X008382Y001960D01*
X008599Y002067D02*
X008706Y001960D01*
X008919Y001960D01*
X009026Y002067D01*
X009244Y001960D02*
X009244Y002387D01*
X009457Y002601D01*
X009671Y002387D01*
X009671Y001960D01*
X009888Y001960D02*
X009888Y002601D01*
X010315Y001960D01*
X010315Y002601D01*
X009671Y002280D02*
X009244Y002280D01*
X009026Y002494D02*
X008919Y002601D01*
X008706Y002601D01*
X008599Y002494D01*
X008599Y002067D01*
X008706Y001551D02*
X008919Y001551D01*
X009026Y001444D01*
X009026Y001337D01*
X008919Y001230D01*
X008706Y001230D01*
X008599Y001337D01*
X008599Y001444D01*
X008706Y001551D01*
X008706Y001230D02*
X008599Y001124D01*
X008599Y001017D01*
X008706Y000910D01*
X008919Y000910D01*
X009026Y001017D01*
X009026Y001124D01*
X008919Y001230D01*
X009244Y001230D02*
X009671Y001230D01*
X009888Y001337D02*
X010102Y001551D01*
X010102Y000910D01*
X010315Y000910D02*
X009888Y000910D01*
X009564Y000910D02*
X009564Y001551D01*
X009244Y001230D01*
X008382Y001230D02*
X008275Y001124D01*
X007955Y001124D01*
X008168Y001124D02*
X008382Y000910D01*
X008382Y001230D02*
X008382Y001444D01*
X008275Y001551D01*
X007955Y001551D01*
X007955Y000910D01*
X007737Y000910D02*
X007737Y001551D01*
X007630Y001960D02*
X007417Y001960D01*
X007310Y002067D01*
X007417Y002280D02*
X007630Y002280D01*
X007737Y002174D01*
X007737Y002067D01*
X007630Y001960D01*
X007417Y002280D02*
X007310Y002387D01*
X007310Y002494D01*
X007417Y002601D01*
X007630Y002601D01*
X007737Y002494D01*
X007310Y001551D02*
X007310Y000910D01*
X007524Y001124D01*
X007737Y000910D01*
X010533Y000910D02*
X010533Y001551D01*
X010960Y000910D01*
X010960Y001551D01*
X011822Y001337D02*
X012035Y000910D01*
X012249Y001337D01*
X012466Y001337D02*
X012466Y001444D01*
X012573Y001551D01*
X012787Y001551D01*
X012893Y001444D01*
X012893Y001337D01*
X012787Y001230D01*
X012573Y001230D01*
X012466Y001337D01*
X012573Y001230D02*
X012466Y001124D01*
X012466Y001017D01*
X012573Y000910D01*
X012787Y000910D01*
X012893Y001017D01*
X012893Y001124D01*
X012787Y001230D01*
X013111Y001017D02*
X013218Y001017D01*
X013218Y000910D01*
X013111Y000910D01*
X013111Y001017D01*
X013433Y000910D02*
X013860Y001337D01*
X013433Y001337D02*
X013860Y000910D01*
X014270Y001500D02*
X015690Y001500D01*
X015690Y003360D01*
X014270Y003360D01*
X014270Y001500D01*
X017930Y001680D02*
X017930Y001180D01*
X018180Y000930D01*
X018680Y000930D01*
X018930Y001180D01*
X018930Y001680D01*
X018680Y001930D01*
X018180Y001930D01*
X017930Y001680D01*
X018180Y001930D02*
X017930Y002180D01*
X017930Y002680D01*
X018180Y002930D01*
X017930Y003180D01*
X017930Y003680D01*
X018180Y003930D01*
X018680Y003930D01*
X018930Y003680D01*
X018930Y003180D01*
X018680Y002930D01*
X018930Y002680D01*
X018930Y002180D01*
X018680Y001930D01*
X018680Y002930D02*
X018180Y002930D01*
X004070Y008030D02*
X004072Y008059D01*
X004078Y008087D01*
X004087Y008114D01*
X004101Y008139D01*
X004117Y008163D01*
X004137Y008183D01*
X004159Y008202D01*
X004183Y008216D01*
X004210Y008228D01*
X004237Y008236D01*
X004266Y008240D01*
X004294Y008240D01*
X004323Y008236D01*
X004350Y008228D01*
X004377Y008216D01*
X004401Y008202D01*
X004423Y008183D01*
X004443Y008163D01*
X004459Y008139D01*
X004473Y008114D01*
X004482Y008087D01*
X004488Y008059D01*
X004490Y008030D01*
X004488Y008001D01*
X004482Y007973D01*
X004473Y007946D01*
X004459Y007921D01*
X004443Y007897D01*
X004423Y007877D01*
X004401Y007858D01*
X004377Y007844D01*
X004350Y007832D01*
X004323Y007824D01*
X004294Y007820D01*
X004266Y007820D01*
X004237Y007824D01*
X004210Y007832D01*
X004183Y007844D01*
X004159Y007858D01*
X004137Y007877D01*
X004117Y007897D01*
X004101Y007921D01*
X004087Y007946D01*
X004078Y007973D01*
X004072Y008001D01*
X004070Y008030D01*
X002880Y007830D02*
X002880Y007330D01*
X002630Y007080D01*
X001130Y007080D01*
X000880Y007330D01*
X000880Y007830D01*
X001130Y008080D01*
X002630Y008080D01*
X002880Y008330D01*
X002880Y008830D01*
X002630Y009080D01*
X002880Y009330D01*
X002880Y009830D01*
X002630Y010080D01*
X001130Y010080D01*
X000880Y009830D01*
X000880Y009330D01*
X001130Y009080D01*
X002630Y009080D01*
X002630Y008080D02*
X002880Y007830D01*
X002630Y007080D02*
X002880Y006830D01*
X002880Y006330D01*
X002630Y006080D01*
X001130Y006080D01*
X000880Y006330D01*
X000880Y006830D01*
X001130Y007080D01*
X001130Y006080D02*
X000880Y005830D01*
X000880Y005330D01*
X001130Y005080D01*
X002630Y005080D01*
X002880Y005330D01*
X002880Y005830D01*
X002630Y006080D01*
X002630Y005080D02*
X002880Y004830D01*
X002880Y004330D01*
X002630Y004080D01*
X001130Y004080D01*
X000880Y004330D01*
X000880Y004830D01*
X001130Y005080D01*
X001130Y004080D02*
X000880Y003830D01*
X000880Y003330D01*
X001130Y003080D01*
X002630Y003080D01*
X002880Y003330D01*
X002880Y003830D01*
X002630Y004080D01*
X001130Y008080D02*
X000880Y008330D01*
X000880Y008830D01*
X001130Y009080D01*
X002080Y017330D02*
X002580Y017330D01*
X002830Y017580D01*
X003080Y017330D01*
X003580Y017330D01*
X003830Y017580D01*
X003830Y018080D01*
X003580Y018330D01*
X003080Y018330D01*
X002830Y018080D01*
X002830Y017580D01*
X002830Y018080D02*
X002580Y018330D01*
X002080Y018330D01*
X001830Y018080D01*
X001830Y017580D01*
X002080Y017330D01*
X004980Y017580D02*
X005230Y017330D01*
X005730Y017330D01*
X005980Y017580D01*
X006230Y017330D01*
X006730Y017330D01*
X006980Y017580D01*
X006980Y018080D01*
X006730Y018330D01*
X006230Y018330D01*
X005980Y018080D01*
X005980Y017580D01*
X005980Y018080D02*
X005730Y018330D01*
X005230Y018330D01*
X004980Y018080D01*
X004980Y017580D01*
X006980Y017580D02*
X007230Y017330D01*
X007730Y017330D01*
X007980Y017580D01*
X008230Y017330D01*
X008730Y017330D01*
X008980Y017580D01*
X008980Y018080D01*
X008730Y018330D01*
X008230Y018330D01*
X007980Y018080D01*
X007980Y017580D01*
X007980Y018080D02*
X007730Y018330D01*
X007230Y018330D01*
X006980Y018080D01*
D12*
X006617Y018495D02*
X006665Y018543D01*
X006665Y018640D01*
X006617Y018688D01*
X006665Y018790D02*
X006472Y018790D01*
X006375Y018886D01*
X006472Y018983D01*
X006665Y018983D01*
X006665Y019084D02*
X006375Y019084D01*
X006665Y019278D01*
X006375Y019278D01*
X006375Y019379D02*
X006665Y019379D01*
X006665Y019572D01*
X006520Y018983D02*
X006520Y018790D01*
X006423Y018688D02*
X006375Y018640D01*
X006375Y018543D01*
X006423Y018495D01*
X006617Y018495D01*
X007375Y018543D02*
X007423Y018495D01*
X007617Y018495D01*
X007665Y018543D01*
X007665Y018640D01*
X007617Y018688D01*
X007520Y018688D01*
X007520Y018592D01*
X007423Y018688D02*
X007375Y018640D01*
X007375Y018543D01*
X007375Y018790D02*
X007665Y018983D01*
X007375Y018983D01*
X007375Y019084D02*
X007375Y019229D01*
X007423Y019278D01*
X007617Y019278D01*
X007665Y019229D01*
X007665Y019084D01*
X007375Y019084D01*
X007375Y018790D02*
X007665Y018790D01*
X008375Y018838D02*
X008423Y018790D01*
X008617Y018790D01*
X008665Y018838D01*
X008665Y018935D01*
X008617Y018983D01*
X008617Y019084D02*
X008665Y019133D01*
X008665Y019229D01*
X008617Y019278D01*
X008617Y019084D02*
X008423Y019084D01*
X008375Y019133D01*
X008375Y019229D01*
X008423Y019278D01*
X008423Y018983D02*
X008375Y018935D01*
X008375Y018838D01*
X008375Y018688D02*
X008568Y018688D01*
X008665Y018592D01*
X008568Y018495D01*
X008375Y018495D01*
X005665Y018543D02*
X005665Y018640D01*
X005617Y018688D01*
X005665Y018790D02*
X005472Y018790D01*
X005375Y018886D01*
X005472Y018983D01*
X005665Y018983D01*
X005665Y019084D02*
X005375Y019084D01*
X005665Y019278D01*
X005375Y019278D01*
X005375Y019379D02*
X005665Y019379D01*
X005520Y019379D02*
X005520Y019572D01*
X005375Y019572D02*
X005665Y019572D01*
X005520Y018983D02*
X005520Y018790D01*
X005423Y018688D02*
X005375Y018640D01*
X005375Y018543D01*
X005423Y018495D01*
X005617Y018495D01*
X005665Y018543D01*
X014675Y018643D02*
X014723Y018595D01*
X014917Y018595D01*
X014965Y018643D01*
X014965Y018740D01*
X014917Y018788D01*
X014820Y018788D01*
X014820Y018692D01*
X014723Y018788D02*
X014675Y018740D01*
X014675Y018643D01*
X014675Y018890D02*
X014965Y019083D01*
X014675Y019083D01*
X014675Y019184D02*
X014675Y019329D01*
X014723Y019378D01*
X014917Y019378D01*
X014965Y019329D01*
X014965Y019184D01*
X014675Y019184D01*
X014675Y018890D02*
X014965Y018890D01*
X015675Y018995D02*
X015820Y018995D01*
X015772Y019092D01*
X015772Y019140D01*
X015820Y019188D01*
X015917Y019188D01*
X015965Y019140D01*
X015965Y019043D01*
X015917Y018995D01*
X015675Y018995D02*
X015675Y019188D01*
X015675Y019290D02*
X015868Y019290D01*
X015965Y019386D01*
X015868Y019483D01*
X015675Y019483D01*
D13*
X007949Y010146D02*
X007949Y009515D01*
X007739Y009515D02*
X008160Y009515D01*
X007739Y009935D02*
X007949Y010146D01*
X007515Y010040D02*
X007410Y010146D01*
X007200Y010146D01*
X007095Y010040D01*
X007095Y009620D01*
X007200Y009515D01*
X007410Y009515D01*
X007515Y009620D01*
X006875Y009515D02*
X006665Y009515D01*
X006770Y009515D02*
X006770Y010146D01*
X006665Y010146D02*
X006875Y010146D01*
D14*
X007030Y006130D02*
X009730Y006130D01*
X009730Y005830D02*
X007030Y005830D01*
X006992Y005829D01*
X006955Y005824D01*
X006918Y005817D01*
X006882Y005808D01*
X006846Y005795D01*
X006812Y005780D01*
X006369Y004880D02*
X006401Y004835D01*
X006437Y004793D01*
X006476Y004753D01*
X006518Y004716D01*
X006561Y004682D01*
X006608Y004651D01*
X006656Y004623D01*
X006706Y004599D01*
X006757Y004578D01*
X006810Y004561D01*
X006864Y004547D01*
X006919Y004538D01*
X006974Y004532D01*
X007030Y004530D01*
X009730Y004530D01*
X009730Y004830D02*
X007030Y004830D01*
X006369Y005780D02*
X006401Y005825D01*
X006437Y005867D01*
X006476Y005907D01*
X006517Y005944D01*
X006561Y005978D01*
X006608Y006009D01*
X006656Y006037D01*
X006706Y006061D01*
X006757Y006082D01*
X006810Y006099D01*
X006864Y006113D01*
X006919Y006122D01*
X006974Y006128D01*
X007030Y006130D01*
X006812Y004880D02*
X006846Y004865D01*
X006882Y004852D01*
X006918Y004843D01*
X006955Y004836D01*
X006992Y004831D01*
X007030Y004830D01*
X007980Y005330D02*
X008130Y005330D01*
X008630Y005330D02*
X008780Y005330D01*
X009730Y004530D02*
X009786Y004532D01*
X009841Y004538D01*
X009896Y004547D01*
X009950Y004561D01*
X010003Y004578D01*
X010054Y004599D01*
X010104Y004623D01*
X010152Y004651D01*
X010199Y004682D01*
X010243Y004716D01*
X010284Y004753D01*
X010323Y004793D01*
X010359Y004835D01*
X010391Y004880D01*
X010391Y005780D02*
X010359Y005825D01*
X010323Y005867D01*
X010284Y005907D01*
X010242Y005944D01*
X010199Y005978D01*
X010152Y006009D01*
X010104Y006037D01*
X010054Y006061D01*
X010003Y006082D01*
X009950Y006099D01*
X009896Y006113D01*
X009841Y006122D01*
X009786Y006128D01*
X009730Y006130D01*
X009730Y005830D02*
X009768Y005829D01*
X009805Y005824D01*
X009842Y005817D01*
X009878Y005808D01*
X009914Y005795D01*
X009948Y005780D01*
X009948Y004880D02*
X009914Y004865D01*
X009878Y004852D01*
X009842Y004843D01*
X009805Y004836D01*
X009768Y004831D01*
X009730Y004830D01*
D15*
X005695Y004355D02*
X005395Y004355D01*
X005545Y004355D02*
X005545Y004805D01*
X005395Y004655D01*
X005234Y004730D02*
X005234Y004430D01*
X005159Y004355D01*
X005009Y004355D01*
X004934Y004430D01*
X004934Y004730D01*
X005009Y004805D01*
X005159Y004805D01*
X005234Y004730D01*
X005084Y004505D02*
X005234Y004355D01*
X001105Y003026D02*
X001105Y002726D01*
X001105Y002876D02*
X000655Y002876D01*
X000805Y002726D01*
X000730Y002566D02*
X000880Y002566D01*
X000955Y002491D01*
X000955Y002265D01*
X001105Y002265D02*
X000655Y002265D01*
X000655Y002491D01*
X000730Y002566D01*
X000655Y002105D02*
X000655Y001955D01*
X000655Y002030D02*
X001030Y002030D01*
X001105Y001955D01*
X001105Y001880D01*
X001030Y001805D01*
X014259Y009130D02*
X014261Y009146D01*
X014267Y009162D01*
X014276Y009176D01*
X014288Y009187D01*
X014302Y009195D01*
X014318Y009200D01*
X014334Y009201D01*
X014350Y009198D01*
X014365Y009191D01*
X014379Y009182D01*
X014389Y009169D01*
X014397Y009154D01*
X014401Y009138D01*
X014401Y009122D01*
X014397Y009106D01*
X014389Y009091D01*
X014379Y009078D01*
X014366Y009069D01*
X014350Y009062D01*
X014334Y009059D01*
X014318Y009060D01*
X014302Y009065D01*
X014288Y009073D01*
X014276Y009084D01*
X014267Y009098D01*
X014261Y009114D01*
X014259Y009130D01*
X014259Y012180D02*
X014261Y012196D01*
X014267Y012212D01*
X014276Y012226D01*
X014288Y012237D01*
X014302Y012245D01*
X014318Y012250D01*
X014334Y012251D01*
X014350Y012248D01*
X014365Y012241D01*
X014379Y012232D01*
X014389Y012219D01*
X014397Y012204D01*
X014401Y012188D01*
X014401Y012172D01*
X014397Y012156D01*
X014389Y012141D01*
X014379Y012128D01*
X014366Y012119D01*
X014350Y012112D01*
X014334Y012109D01*
X014318Y012110D01*
X014302Y012115D01*
X014288Y012123D01*
X014276Y012134D01*
X014267Y012148D01*
X014261Y012164D01*
X014259Y012180D01*
X019175Y011925D02*
X019250Y011775D01*
X019400Y011625D01*
X019400Y011850D01*
X019475Y011925D01*
X019550Y011925D01*
X019625Y011850D01*
X019625Y011700D01*
X019550Y011625D01*
X019400Y011625D01*
X019400Y011464D02*
X019475Y011389D01*
X019475Y011164D01*
X019625Y011164D02*
X019175Y011164D01*
X019175Y011389D01*
X019250Y011464D01*
X019400Y011464D01*
X019175Y011004D02*
X019175Y010854D01*
X019175Y010929D02*
X019550Y010929D01*
X019625Y010854D01*
X019625Y010779D01*
X019550Y010704D01*
X019550Y008375D02*
X019400Y008375D01*
X019325Y008300D01*
X019325Y008225D01*
X019400Y008075D01*
X019175Y008075D01*
X019175Y008375D01*
X019550Y008375D02*
X019625Y008300D01*
X019625Y008150D01*
X019550Y008075D01*
X019400Y007914D02*
X019475Y007839D01*
X019475Y007614D01*
X019625Y007614D02*
X019175Y007614D01*
X019175Y007839D01*
X019250Y007914D01*
X019400Y007914D01*
X019175Y007454D02*
X019175Y007304D01*
X019175Y007379D02*
X019550Y007379D01*
X019625Y007304D01*
X019625Y007229D01*
X019550Y007154D01*
X015230Y002998D02*
X015230Y002847D01*
X015155Y002772D01*
X015155Y002612D02*
X015230Y002537D01*
X015230Y002387D01*
X015155Y002312D01*
X014855Y002312D01*
X014780Y002387D01*
X014780Y002537D01*
X014855Y002612D01*
X014855Y002772D02*
X014780Y002847D01*
X014780Y002998D01*
X014855Y003073D01*
X014930Y003073D01*
X015005Y002998D01*
X015080Y003073D01*
X015155Y003073D01*
X015230Y002998D01*
X015005Y002998D02*
X015005Y002922D01*
X014359Y003180D02*
X014361Y003196D01*
X014367Y003212D01*
X014376Y003226D01*
X014388Y003237D01*
X014402Y003245D01*
X014418Y003250D01*
X014434Y003251D01*
X014450Y003248D01*
X014465Y003241D01*
X014479Y003232D01*
X014489Y003219D01*
X014497Y003204D01*
X014501Y003188D01*
X014501Y003172D01*
X014497Y003156D01*
X014489Y003141D01*
X014479Y003128D01*
X014466Y003119D01*
X014450Y003112D01*
X014434Y003109D01*
X014418Y003110D01*
X014402Y003115D01*
X014388Y003123D01*
X014376Y003134D01*
X014367Y003148D01*
X014361Y003164D01*
X014359Y003180D01*
X014780Y002155D02*
X014780Y002005D01*
X014780Y002080D02*
X015230Y002080D01*
X015230Y002005D02*
X015230Y002155D01*
X019175Y002189D02*
X019175Y001964D01*
X019625Y001964D01*
X019475Y001964D02*
X019475Y002189D01*
X019400Y002264D01*
X019250Y002264D01*
X019175Y002189D01*
X019400Y002425D02*
X019400Y002725D01*
X019625Y002650D02*
X019175Y002650D01*
X019400Y002425D01*
X019175Y001804D02*
X019175Y001654D01*
X019175Y001729D02*
X019550Y001729D01*
X019625Y001654D01*
X019625Y001579D01*
X019550Y001504D01*
X017225Y017535D02*
X017225Y017610D01*
X017525Y017910D01*
X017525Y017985D01*
X017225Y017985D01*
X017064Y017910D02*
X017064Y017760D01*
X016989Y017685D01*
X016764Y017685D01*
X016764Y017535D02*
X016764Y017985D01*
X016989Y017985D01*
X017064Y017910D01*
X016604Y017985D02*
X016454Y017985D01*
X016529Y017985D02*
X016529Y017610D01*
X016454Y017535D01*
X016379Y017535D01*
X016304Y017610D01*
X010396Y017750D02*
X010321Y017675D01*
X010171Y017675D01*
X010096Y017750D01*
X010246Y017900D02*
X010321Y017900D01*
X010396Y017825D01*
X010396Y017750D01*
X010321Y017900D02*
X010396Y017975D01*
X010396Y018050D01*
X010321Y018125D01*
X010171Y018125D01*
X010096Y018050D01*
X009936Y018050D02*
X009936Y017900D01*
X009861Y017825D01*
X009635Y017825D01*
X009635Y017675D02*
X009635Y018125D01*
X009861Y018125D01*
X009936Y018050D01*
X009475Y018125D02*
X009325Y018125D01*
X009400Y018125D02*
X009400Y017750D01*
X009325Y017675D01*
X009250Y017675D01*
X009175Y017750D01*
X003546Y018575D02*
X003246Y018575D01*
X003546Y018875D01*
X003546Y018950D01*
X003471Y019025D01*
X003321Y019025D01*
X003246Y018950D01*
X003086Y018950D02*
X003086Y018800D01*
X003011Y018725D01*
X002785Y018725D01*
X002785Y018575D02*
X002785Y019025D01*
X003011Y019025D01*
X003086Y018950D01*
X002625Y019025D02*
X002475Y019025D01*
X002550Y019025D02*
X002550Y018650D01*
X002475Y018575D01*
X002400Y018575D01*
X002325Y018650D01*
D16*
X001670Y016960D02*
X001516Y016960D01*
X001440Y016884D01*
X001286Y016884D02*
X001286Y016730D01*
X001209Y016653D01*
X000979Y016653D01*
X000979Y016500D02*
X000979Y016960D01*
X001209Y016960D01*
X001286Y016884D01*
X001133Y016653D02*
X001286Y016500D01*
X001440Y016500D02*
X001747Y016807D01*
X001747Y016884D01*
X001670Y016960D01*
X001747Y016500D02*
X001440Y016500D01*
X002477Y015260D02*
X002400Y015184D01*
X002400Y014877D01*
X002477Y014800D01*
X002630Y014800D01*
X002707Y014877D01*
X002860Y014877D02*
X002937Y014800D01*
X003091Y014800D01*
X003167Y014877D01*
X003167Y015030D01*
X003091Y015107D01*
X003014Y015107D01*
X002860Y015030D01*
X002860Y015260D01*
X003167Y015260D01*
X002707Y015184D02*
X002630Y015260D01*
X002477Y015260D01*
X002727Y013510D02*
X002650Y013434D01*
X002650Y013127D01*
X002727Y013050D01*
X002880Y013050D01*
X002957Y013127D01*
X003110Y013280D02*
X003417Y013280D01*
X003341Y013050D02*
X003341Y013510D01*
X003110Y013280D01*
X002957Y013434D02*
X002880Y013510D01*
X002727Y013510D01*
X002816Y010610D02*
X002970Y010610D01*
X003047Y010534D01*
X003047Y010457D01*
X002970Y010380D01*
X002816Y010380D01*
X002740Y010457D01*
X002740Y010534D01*
X002816Y010610D01*
X002816Y010380D02*
X002740Y010303D01*
X002740Y010227D01*
X002816Y010150D01*
X002970Y010150D01*
X003047Y010227D01*
X003047Y010303D01*
X002970Y010380D01*
X002586Y010380D02*
X002509Y010303D01*
X002279Y010303D01*
X002279Y010150D02*
X002279Y010610D01*
X002509Y010610D01*
X002586Y010534D01*
X002586Y010380D01*
X002433Y010303D02*
X002586Y010150D01*
X004000Y005893D02*
X004460Y005893D01*
X004460Y005740D02*
X004460Y006047D01*
X004153Y005740D02*
X004000Y005893D01*
X004076Y005586D02*
X004000Y005509D01*
X004000Y005279D01*
X004460Y005279D01*
X004307Y005279D02*
X004307Y005509D01*
X004230Y005586D01*
X004076Y005586D01*
X004307Y005433D02*
X004460Y005586D01*
X006750Y003234D02*
X006750Y002927D01*
X006827Y002850D01*
X006980Y002850D01*
X007057Y002927D01*
X007210Y002850D02*
X007517Y002850D01*
X007364Y002850D02*
X007364Y003310D01*
X007210Y003157D01*
X007057Y003234D02*
X006980Y003310D01*
X006827Y003310D01*
X006750Y003234D01*
X006583Y002147D02*
X006660Y002070D01*
X006660Y001916D01*
X006583Y001840D01*
X006583Y001686D02*
X006276Y001686D01*
X006200Y001609D01*
X006200Y001379D01*
X006660Y001379D01*
X006660Y001609D01*
X006583Y001686D01*
X006430Y001993D02*
X006430Y002070D01*
X006507Y002147D01*
X006583Y002147D01*
X006430Y002070D02*
X006353Y002147D01*
X006276Y002147D01*
X006200Y002070D01*
X006200Y001916D01*
X006276Y001840D01*
X006200Y001226D02*
X006200Y000919D01*
X006660Y000919D01*
X006660Y001226D01*
X006430Y001072D02*
X006430Y000919D01*
X006660Y000765D02*
X006660Y000458D01*
X006200Y000458D01*
X004710Y001050D02*
X004250Y001050D01*
X004250Y001280D01*
X004326Y001357D01*
X004480Y001357D01*
X004557Y001280D01*
X004557Y001050D01*
X004557Y001203D02*
X004710Y001357D01*
X004710Y001510D02*
X004710Y001817D01*
X004710Y001664D02*
X004250Y001664D01*
X004403Y001510D01*
X004326Y001971D02*
X004250Y002048D01*
X004250Y002201D01*
X004326Y002278D01*
X004633Y001971D01*
X004710Y002048D01*
X004710Y002201D01*
X004633Y002278D01*
X004326Y002278D01*
X004326Y001971D02*
X004633Y001971D01*
X003910Y001987D02*
X003910Y002141D01*
X003833Y002217D01*
X003526Y002217D01*
X003450Y002141D01*
X003450Y001987D01*
X003526Y001910D01*
X003603Y001910D01*
X003680Y001987D01*
X003680Y002217D01*
X003910Y001987D02*
X003833Y001910D01*
X003910Y001757D02*
X003757Y001603D01*
X003757Y001680D02*
X003757Y001450D01*
X003910Y001450D02*
X003450Y001450D01*
X003450Y001680D01*
X003526Y001757D01*
X003680Y001757D01*
X003757Y001680D01*
X003260Y001609D02*
X003260Y001379D01*
X002800Y001379D01*
X002800Y001609D01*
X002876Y001686D01*
X003183Y001686D01*
X003260Y001609D01*
X003260Y001226D02*
X003260Y000919D01*
X002800Y000919D01*
X002800Y001226D01*
X003030Y001072D02*
X003030Y000919D01*
X003260Y000765D02*
X003260Y000458D01*
X002800Y000458D01*
X002876Y001840D02*
X002800Y001916D01*
X002800Y002070D01*
X002876Y002147D01*
X002953Y002147D01*
X003260Y001840D01*
X003260Y002147D01*
X009229Y002927D02*
X009306Y002850D01*
X009459Y002850D01*
X009536Y002927D01*
X009690Y002850D02*
X009997Y003157D01*
X009997Y003234D01*
X009920Y003310D01*
X009766Y003310D01*
X009690Y003234D01*
X009536Y003234D02*
X009459Y003310D01*
X009306Y003310D01*
X009229Y003234D01*
X009229Y002927D01*
X009690Y002850D02*
X009997Y002850D01*
X011850Y003750D02*
X011850Y004210D01*
X012080Y004210D01*
X012157Y004134D01*
X012157Y003980D01*
X012080Y003903D01*
X011850Y003903D01*
X012003Y003903D02*
X012157Y003750D01*
X012310Y003827D02*
X012387Y003750D01*
X012541Y003750D01*
X012617Y003827D01*
X012617Y003903D01*
X012541Y003980D01*
X012464Y003980D01*
X012541Y003980D02*
X012617Y004057D01*
X012617Y004134D01*
X012541Y004210D01*
X012387Y004210D01*
X012310Y004134D01*
X012900Y004106D02*
X012976Y004029D01*
X013283Y004029D01*
X013360Y004106D01*
X013360Y004259D01*
X013283Y004336D01*
X013283Y004490D02*
X013207Y004490D01*
X013130Y004566D01*
X013130Y004720D01*
X013207Y004797D01*
X013283Y004797D01*
X013360Y004720D01*
X013360Y004566D01*
X013283Y004490D01*
X013130Y004566D02*
X013053Y004490D01*
X012976Y004490D01*
X012900Y004566D01*
X012900Y004720D01*
X012976Y004797D01*
X013053Y004797D01*
X013130Y004720D01*
X012976Y004336D02*
X012900Y004259D01*
X012900Y004106D01*
X012891Y006550D02*
X012891Y007010D01*
X012660Y006780D01*
X012967Y006780D01*
X012507Y006780D02*
X012430Y006703D01*
X012200Y006703D01*
X012200Y006550D02*
X012200Y007010D01*
X012430Y007010D01*
X012507Y006934D01*
X012507Y006780D01*
X012353Y006703D02*
X012507Y006550D01*
X014650Y007850D02*
X014650Y008003D01*
X014650Y007927D02*
X015110Y007927D01*
X015110Y008003D02*
X015110Y007850D01*
X015033Y008157D02*
X014726Y008157D01*
X014650Y008234D01*
X014650Y008387D01*
X014726Y008464D01*
X014880Y008617D02*
X014880Y008924D01*
X015110Y008848D02*
X014650Y008848D01*
X014880Y008617D01*
X015033Y008464D02*
X015110Y008387D01*
X015110Y008234D01*
X015033Y008157D01*
X016369Y008927D02*
X016446Y008850D01*
X016599Y008850D01*
X016676Y008927D01*
X016829Y008850D02*
X017136Y008850D01*
X016983Y008850D02*
X016983Y009310D01*
X016829Y009157D01*
X016676Y009234D02*
X016599Y009310D01*
X016446Y009310D01*
X016369Y009234D01*
X016369Y008927D01*
X017290Y008927D02*
X017366Y008850D01*
X017520Y008850D01*
X017597Y008927D01*
X017597Y009003D01*
X017520Y009080D01*
X017443Y009080D01*
X017520Y009080D02*
X017597Y009157D01*
X017597Y009234D01*
X017520Y009310D01*
X017366Y009310D01*
X017290Y009234D01*
X015160Y010950D02*
X015160Y011103D01*
X015160Y011027D02*
X014700Y011027D01*
X014700Y011103D02*
X014700Y010950D01*
X014776Y011257D02*
X015083Y011257D01*
X015160Y011334D01*
X015160Y011487D01*
X015083Y011564D01*
X015083Y011717D02*
X015160Y011794D01*
X015160Y011948D01*
X015083Y012024D01*
X014930Y012024D01*
X014853Y011948D01*
X014853Y011871D01*
X014930Y011717D01*
X014700Y011717D01*
X014700Y012024D01*
X014776Y011564D02*
X014700Y011487D01*
X014700Y011334D01*
X014776Y011257D01*
X013278Y010634D02*
X013278Y010327D01*
X013201Y010250D01*
X013048Y010250D01*
X012971Y010327D01*
X013278Y010634D01*
X013201Y010710D01*
X013048Y010710D01*
X012971Y010634D01*
X012971Y010327D01*
X012817Y010250D02*
X012510Y010250D01*
X012664Y010250D02*
X012664Y010710D01*
X012510Y010557D01*
X012357Y010634D02*
X012280Y010710D01*
X012127Y010710D01*
X012050Y010634D01*
X012050Y010327D01*
X012127Y010250D01*
X012280Y010250D01*
X012357Y010327D01*
X012410Y012000D02*
X012717Y012000D01*
X012564Y012000D02*
X012564Y012460D01*
X012410Y012307D01*
X012257Y012384D02*
X012180Y012460D01*
X012027Y012460D01*
X011950Y012384D01*
X011950Y012077D01*
X012027Y012000D01*
X012180Y012000D01*
X012257Y012077D01*
X012871Y012000D02*
X013178Y012307D01*
X013178Y012384D01*
X013101Y012460D01*
X012948Y012460D01*
X012871Y012384D01*
X012871Y012000D02*
X013178Y012000D01*
X015719Y013477D02*
X015796Y013400D01*
X015949Y013400D01*
X016026Y013477D01*
X016179Y013400D02*
X016486Y013400D01*
X016333Y013400D02*
X016333Y013860D01*
X016179Y013707D01*
X016026Y013784D02*
X015949Y013860D01*
X015796Y013860D01*
X015719Y013784D01*
X015719Y013477D01*
X016640Y013400D02*
X016947Y013400D01*
X016793Y013400D02*
X016793Y013860D01*
X016640Y013707D01*
X014797Y015584D02*
X014490Y015277D01*
X014490Y015200D01*
X014336Y015277D02*
X014259Y015200D01*
X014106Y015200D01*
X014029Y015277D01*
X014029Y015584D01*
X014106Y015660D01*
X014259Y015660D01*
X014336Y015584D01*
X014490Y015660D02*
X014797Y015660D01*
X014797Y015584D01*
X015279Y016650D02*
X015279Y017110D01*
X015509Y017110D01*
X015586Y017034D01*
X015586Y016880D01*
X015509Y016803D01*
X015279Y016803D01*
X015433Y016803D02*
X015586Y016650D01*
X015740Y016650D02*
X015740Y016727D01*
X016047Y017034D01*
X016047Y017110D01*
X015740Y017110D01*
X019250Y017110D02*
X019710Y017110D01*
X019710Y017417D01*
X019710Y017571D02*
X019710Y017801D01*
X019633Y017878D01*
X019326Y017878D01*
X019250Y017801D01*
X019250Y017571D01*
X019710Y017571D01*
X019480Y017264D02*
X019480Y017110D01*
X019250Y017110D02*
X019250Y017417D01*
X019710Y016957D02*
X019710Y016650D01*
X019250Y016650D01*
X019403Y018031D02*
X019250Y018185D01*
X019710Y018185D01*
X019710Y018338D02*
X019710Y018031D01*
X010017Y015860D02*
X009864Y015784D01*
X009710Y015630D01*
X009941Y015630D01*
X010017Y015553D01*
X010017Y015477D01*
X009941Y015400D01*
X009787Y015400D01*
X009710Y015477D01*
X009710Y015630D01*
X009557Y015477D02*
X009480Y015400D01*
X009327Y015400D01*
X009250Y015477D01*
X009250Y015784D01*
X009327Y015860D01*
X009480Y015860D01*
X009557Y015784D01*
X007147Y014884D02*
X007070Y014960D01*
X006916Y014960D01*
X006840Y014884D01*
X006686Y014884D02*
X006609Y014960D01*
X006456Y014960D01*
X006379Y014884D01*
X006379Y014577D01*
X006456Y014500D01*
X006609Y014500D01*
X006686Y014577D01*
X006840Y014500D02*
X007147Y014807D01*
X007147Y014884D01*
X007147Y014500D02*
X006840Y014500D01*
X006226Y014500D02*
X006072Y014500D01*
X006149Y014500D02*
X006149Y014960D01*
X006072Y014960D02*
X006226Y014960D01*
X008750Y013170D02*
X008750Y013016D01*
X008826Y012940D01*
X008826Y012786D02*
X008750Y012709D01*
X008750Y012556D01*
X008826Y012479D01*
X009133Y012479D01*
X009210Y012556D01*
X009210Y012709D01*
X009133Y012786D01*
X009133Y012940D02*
X009210Y013016D01*
X009210Y013170D01*
X009133Y013247D01*
X009057Y013247D01*
X008980Y013170D01*
X008980Y013093D01*
X008980Y013170D02*
X008903Y013247D01*
X008826Y013247D01*
X008750Y013170D01*
X016576Y004897D02*
X016500Y004820D01*
X016500Y004666D01*
X016576Y004590D01*
X016653Y004590D01*
X016730Y004666D01*
X016730Y004897D01*
X016883Y004897D02*
X016960Y004820D01*
X016960Y004666D01*
X016883Y004590D01*
X016883Y004436D02*
X016960Y004359D01*
X016960Y004206D01*
X016883Y004129D01*
X016576Y004129D01*
X016500Y004206D01*
X016500Y004359D01*
X016576Y004436D01*
X016576Y004897D02*
X016883Y004897D01*
X018000Y005450D02*
X018000Y005680D01*
X018076Y005757D01*
X018230Y005757D01*
X018307Y005680D01*
X018307Y005450D01*
X018460Y005450D02*
X018000Y005450D01*
X018307Y005603D02*
X018460Y005757D01*
X018383Y005910D02*
X018460Y005987D01*
X018460Y006141D01*
X018383Y006217D01*
X018307Y006217D01*
X018230Y006141D01*
X018230Y005910D01*
X018383Y005910D01*
X018230Y005910D02*
X018076Y006064D01*
X018000Y006217D01*
X017233Y001597D02*
X017080Y001597D01*
X017003Y001520D01*
X017003Y001443D01*
X017080Y001290D01*
X016850Y001290D01*
X016850Y001597D01*
X017233Y001597D02*
X017310Y001520D01*
X017310Y001366D01*
X017233Y001290D01*
X017310Y001136D02*
X017157Y000983D01*
X017157Y001059D02*
X017157Y000829D01*
X017310Y000829D02*
X016850Y000829D01*
X016850Y001059D01*
X016926Y001136D01*
X017080Y001136D01*
X017157Y001059D01*
D17*
X007721Y013050D02*
X007721Y015600D01*
X004061Y014830D02*
X004105Y014828D01*
X004148Y014822D01*
X004190Y014813D01*
X004232Y014800D01*
X004272Y014783D01*
X004311Y014763D01*
X004348Y014740D01*
X004382Y014713D01*
X004415Y014684D01*
X004444Y014651D01*
X004471Y014617D01*
X004494Y014580D01*
X004514Y014541D01*
X004531Y014501D01*
X004544Y014459D01*
X004553Y014417D01*
X004559Y014374D01*
X004561Y014330D01*
X004559Y014286D01*
X004553Y014243D01*
X004544Y014201D01*
X004531Y014159D01*
X004514Y014119D01*
X004494Y014080D01*
X004471Y014043D01*
X004444Y014009D01*
X004415Y013976D01*
X004382Y013947D01*
X004348Y013920D01*
X004311Y013897D01*
X004272Y013877D01*
X004232Y013860D01*
X004190Y013847D01*
X004148Y013838D01*
X004105Y013832D01*
X004061Y013830D01*
X004039Y013050D02*
X004039Y015600D01*
D18*
X012174Y019264D02*
X012174Y019302D01*
X012328Y019456D01*
X012328Y019494D01*
X012174Y019494D01*
X012395Y019456D02*
X012395Y019418D01*
X012434Y019379D01*
X012510Y019379D01*
X012549Y019341D01*
X012549Y019302D01*
X012510Y019264D01*
X012434Y019264D01*
X012395Y019302D01*
X012395Y019341D01*
X012434Y019379D01*
X012510Y019379D02*
X012549Y019418D01*
X012549Y019456D01*
X012510Y019494D01*
X012434Y019494D01*
X012395Y019456D01*
X012616Y019456D02*
X012616Y019302D01*
X012770Y019456D01*
X012770Y019302D01*
X012731Y019264D01*
X012655Y019264D01*
X012616Y019302D01*
X012616Y019456D02*
X012655Y019494D01*
X012731Y019494D01*
X012770Y019456D01*
X012837Y019494D02*
X012837Y019379D01*
X012914Y019418D01*
X012952Y019418D01*
X012991Y019379D01*
X012991Y019302D01*
X012952Y019264D01*
X012876Y019264D01*
X012837Y019302D01*
X012837Y019494D02*
X012991Y019494D01*
D19*
X012169Y017409D03*
D20*
X013055Y017113D03*
X011284Y017113D03*
D21*
X018459Y017651D03*
X019001Y017651D03*
X005951Y001559D03*
X005409Y001559D03*
X002551Y001559D03*
X002009Y001559D03*
D22*
X002280Y001711D03*
X005680Y001711D03*
X018730Y017499D03*
M02*
